%TF.GenerationSoftware,KiCad,Pcbnew,8.0.0*%
%TF.CreationDate,2024-06-13T14:54:28-05:00*%
%TF.ProjectId,SolarCheap,536f6c61-7243-4686-9561-702e6b696361,rev?*%
%TF.SameCoordinates,Original*%
%TF.FileFunction,Soldermask,Top*%
%TF.FilePolarity,Negative*%
%FSLAX46Y46*%
G04 Gerber Fmt 4.6, Leading zero omitted, Abs format (unit mm)*
G04 Created by KiCad (PCBNEW 8.0.0) date 2024-06-13 14:54:28*
%MOMM*%
%LPD*%
G01*
G04 APERTURE LIST*
G04 Aperture macros list*
%AMRoundRect*
0 Rectangle with rounded corners*
0 $1 Rounding radius*
0 $2 $3 $4 $5 $6 $7 $8 $9 X,Y pos of 4 corners*
0 Add a 4 corners polygon primitive as box body*
4,1,4,$2,$3,$4,$5,$6,$7,$8,$9,$2,$3,0*
0 Add four circle primitives for the rounded corners*
1,1,$1+$1,$2,$3*
1,1,$1+$1,$4,$5*
1,1,$1+$1,$6,$7*
1,1,$1+$1,$8,$9*
0 Add four rect primitives between the rounded corners*
20,1,$1+$1,$2,$3,$4,$5,0*
20,1,$1+$1,$4,$5,$6,$7,0*
20,1,$1+$1,$6,$7,$8,$9,0*
20,1,$1+$1,$8,$9,$2,$3,0*%
G04 Aperture macros list end*
%ADD10C,0.000100*%
%ADD11RoundRect,0.375000X0.625000X0.375000X-0.625000X0.375000X-0.625000X-0.375000X0.625000X-0.375000X0*%
%ADD12RoundRect,0.500000X0.500000X1.400000X-0.500000X1.400000X-0.500000X-1.400000X0.500000X-1.400000X0*%
%ADD13RoundRect,0.250000X0.475000X-0.250000X0.475000X0.250000X-0.475000X0.250000X-0.475000X-0.250000X0*%
%ADD14RoundRect,0.250000X0.450000X-0.262500X0.450000X0.262500X-0.450000X0.262500X-0.450000X-0.262500X0*%
%ADD15R,1.700000X1.700000*%
%ADD16O,1.700000X1.700000*%
%ADD17RoundRect,0.218750X0.381250X-0.218750X0.381250X0.218750X-0.381250X0.218750X-0.381250X-0.218750X0*%
%ADD18RoundRect,0.250000X0.550000X-1.050000X0.550000X1.050000X-0.550000X1.050000X-0.550000X-1.050000X0*%
%ADD19RoundRect,0.250000X-0.375000X-0.850000X0.375000X-0.850000X0.375000X0.850000X-0.375000X0.850000X0*%
%ADD20C,0.650000*%
%ADD21R,1.400000X0.250000*%
%ADD22O,2.100000X1.000000*%
%ADD23O,1.800000X1.000000*%
%ADD24R,1.000000X1.000000*%
%ADD25R,2.200000X1.050000*%
%ADD26RoundRect,0.250000X-0.250000X-0.475000X0.250000X-0.475000X0.250000X0.475000X-0.250000X0.475000X0*%
%ADD27RoundRect,0.250000X-0.475000X0.250000X-0.475000X-0.250000X0.475000X-0.250000X0.475000X0.250000X0*%
%ADD28RoundRect,0.250000X0.500000X-0.250000X0.500000X0.250000X-0.500000X0.250000X-0.500000X-0.250000X0*%
%ADD29RoundRect,0.249999X-1.550001X0.790001X-1.550001X-0.790001X1.550001X-0.790001X1.550001X0.790001X0*%
%ADD30O,3.600000X2.080000*%
%ADD31RoundRect,0.085000X0.085000X-0.265000X0.085000X0.265000X-0.085000X0.265000X-0.085000X-0.265000X0*%
%ADD32R,1.100000X0.510000*%
%ADD33RoundRect,0.243750X0.243750X0.456250X-0.243750X0.456250X-0.243750X-0.456250X0.243750X-0.456250X0*%
%ADD34RoundRect,0.102000X-0.850000X2.050000X-0.850000X-2.050000X0.850000X-2.050000X0.850000X2.050000X0*%
%ADD35O,1.000000X1.000000*%
%ADD36R,0.800000X0.500000*%
%ADD37R,0.800000X0.400000*%
%ADD38RoundRect,0.250000X-0.450000X0.262500X-0.450000X-0.262500X0.450000X-0.262500X0.450000X0.262500X0*%
%ADD39R,1.800000X0.800000*%
%ADD40R,1.500000X2.200000*%
%ADD41RoundRect,0.150000X0.587500X0.150000X-0.587500X0.150000X-0.587500X-0.150000X0.587500X-0.150000X0*%
%ADD42RoundRect,0.250000X-0.262500X-0.450000X0.262500X-0.450000X0.262500X0.450000X-0.262500X0.450000X0*%
%ADD43R,0.400000X0.900000*%
%ADD44C,2.390000*%
%ADD45C,3.450000*%
G04 APERTURE END LIST*
D10*
%TO.C,BT2*%
X166450000Y-118350000D02*
X163650000Y-118350000D01*
X166450000Y-115550000D01*
X166450000Y-118350000D01*
G36*
X166450000Y-118350000D02*
G01*
X163650000Y-118350000D01*
X166450000Y-115550000D01*
X166450000Y-118350000D01*
G37*
%TD*%
D11*
%TO.C,U3*%
X155450000Y-134025000D03*
X155450000Y-131725000D03*
D12*
X149150000Y-131725000D03*
D11*
X155450000Y-129425000D03*
%TD*%
D13*
%TO.C,C11*%
X129500000Y-124900000D03*
X129500000Y-123000000D03*
%TD*%
D14*
%TO.C,R2*%
X140000000Y-136112500D03*
X140000000Y-134287500D03*
%TD*%
D15*
%TO.C,J5*%
X153200000Y-125875000D03*
D16*
X153200000Y-123335000D03*
%TD*%
D17*
%TO.C,L2*%
X182400000Y-118762500D03*
X182400000Y-116637500D03*
%TD*%
D18*
%TO.C,C10*%
X125700000Y-127500000D03*
X125700000Y-123900000D03*
%TD*%
D19*
%TO.C,L3*%
X138525000Y-123500000D03*
X140675000Y-123500000D03*
%TD*%
D20*
%TO.C,J3*%
X187675000Y-139390000D03*
X187675000Y-133610000D03*
D21*
X186475000Y-139825000D03*
X186475000Y-139025000D03*
X186475000Y-137750000D03*
X186475000Y-136750000D03*
X186475000Y-136250000D03*
X186475000Y-138250000D03*
X186475000Y-133975000D03*
X186475000Y-133175000D03*
X186475000Y-133425000D03*
X186475000Y-134225000D03*
X186475000Y-134750000D03*
X186475000Y-135750000D03*
X186475000Y-137250000D03*
X186475000Y-135250000D03*
X186475000Y-138775000D03*
X186475000Y-139575000D03*
D22*
X187175000Y-140820000D03*
D23*
X191325000Y-140820000D03*
D22*
X187175000Y-132180000D03*
D23*
X191325000Y-132180000D03*
%TD*%
D24*
%TO.C,AE1*%
X184300000Y-116600000D03*
D25*
X185800000Y-115125000D03*
D24*
X187300000Y-116600000D03*
D25*
X185800000Y-118075000D03*
%TD*%
D15*
%TO.C,J2*%
X144800000Y-131700000D03*
%TD*%
D26*
%TO.C,C9*%
X165350000Y-120200000D03*
X167250000Y-120200000D03*
%TD*%
D15*
%TO.C,J6*%
X162675000Y-110535000D03*
D16*
X160135000Y-110535000D03*
%TD*%
D27*
%TO.C,C5*%
X184900000Y-141875000D03*
X184900000Y-143775000D03*
%TD*%
D13*
%TO.C,C1*%
X121700000Y-127400000D03*
X121700000Y-125500000D03*
%TD*%
D28*
%TO.C,U2*%
X164520000Y-143015000D03*
X164520000Y-141745000D03*
X164520000Y-140475000D03*
X164520000Y-139205000D03*
X164520000Y-137935000D03*
X164520000Y-136665000D03*
X164520000Y-135395000D03*
X164520000Y-134125000D03*
X164520000Y-132855000D03*
X164520000Y-131585000D03*
X164520000Y-130315000D03*
X182300000Y-143015000D03*
X182300000Y-141745000D03*
X182300000Y-140475000D03*
X182300000Y-139205000D03*
X182300000Y-137935000D03*
X182300000Y-136665000D03*
X182300000Y-135395000D03*
X182300000Y-134125000D03*
X182300000Y-132855000D03*
X182300000Y-131585000D03*
X182300000Y-130315000D03*
%TD*%
D14*
%TO.C,R5*%
X161100000Y-132500000D03*
X161100000Y-130675000D03*
%TD*%
D13*
%TO.C,C8*%
X169700000Y-125550000D03*
X169700000Y-123650000D03*
%TD*%
D29*
%TO.C,J1*%
X117477500Y-125260000D03*
D30*
X117477500Y-130340000D03*
%TD*%
D31*
%TO.C,U4*%
X172700000Y-125000000D03*
X173200000Y-125000000D03*
X173700000Y-125000000D03*
X173700000Y-123500000D03*
X173200000Y-123500000D03*
X172700000Y-123500000D03*
%TD*%
D32*
%TO.C,U1*%
X129100000Y-131900000D03*
X129100000Y-132900000D03*
X129100000Y-133900000D03*
X129100000Y-134900000D03*
X129100000Y-135900000D03*
X134200000Y-135900000D03*
X134200000Y-134900000D03*
X134200000Y-133900000D03*
X134200000Y-132900000D03*
X134200000Y-131900000D03*
%TD*%
D15*
%TO.C,J4*%
X167100000Y-110500000D03*
%TD*%
%TO.C,J7*%
X177200000Y-124720000D03*
D16*
X179740000Y-124720000D03*
X182280000Y-124720000D03*
X184820000Y-124720000D03*
%TD*%
D33*
%TO.C,D1*%
X134337500Y-124300000D03*
X132462500Y-124300000D03*
%TD*%
D34*
%TO.C,BT2*%
X161800000Y-116200000D03*
%TD*%
D26*
%TO.C,C7*%
X151200000Y-136700000D03*
X153100000Y-136700000D03*
%TD*%
D24*
%TO.C,J8*%
X161000000Y-135190000D03*
D35*
X161000000Y-136460000D03*
X161000000Y-137730000D03*
X161000000Y-139000000D03*
%TD*%
D36*
%TO.C,RN1*%
X164700000Y-123300000D03*
D37*
X164700000Y-124100000D03*
X164700000Y-124900000D03*
D36*
X164700000Y-125700000D03*
X166500000Y-125700000D03*
D37*
X166500000Y-124900000D03*
X166500000Y-124100000D03*
D36*
X166500000Y-123300000D03*
%TD*%
D38*
%TO.C,R1*%
X137600000Y-134275000D03*
X137600000Y-136100000D03*
%TD*%
D39*
%TO.C,U5*%
X170650000Y-112187500D03*
X170650000Y-113287500D03*
X170650000Y-114387500D03*
X170650000Y-115487500D03*
X170650000Y-116587500D03*
X170650000Y-117687500D03*
X170650000Y-118787500D03*
X170650000Y-119887500D03*
X170650000Y-120987500D03*
X180350000Y-120987500D03*
X180350000Y-119887500D03*
X180350000Y-118787500D03*
X180350000Y-117687500D03*
X180350000Y-116587500D03*
X180350000Y-115487500D03*
X180350000Y-114387500D03*
X180350000Y-113287500D03*
X180350000Y-112187500D03*
%TD*%
D13*
%TO.C,C6*%
X150400000Y-126750000D03*
X150400000Y-124850000D03*
%TD*%
D40*
%TO.C,L1*%
X136400000Y-123500000D03*
X142800000Y-123500000D03*
%TD*%
D41*
%TO.C,Q2*%
X134275000Y-128550000D03*
X134275000Y-126650000D03*
X132400000Y-127600000D03*
%TD*%
D33*
%TO.C,D2*%
X134417500Y-121957500D03*
X132542500Y-121957500D03*
%TD*%
D27*
%TO.C,C4*%
X141400000Y-128950000D03*
X141400000Y-130850000D03*
%TD*%
D14*
%TO.C,R3*%
X125887500Y-134112500D03*
X125887500Y-132287500D03*
%TD*%
D18*
%TO.C,C12*%
X146300000Y-125400000D03*
X146300000Y-121800000D03*
%TD*%
D42*
%TO.C,R4*%
X137387500Y-129100000D03*
X139212500Y-129100000D03*
%TD*%
D27*
%TO.C,C2*%
X129500000Y-126700000D03*
X129500000Y-128600000D03*
%TD*%
D43*
%TO.C,RN2*%
X191590000Y-142975000D03*
X190790000Y-142975000D03*
X189990000Y-142975000D03*
X189190000Y-142975000D03*
X189190000Y-144675000D03*
X189990000Y-144675000D03*
X190790000Y-144675000D03*
X191590000Y-144675000D03*
%TD*%
D27*
%TO.C,C3*%
X122600000Y-132300000D03*
X122600000Y-134200000D03*
%TD*%
D44*
%TO.C,BT1*%
X186330000Y-120500000D03*
D45*
X178000000Y-136500000D03*
X122800000Y-120500000D03*
%TD*%
M02*
