%TF.GenerationSoftware,KiCad,Pcbnew,8.0.0*%
%TF.CreationDate,2024-06-13T14:54:28-05:00*%
%TF.ProjectId,SolarCheap,536f6c61-7243-4686-9561-702e6b696361,rev?*%
%TF.SameCoordinates,Original*%
%TF.FileFunction,Legend,Top*%
%TF.FilePolarity,Positive*%
%FSLAX46Y46*%
G04 Gerber Fmt 4.6, Leading zero omitted, Abs format (unit mm)*
G04 Created by KiCad (PCBNEW 8.0.0) date 2024-06-13 14:54:28*
%MOMM*%
%LPD*%
G01*
G04 APERTURE LIST*
%ADD10C,0.100000*%
%ADD11C,0.150000*%
%ADD12C,0.120000*%
%ADD13C,0.000000*%
%ADD14C,0.127000*%
G04 APERTURE END LIST*
D10*
X169600000Y-112200000D02*
X168000000Y-113200000D01*
X168000000Y-111200000D01*
X169600000Y-112200000D01*
G36*
X169600000Y-112200000D02*
G01*
X168000000Y-113200000D01*
X168000000Y-111200000D01*
X169600000Y-112200000D01*
G37*
X163400000Y-143000000D02*
X161800000Y-144000000D01*
X161800000Y-142000000D01*
X163400000Y-143000000D01*
G36*
X163400000Y-143000000D02*
G01*
X161800000Y-144000000D01*
X161800000Y-142000000D01*
X163400000Y-143000000D01*
G37*
D11*
X147738095Y-128154819D02*
X147738095Y-128964342D01*
X147738095Y-128964342D02*
X147785714Y-129059580D01*
X147785714Y-129059580D02*
X147833333Y-129107200D01*
X147833333Y-129107200D02*
X147928571Y-129154819D01*
X147928571Y-129154819D02*
X148119047Y-129154819D01*
X148119047Y-129154819D02*
X148214285Y-129107200D01*
X148214285Y-129107200D02*
X148261904Y-129059580D01*
X148261904Y-129059580D02*
X148309523Y-128964342D01*
X148309523Y-128964342D02*
X148309523Y-128154819D01*
X148690476Y-128154819D02*
X149309523Y-128154819D01*
X149309523Y-128154819D02*
X148976190Y-128535771D01*
X148976190Y-128535771D02*
X149119047Y-128535771D01*
X149119047Y-128535771D02*
X149214285Y-128583390D01*
X149214285Y-128583390D02*
X149261904Y-128631009D01*
X149261904Y-128631009D02*
X149309523Y-128726247D01*
X149309523Y-128726247D02*
X149309523Y-128964342D01*
X149309523Y-128964342D02*
X149261904Y-129059580D01*
X149261904Y-129059580D02*
X149214285Y-129107200D01*
X149214285Y-129107200D02*
X149119047Y-129154819D01*
X149119047Y-129154819D02*
X148833333Y-129154819D01*
X148833333Y-129154819D02*
X148738095Y-129107200D01*
X148738095Y-129107200D02*
X148690476Y-129059580D01*
X129759580Y-121342857D02*
X129807200Y-121390476D01*
X129807200Y-121390476D02*
X129854819Y-121533333D01*
X129854819Y-121533333D02*
X129854819Y-121628571D01*
X129854819Y-121628571D02*
X129807200Y-121771428D01*
X129807200Y-121771428D02*
X129711961Y-121866666D01*
X129711961Y-121866666D02*
X129616723Y-121914285D01*
X129616723Y-121914285D02*
X129426247Y-121961904D01*
X129426247Y-121961904D02*
X129283390Y-121961904D01*
X129283390Y-121961904D02*
X129092914Y-121914285D01*
X129092914Y-121914285D02*
X128997676Y-121866666D01*
X128997676Y-121866666D02*
X128902438Y-121771428D01*
X128902438Y-121771428D02*
X128854819Y-121628571D01*
X128854819Y-121628571D02*
X128854819Y-121533333D01*
X128854819Y-121533333D02*
X128902438Y-121390476D01*
X128902438Y-121390476D02*
X128950057Y-121342857D01*
X129854819Y-120390476D02*
X129854819Y-120961904D01*
X129854819Y-120676190D02*
X128854819Y-120676190D01*
X128854819Y-120676190D02*
X128997676Y-120771428D01*
X128997676Y-120771428D02*
X129092914Y-120866666D01*
X129092914Y-120866666D02*
X129140533Y-120961904D01*
X129854819Y-119438095D02*
X129854819Y-120009523D01*
X129854819Y-119723809D02*
X128854819Y-119723809D01*
X128854819Y-119723809D02*
X128997676Y-119819047D01*
X128997676Y-119819047D02*
X129092914Y-119914285D01*
X129092914Y-119914285D02*
X129140533Y-120009523D01*
X140454819Y-138166666D02*
X139978628Y-138499999D01*
X140454819Y-138738094D02*
X139454819Y-138738094D01*
X139454819Y-138738094D02*
X139454819Y-138357142D01*
X139454819Y-138357142D02*
X139502438Y-138261904D01*
X139502438Y-138261904D02*
X139550057Y-138214285D01*
X139550057Y-138214285D02*
X139645295Y-138166666D01*
X139645295Y-138166666D02*
X139788152Y-138166666D01*
X139788152Y-138166666D02*
X139883390Y-138214285D01*
X139883390Y-138214285D02*
X139931009Y-138261904D01*
X139931009Y-138261904D02*
X139978628Y-138357142D01*
X139978628Y-138357142D02*
X139978628Y-138738094D01*
X139550057Y-137785713D02*
X139502438Y-137738094D01*
X139502438Y-137738094D02*
X139454819Y-137642856D01*
X139454819Y-137642856D02*
X139454819Y-137404761D01*
X139454819Y-137404761D02*
X139502438Y-137309523D01*
X139502438Y-137309523D02*
X139550057Y-137261904D01*
X139550057Y-137261904D02*
X139645295Y-137214285D01*
X139645295Y-137214285D02*
X139740533Y-137214285D01*
X139740533Y-137214285D02*
X139883390Y-137261904D01*
X139883390Y-137261904D02*
X140454819Y-137833332D01*
X140454819Y-137833332D02*
X140454819Y-137214285D01*
X152866666Y-127659819D02*
X152866666Y-128374104D01*
X152866666Y-128374104D02*
X152819047Y-128516961D01*
X152819047Y-128516961D02*
X152723809Y-128612200D01*
X152723809Y-128612200D02*
X152580952Y-128659819D01*
X152580952Y-128659819D02*
X152485714Y-128659819D01*
X153819047Y-127659819D02*
X153342857Y-127659819D01*
X153342857Y-127659819D02*
X153295238Y-128136009D01*
X153295238Y-128136009D02*
X153342857Y-128088390D01*
X153342857Y-128088390D02*
X153438095Y-128040771D01*
X153438095Y-128040771D02*
X153676190Y-128040771D01*
X153676190Y-128040771D02*
X153771428Y-128088390D01*
X153771428Y-128088390D02*
X153819047Y-128136009D01*
X153819047Y-128136009D02*
X153866666Y-128231247D01*
X153866666Y-128231247D02*
X153866666Y-128469342D01*
X153866666Y-128469342D02*
X153819047Y-128564580D01*
X153819047Y-128564580D02*
X153771428Y-128612200D01*
X153771428Y-128612200D02*
X153676190Y-128659819D01*
X153676190Y-128659819D02*
X153438095Y-128659819D01*
X153438095Y-128659819D02*
X153342857Y-128612200D01*
X153342857Y-128612200D02*
X153295238Y-128564580D01*
X182854819Y-115266666D02*
X182854819Y-115742856D01*
X182854819Y-115742856D02*
X181854819Y-115742856D01*
X181950057Y-114980951D02*
X181902438Y-114933332D01*
X181902438Y-114933332D02*
X181854819Y-114838094D01*
X181854819Y-114838094D02*
X181854819Y-114599999D01*
X181854819Y-114599999D02*
X181902438Y-114504761D01*
X181902438Y-114504761D02*
X181950057Y-114457142D01*
X181950057Y-114457142D02*
X182045295Y-114409523D01*
X182045295Y-114409523D02*
X182140533Y-114409523D01*
X182140533Y-114409523D02*
X182283390Y-114457142D01*
X182283390Y-114457142D02*
X182854819Y-115028570D01*
X182854819Y-115028570D02*
X182854819Y-114409523D01*
X125357142Y-122059580D02*
X125309523Y-122107200D01*
X125309523Y-122107200D02*
X125166666Y-122154819D01*
X125166666Y-122154819D02*
X125071428Y-122154819D01*
X125071428Y-122154819D02*
X124928571Y-122107200D01*
X124928571Y-122107200D02*
X124833333Y-122011961D01*
X124833333Y-122011961D02*
X124785714Y-121916723D01*
X124785714Y-121916723D02*
X124738095Y-121726247D01*
X124738095Y-121726247D02*
X124738095Y-121583390D01*
X124738095Y-121583390D02*
X124785714Y-121392914D01*
X124785714Y-121392914D02*
X124833333Y-121297676D01*
X124833333Y-121297676D02*
X124928571Y-121202438D01*
X124928571Y-121202438D02*
X125071428Y-121154819D01*
X125071428Y-121154819D02*
X125166666Y-121154819D01*
X125166666Y-121154819D02*
X125309523Y-121202438D01*
X125309523Y-121202438D02*
X125357142Y-121250057D01*
X126309523Y-122154819D02*
X125738095Y-122154819D01*
X126023809Y-122154819D02*
X126023809Y-121154819D01*
X126023809Y-121154819D02*
X125928571Y-121297676D01*
X125928571Y-121297676D02*
X125833333Y-121392914D01*
X125833333Y-121392914D02*
X125738095Y-121440533D01*
X126928571Y-121154819D02*
X127023809Y-121154819D01*
X127023809Y-121154819D02*
X127119047Y-121202438D01*
X127119047Y-121202438D02*
X127166666Y-121250057D01*
X127166666Y-121250057D02*
X127214285Y-121345295D01*
X127214285Y-121345295D02*
X127261904Y-121535771D01*
X127261904Y-121535771D02*
X127261904Y-121773866D01*
X127261904Y-121773866D02*
X127214285Y-121964342D01*
X127214285Y-121964342D02*
X127166666Y-122059580D01*
X127166666Y-122059580D02*
X127119047Y-122107200D01*
X127119047Y-122107200D02*
X127023809Y-122154819D01*
X127023809Y-122154819D02*
X126928571Y-122154819D01*
X126928571Y-122154819D02*
X126833333Y-122107200D01*
X126833333Y-122107200D02*
X126785714Y-122059580D01*
X126785714Y-122059580D02*
X126738095Y-121964342D01*
X126738095Y-121964342D02*
X126690476Y-121773866D01*
X126690476Y-121773866D02*
X126690476Y-121535771D01*
X126690476Y-121535771D02*
X126738095Y-121345295D01*
X126738095Y-121345295D02*
X126785714Y-121250057D01*
X126785714Y-121250057D02*
X126833333Y-121202438D01*
X126833333Y-121202438D02*
X126928571Y-121154819D01*
X139433333Y-121904819D02*
X138957143Y-121904819D01*
X138957143Y-121904819D02*
X138957143Y-120904819D01*
X139671429Y-120904819D02*
X140290476Y-120904819D01*
X140290476Y-120904819D02*
X139957143Y-121285771D01*
X139957143Y-121285771D02*
X140100000Y-121285771D01*
X140100000Y-121285771D02*
X140195238Y-121333390D01*
X140195238Y-121333390D02*
X140242857Y-121381009D01*
X140242857Y-121381009D02*
X140290476Y-121476247D01*
X140290476Y-121476247D02*
X140290476Y-121714342D01*
X140290476Y-121714342D02*
X140242857Y-121809580D01*
X140242857Y-121809580D02*
X140195238Y-121857200D01*
X140195238Y-121857200D02*
X140100000Y-121904819D01*
X140100000Y-121904819D02*
X139814286Y-121904819D01*
X139814286Y-121904819D02*
X139719048Y-121857200D01*
X139719048Y-121857200D02*
X139671429Y-121809580D01*
X191541666Y-130379819D02*
X191541666Y-131094104D01*
X191541666Y-131094104D02*
X191494047Y-131236961D01*
X191494047Y-131236961D02*
X191398809Y-131332200D01*
X191398809Y-131332200D02*
X191255952Y-131379819D01*
X191255952Y-131379819D02*
X191160714Y-131379819D01*
X191922619Y-130379819D02*
X192541666Y-130379819D01*
X192541666Y-130379819D02*
X192208333Y-130760771D01*
X192208333Y-130760771D02*
X192351190Y-130760771D01*
X192351190Y-130760771D02*
X192446428Y-130808390D01*
X192446428Y-130808390D02*
X192494047Y-130856009D01*
X192494047Y-130856009D02*
X192541666Y-130951247D01*
X192541666Y-130951247D02*
X192541666Y-131189342D01*
X192541666Y-131189342D02*
X192494047Y-131284580D01*
X192494047Y-131284580D02*
X192446428Y-131332200D01*
X192446428Y-131332200D02*
X192351190Y-131379819D01*
X192351190Y-131379819D02*
X192065476Y-131379819D01*
X192065476Y-131379819D02*
X191970238Y-131332200D01*
X191970238Y-131332200D02*
X191922619Y-131284580D01*
X184633333Y-113969104D02*
X185109523Y-113969104D01*
X184538095Y-114254819D02*
X184871428Y-113254819D01*
X184871428Y-113254819D02*
X185204761Y-114254819D01*
X185538095Y-113731009D02*
X185871428Y-113731009D01*
X186014285Y-114254819D02*
X185538095Y-114254819D01*
X185538095Y-114254819D02*
X185538095Y-113254819D01*
X185538095Y-113254819D02*
X186014285Y-113254819D01*
X186966666Y-114254819D02*
X186395238Y-114254819D01*
X186680952Y-114254819D02*
X186680952Y-113254819D01*
X186680952Y-113254819D02*
X186585714Y-113397676D01*
X186585714Y-113397676D02*
X186490476Y-113492914D01*
X186490476Y-113492914D02*
X186395238Y-113540533D01*
X144466666Y-128824819D02*
X144466666Y-129539104D01*
X144466666Y-129539104D02*
X144419047Y-129681961D01*
X144419047Y-129681961D02*
X144323809Y-129777200D01*
X144323809Y-129777200D02*
X144180952Y-129824819D01*
X144180952Y-129824819D02*
X144085714Y-129824819D01*
X144895238Y-128920057D02*
X144942857Y-128872438D01*
X144942857Y-128872438D02*
X145038095Y-128824819D01*
X145038095Y-128824819D02*
X145276190Y-128824819D01*
X145276190Y-128824819D02*
X145371428Y-128872438D01*
X145371428Y-128872438D02*
X145419047Y-128920057D01*
X145419047Y-128920057D02*
X145466666Y-129015295D01*
X145466666Y-129015295D02*
X145466666Y-129110533D01*
X145466666Y-129110533D02*
X145419047Y-129253390D01*
X145419047Y-129253390D02*
X144847619Y-129824819D01*
X144847619Y-129824819D02*
X145466666Y-129824819D01*
X163433333Y-120559580D02*
X163385714Y-120607200D01*
X163385714Y-120607200D02*
X163242857Y-120654819D01*
X163242857Y-120654819D02*
X163147619Y-120654819D01*
X163147619Y-120654819D02*
X163004762Y-120607200D01*
X163004762Y-120607200D02*
X162909524Y-120511961D01*
X162909524Y-120511961D02*
X162861905Y-120416723D01*
X162861905Y-120416723D02*
X162814286Y-120226247D01*
X162814286Y-120226247D02*
X162814286Y-120083390D01*
X162814286Y-120083390D02*
X162861905Y-119892914D01*
X162861905Y-119892914D02*
X162909524Y-119797676D01*
X162909524Y-119797676D02*
X163004762Y-119702438D01*
X163004762Y-119702438D02*
X163147619Y-119654819D01*
X163147619Y-119654819D02*
X163242857Y-119654819D01*
X163242857Y-119654819D02*
X163385714Y-119702438D01*
X163385714Y-119702438D02*
X163433333Y-119750057D01*
X163909524Y-120654819D02*
X164100000Y-120654819D01*
X164100000Y-120654819D02*
X164195238Y-120607200D01*
X164195238Y-120607200D02*
X164242857Y-120559580D01*
X164242857Y-120559580D02*
X164338095Y-120416723D01*
X164338095Y-120416723D02*
X164385714Y-120226247D01*
X164385714Y-120226247D02*
X164385714Y-119845295D01*
X164385714Y-119845295D02*
X164338095Y-119750057D01*
X164338095Y-119750057D02*
X164290476Y-119702438D01*
X164290476Y-119702438D02*
X164195238Y-119654819D01*
X164195238Y-119654819D02*
X164004762Y-119654819D01*
X164004762Y-119654819D02*
X163909524Y-119702438D01*
X163909524Y-119702438D02*
X163861905Y-119750057D01*
X163861905Y-119750057D02*
X163814286Y-119845295D01*
X163814286Y-119845295D02*
X163814286Y-120083390D01*
X163814286Y-120083390D02*
X163861905Y-120178628D01*
X163861905Y-120178628D02*
X163909524Y-120226247D01*
X163909524Y-120226247D02*
X164004762Y-120273866D01*
X164004762Y-120273866D02*
X164195238Y-120273866D01*
X164195238Y-120273866D02*
X164290476Y-120226247D01*
X164290476Y-120226247D02*
X164338095Y-120178628D01*
X164338095Y-120178628D02*
X164385714Y-120083390D01*
X164459819Y-110868333D02*
X165174104Y-110868333D01*
X165174104Y-110868333D02*
X165316961Y-110915952D01*
X165316961Y-110915952D02*
X165412200Y-111011190D01*
X165412200Y-111011190D02*
X165459819Y-111154047D01*
X165459819Y-111154047D02*
X165459819Y-111249285D01*
X164459819Y-109963571D02*
X164459819Y-110154047D01*
X164459819Y-110154047D02*
X164507438Y-110249285D01*
X164507438Y-110249285D02*
X164555057Y-110296904D01*
X164555057Y-110296904D02*
X164697914Y-110392142D01*
X164697914Y-110392142D02*
X164888390Y-110439761D01*
X164888390Y-110439761D02*
X165269342Y-110439761D01*
X165269342Y-110439761D02*
X165364580Y-110392142D01*
X165364580Y-110392142D02*
X165412200Y-110344523D01*
X165412200Y-110344523D02*
X165459819Y-110249285D01*
X165459819Y-110249285D02*
X165459819Y-110058809D01*
X165459819Y-110058809D02*
X165412200Y-109963571D01*
X165412200Y-109963571D02*
X165364580Y-109915952D01*
X165364580Y-109915952D02*
X165269342Y-109868333D01*
X165269342Y-109868333D02*
X165031247Y-109868333D01*
X165031247Y-109868333D02*
X164936009Y-109915952D01*
X164936009Y-109915952D02*
X164888390Y-109963571D01*
X164888390Y-109963571D02*
X164840771Y-110058809D01*
X164840771Y-110058809D02*
X164840771Y-110249285D01*
X164840771Y-110249285D02*
X164888390Y-110344523D01*
X164888390Y-110344523D02*
X164936009Y-110392142D01*
X164936009Y-110392142D02*
X165031247Y-110439761D01*
X186939580Y-142991666D02*
X186987200Y-143039285D01*
X186987200Y-143039285D02*
X187034819Y-143182142D01*
X187034819Y-143182142D02*
X187034819Y-143277380D01*
X187034819Y-143277380D02*
X186987200Y-143420237D01*
X186987200Y-143420237D02*
X186891961Y-143515475D01*
X186891961Y-143515475D02*
X186796723Y-143563094D01*
X186796723Y-143563094D02*
X186606247Y-143610713D01*
X186606247Y-143610713D02*
X186463390Y-143610713D01*
X186463390Y-143610713D02*
X186272914Y-143563094D01*
X186272914Y-143563094D02*
X186177676Y-143515475D01*
X186177676Y-143515475D02*
X186082438Y-143420237D01*
X186082438Y-143420237D02*
X186034819Y-143277380D01*
X186034819Y-143277380D02*
X186034819Y-143182142D01*
X186034819Y-143182142D02*
X186082438Y-143039285D01*
X186082438Y-143039285D02*
X186130057Y-142991666D01*
X186034819Y-142086904D02*
X186034819Y-142563094D01*
X186034819Y-142563094D02*
X186511009Y-142610713D01*
X186511009Y-142610713D02*
X186463390Y-142563094D01*
X186463390Y-142563094D02*
X186415771Y-142467856D01*
X186415771Y-142467856D02*
X186415771Y-142229761D01*
X186415771Y-142229761D02*
X186463390Y-142134523D01*
X186463390Y-142134523D02*
X186511009Y-142086904D01*
X186511009Y-142086904D02*
X186606247Y-142039285D01*
X186606247Y-142039285D02*
X186844342Y-142039285D01*
X186844342Y-142039285D02*
X186939580Y-142086904D01*
X186939580Y-142086904D02*
X186987200Y-142134523D01*
X186987200Y-142134523D02*
X187034819Y-142229761D01*
X187034819Y-142229761D02*
X187034819Y-142467856D01*
X187034819Y-142467856D02*
X186987200Y-142563094D01*
X186987200Y-142563094D02*
X186939580Y-142610713D01*
X122159580Y-123766666D02*
X122207200Y-123814285D01*
X122207200Y-123814285D02*
X122254819Y-123957142D01*
X122254819Y-123957142D02*
X122254819Y-124052380D01*
X122254819Y-124052380D02*
X122207200Y-124195237D01*
X122207200Y-124195237D02*
X122111961Y-124290475D01*
X122111961Y-124290475D02*
X122016723Y-124338094D01*
X122016723Y-124338094D02*
X121826247Y-124385713D01*
X121826247Y-124385713D02*
X121683390Y-124385713D01*
X121683390Y-124385713D02*
X121492914Y-124338094D01*
X121492914Y-124338094D02*
X121397676Y-124290475D01*
X121397676Y-124290475D02*
X121302438Y-124195237D01*
X121302438Y-124195237D02*
X121254819Y-124052380D01*
X121254819Y-124052380D02*
X121254819Y-123957142D01*
X121254819Y-123957142D02*
X121302438Y-123814285D01*
X121302438Y-123814285D02*
X121350057Y-123766666D01*
X122254819Y-122814285D02*
X122254819Y-123385713D01*
X122254819Y-123099999D02*
X121254819Y-123099999D01*
X121254819Y-123099999D02*
X121397676Y-123195237D01*
X121397676Y-123195237D02*
X121492914Y-123290475D01*
X121492914Y-123290475D02*
X121540533Y-123385713D01*
X162196819Y-137426904D02*
X163006342Y-137426904D01*
X163006342Y-137426904D02*
X163101580Y-137379285D01*
X163101580Y-137379285D02*
X163149200Y-137331666D01*
X163149200Y-137331666D02*
X163196819Y-137236428D01*
X163196819Y-137236428D02*
X163196819Y-137045952D01*
X163196819Y-137045952D02*
X163149200Y-136950714D01*
X163149200Y-136950714D02*
X163101580Y-136903095D01*
X163101580Y-136903095D02*
X163006342Y-136855476D01*
X163006342Y-136855476D02*
X162196819Y-136855476D01*
X162292057Y-136426904D02*
X162244438Y-136379285D01*
X162244438Y-136379285D02*
X162196819Y-136284047D01*
X162196819Y-136284047D02*
X162196819Y-136045952D01*
X162196819Y-136045952D02*
X162244438Y-135950714D01*
X162244438Y-135950714D02*
X162292057Y-135903095D01*
X162292057Y-135903095D02*
X162387295Y-135855476D01*
X162387295Y-135855476D02*
X162482533Y-135855476D01*
X162482533Y-135855476D02*
X162625390Y-135903095D01*
X162625390Y-135903095D02*
X163196819Y-136474523D01*
X163196819Y-136474523D02*
X163196819Y-135855476D01*
X159904819Y-131754166D02*
X159428628Y-132087499D01*
X159904819Y-132325594D02*
X158904819Y-132325594D01*
X158904819Y-132325594D02*
X158904819Y-131944642D01*
X158904819Y-131944642D02*
X158952438Y-131849404D01*
X158952438Y-131849404D02*
X159000057Y-131801785D01*
X159000057Y-131801785D02*
X159095295Y-131754166D01*
X159095295Y-131754166D02*
X159238152Y-131754166D01*
X159238152Y-131754166D02*
X159333390Y-131801785D01*
X159333390Y-131801785D02*
X159381009Y-131849404D01*
X159381009Y-131849404D02*
X159428628Y-131944642D01*
X159428628Y-131944642D02*
X159428628Y-132325594D01*
X158904819Y-130849404D02*
X158904819Y-131325594D01*
X158904819Y-131325594D02*
X159381009Y-131373213D01*
X159381009Y-131373213D02*
X159333390Y-131325594D01*
X159333390Y-131325594D02*
X159285771Y-131230356D01*
X159285771Y-131230356D02*
X159285771Y-130992261D01*
X159285771Y-130992261D02*
X159333390Y-130897023D01*
X159333390Y-130897023D02*
X159381009Y-130849404D01*
X159381009Y-130849404D02*
X159476247Y-130801785D01*
X159476247Y-130801785D02*
X159714342Y-130801785D01*
X159714342Y-130801785D02*
X159809580Y-130849404D01*
X159809580Y-130849404D02*
X159857200Y-130897023D01*
X159857200Y-130897023D02*
X159904819Y-130992261D01*
X159904819Y-130992261D02*
X159904819Y-131230356D01*
X159904819Y-131230356D02*
X159857200Y-131325594D01*
X159857200Y-131325594D02*
X159809580Y-131373213D01*
X168379580Y-124766666D02*
X168427200Y-124814285D01*
X168427200Y-124814285D02*
X168474819Y-124957142D01*
X168474819Y-124957142D02*
X168474819Y-125052380D01*
X168474819Y-125052380D02*
X168427200Y-125195237D01*
X168427200Y-125195237D02*
X168331961Y-125290475D01*
X168331961Y-125290475D02*
X168236723Y-125338094D01*
X168236723Y-125338094D02*
X168046247Y-125385713D01*
X168046247Y-125385713D02*
X167903390Y-125385713D01*
X167903390Y-125385713D02*
X167712914Y-125338094D01*
X167712914Y-125338094D02*
X167617676Y-125290475D01*
X167617676Y-125290475D02*
X167522438Y-125195237D01*
X167522438Y-125195237D02*
X167474819Y-125052380D01*
X167474819Y-125052380D02*
X167474819Y-124957142D01*
X167474819Y-124957142D02*
X167522438Y-124814285D01*
X167522438Y-124814285D02*
X167570057Y-124766666D01*
X167903390Y-124195237D02*
X167855771Y-124290475D01*
X167855771Y-124290475D02*
X167808152Y-124338094D01*
X167808152Y-124338094D02*
X167712914Y-124385713D01*
X167712914Y-124385713D02*
X167665295Y-124385713D01*
X167665295Y-124385713D02*
X167570057Y-124338094D01*
X167570057Y-124338094D02*
X167522438Y-124290475D01*
X167522438Y-124290475D02*
X167474819Y-124195237D01*
X167474819Y-124195237D02*
X167474819Y-124004761D01*
X167474819Y-124004761D02*
X167522438Y-123909523D01*
X167522438Y-123909523D02*
X167570057Y-123861904D01*
X167570057Y-123861904D02*
X167665295Y-123814285D01*
X167665295Y-123814285D02*
X167712914Y-123814285D01*
X167712914Y-123814285D02*
X167808152Y-123861904D01*
X167808152Y-123861904D02*
X167855771Y-123909523D01*
X167855771Y-123909523D02*
X167903390Y-124004761D01*
X167903390Y-124004761D02*
X167903390Y-124195237D01*
X167903390Y-124195237D02*
X167951009Y-124290475D01*
X167951009Y-124290475D02*
X167998628Y-124338094D01*
X167998628Y-124338094D02*
X168093866Y-124385713D01*
X168093866Y-124385713D02*
X168284342Y-124385713D01*
X168284342Y-124385713D02*
X168379580Y-124338094D01*
X168379580Y-124338094D02*
X168427200Y-124290475D01*
X168427200Y-124290475D02*
X168474819Y-124195237D01*
X168474819Y-124195237D02*
X168474819Y-124004761D01*
X168474819Y-124004761D02*
X168427200Y-123909523D01*
X168427200Y-123909523D02*
X168379580Y-123861904D01*
X168379580Y-123861904D02*
X168284342Y-123814285D01*
X168284342Y-123814285D02*
X168093866Y-123814285D01*
X168093866Y-123814285D02*
X167998628Y-123861904D01*
X167998628Y-123861904D02*
X167951009Y-123909523D01*
X167951009Y-123909523D02*
X167903390Y-124004761D01*
X120132319Y-128133333D02*
X120846604Y-128133333D01*
X120846604Y-128133333D02*
X120989461Y-128180952D01*
X120989461Y-128180952D02*
X121084700Y-128276190D01*
X121084700Y-128276190D02*
X121132319Y-128419047D01*
X121132319Y-128419047D02*
X121132319Y-128514285D01*
X121132319Y-127133333D02*
X121132319Y-127704761D01*
X121132319Y-127419047D02*
X120132319Y-127419047D01*
X120132319Y-127419047D02*
X120275176Y-127514285D01*
X120275176Y-127514285D02*
X120370414Y-127609523D01*
X120370414Y-127609523D02*
X120418033Y-127704761D01*
X172438095Y-125754819D02*
X172438095Y-126564342D01*
X172438095Y-126564342D02*
X172485714Y-126659580D01*
X172485714Y-126659580D02*
X172533333Y-126707200D01*
X172533333Y-126707200D02*
X172628571Y-126754819D01*
X172628571Y-126754819D02*
X172819047Y-126754819D01*
X172819047Y-126754819D02*
X172914285Y-126707200D01*
X172914285Y-126707200D02*
X172961904Y-126659580D01*
X172961904Y-126659580D02*
X173009523Y-126564342D01*
X173009523Y-126564342D02*
X173009523Y-125754819D01*
X173914285Y-126088152D02*
X173914285Y-126754819D01*
X173676190Y-125707200D02*
X173438095Y-126421485D01*
X173438095Y-126421485D02*
X174057142Y-126421485D01*
X129738095Y-129954819D02*
X129738095Y-130764342D01*
X129738095Y-130764342D02*
X129785714Y-130859580D01*
X129785714Y-130859580D02*
X129833333Y-130907200D01*
X129833333Y-130907200D02*
X129928571Y-130954819D01*
X129928571Y-130954819D02*
X130119047Y-130954819D01*
X130119047Y-130954819D02*
X130214285Y-130907200D01*
X130214285Y-130907200D02*
X130261904Y-130859580D01*
X130261904Y-130859580D02*
X130309523Y-130764342D01*
X130309523Y-130764342D02*
X130309523Y-129954819D01*
X131309523Y-130954819D02*
X130738095Y-130954819D01*
X131023809Y-130954819D02*
X131023809Y-129954819D01*
X131023809Y-129954819D02*
X130928571Y-130097676D01*
X130928571Y-130097676D02*
X130833333Y-130192914D01*
X130833333Y-130192914D02*
X130738095Y-130240533D01*
X166766666Y-107624819D02*
X166766666Y-108339104D01*
X166766666Y-108339104D02*
X166719047Y-108481961D01*
X166719047Y-108481961D02*
X166623809Y-108577200D01*
X166623809Y-108577200D02*
X166480952Y-108624819D01*
X166480952Y-108624819D02*
X166385714Y-108624819D01*
X167671428Y-107958152D02*
X167671428Y-108624819D01*
X167433333Y-107577200D02*
X167195238Y-108291485D01*
X167195238Y-108291485D02*
X167814285Y-108291485D01*
X174324819Y-125053333D02*
X175039104Y-125053333D01*
X175039104Y-125053333D02*
X175181961Y-125100952D01*
X175181961Y-125100952D02*
X175277200Y-125196190D01*
X175277200Y-125196190D02*
X175324819Y-125339047D01*
X175324819Y-125339047D02*
X175324819Y-125434285D01*
X174324819Y-124672380D02*
X174324819Y-124005714D01*
X174324819Y-124005714D02*
X175324819Y-124434285D01*
X131554819Y-125038094D02*
X130554819Y-125038094D01*
X130554819Y-125038094D02*
X130554819Y-124799999D01*
X130554819Y-124799999D02*
X130602438Y-124657142D01*
X130602438Y-124657142D02*
X130697676Y-124561904D01*
X130697676Y-124561904D02*
X130792914Y-124514285D01*
X130792914Y-124514285D02*
X130983390Y-124466666D01*
X130983390Y-124466666D02*
X131126247Y-124466666D01*
X131126247Y-124466666D02*
X131316723Y-124514285D01*
X131316723Y-124514285D02*
X131411961Y-124561904D01*
X131411961Y-124561904D02*
X131507200Y-124657142D01*
X131507200Y-124657142D02*
X131554819Y-124799999D01*
X131554819Y-124799999D02*
X131554819Y-125038094D01*
X131554819Y-123514285D02*
X131554819Y-124085713D01*
X131554819Y-123799999D02*
X130554819Y-123799999D01*
X130554819Y-123799999D02*
X130697676Y-123895237D01*
X130697676Y-123895237D02*
X130792914Y-123990475D01*
X130792914Y-123990475D02*
X130840533Y-124085713D01*
X168262921Y-117287787D02*
X168329695Y-117087467D01*
X168329695Y-117087467D02*
X168396468Y-117020693D01*
X168396468Y-117020693D02*
X168530015Y-116953920D01*
X168530015Y-116953920D02*
X168730336Y-116953920D01*
X168730336Y-116953920D02*
X168863883Y-117020693D01*
X168863883Y-117020693D02*
X168930657Y-117087467D01*
X168930657Y-117087467D02*
X168997430Y-117221014D01*
X168997430Y-117221014D02*
X168997430Y-117755202D01*
X168997430Y-117755202D02*
X167595186Y-117755202D01*
X167595186Y-117755202D02*
X167595186Y-117287787D01*
X167595186Y-117287787D02*
X167661960Y-117154240D01*
X167661960Y-117154240D02*
X167728733Y-117087467D01*
X167728733Y-117087467D02*
X167862280Y-117020693D01*
X167862280Y-117020693D02*
X167995827Y-117020693D01*
X167995827Y-117020693D02*
X168129374Y-117087467D01*
X168129374Y-117087467D02*
X168196148Y-117154240D01*
X168196148Y-117154240D02*
X168262921Y-117287787D01*
X168262921Y-117287787D02*
X168262921Y-117755202D01*
X167595186Y-116553278D02*
X167595186Y-115751996D01*
X168997430Y-116152637D02*
X167595186Y-116152637D01*
X167728733Y-115351355D02*
X167661960Y-115284582D01*
X167661960Y-115284582D02*
X167595186Y-115151035D01*
X167595186Y-115151035D02*
X167595186Y-114817167D01*
X167595186Y-114817167D02*
X167661960Y-114683620D01*
X167661960Y-114683620D02*
X167728733Y-114616847D01*
X167728733Y-114616847D02*
X167862280Y-114550073D01*
X167862280Y-114550073D02*
X167995827Y-114550073D01*
X167995827Y-114550073D02*
X168196148Y-114616847D01*
X168196148Y-114616847D02*
X168997430Y-115418129D01*
X168997430Y-115418129D02*
X168997430Y-114550073D01*
X164519341Y-119388865D02*
X164519341Y-118321215D01*
X165053166Y-118855040D02*
X163985515Y-118855040D01*
X149133333Y-137259580D02*
X149085714Y-137307200D01*
X149085714Y-137307200D02*
X148942857Y-137354819D01*
X148942857Y-137354819D02*
X148847619Y-137354819D01*
X148847619Y-137354819D02*
X148704762Y-137307200D01*
X148704762Y-137307200D02*
X148609524Y-137211961D01*
X148609524Y-137211961D02*
X148561905Y-137116723D01*
X148561905Y-137116723D02*
X148514286Y-136926247D01*
X148514286Y-136926247D02*
X148514286Y-136783390D01*
X148514286Y-136783390D02*
X148561905Y-136592914D01*
X148561905Y-136592914D02*
X148609524Y-136497676D01*
X148609524Y-136497676D02*
X148704762Y-136402438D01*
X148704762Y-136402438D02*
X148847619Y-136354819D01*
X148847619Y-136354819D02*
X148942857Y-136354819D01*
X148942857Y-136354819D02*
X149085714Y-136402438D01*
X149085714Y-136402438D02*
X149133333Y-136450057D01*
X149466667Y-136354819D02*
X150133333Y-136354819D01*
X150133333Y-136354819D02*
X149704762Y-137354819D01*
X160666666Y-132949819D02*
X160666666Y-133664104D01*
X160666666Y-133664104D02*
X160619047Y-133806961D01*
X160619047Y-133806961D02*
X160523809Y-133902200D01*
X160523809Y-133902200D02*
X160380952Y-133949819D01*
X160380952Y-133949819D02*
X160285714Y-133949819D01*
X161285714Y-133378390D02*
X161190476Y-133330771D01*
X161190476Y-133330771D02*
X161142857Y-133283152D01*
X161142857Y-133283152D02*
X161095238Y-133187914D01*
X161095238Y-133187914D02*
X161095238Y-133140295D01*
X161095238Y-133140295D02*
X161142857Y-133045057D01*
X161142857Y-133045057D02*
X161190476Y-132997438D01*
X161190476Y-132997438D02*
X161285714Y-132949819D01*
X161285714Y-132949819D02*
X161476190Y-132949819D01*
X161476190Y-132949819D02*
X161571428Y-132997438D01*
X161571428Y-132997438D02*
X161619047Y-133045057D01*
X161619047Y-133045057D02*
X161666666Y-133140295D01*
X161666666Y-133140295D02*
X161666666Y-133187914D01*
X161666666Y-133187914D02*
X161619047Y-133283152D01*
X161619047Y-133283152D02*
X161571428Y-133330771D01*
X161571428Y-133330771D02*
X161476190Y-133378390D01*
X161476190Y-133378390D02*
X161285714Y-133378390D01*
X161285714Y-133378390D02*
X161190476Y-133426009D01*
X161190476Y-133426009D02*
X161142857Y-133473628D01*
X161142857Y-133473628D02*
X161095238Y-133568866D01*
X161095238Y-133568866D02*
X161095238Y-133759342D01*
X161095238Y-133759342D02*
X161142857Y-133854580D01*
X161142857Y-133854580D02*
X161190476Y-133902200D01*
X161190476Y-133902200D02*
X161285714Y-133949819D01*
X161285714Y-133949819D02*
X161476190Y-133949819D01*
X161476190Y-133949819D02*
X161571428Y-133902200D01*
X161571428Y-133902200D02*
X161619047Y-133854580D01*
X161619047Y-133854580D02*
X161666666Y-133759342D01*
X161666666Y-133759342D02*
X161666666Y-133568866D01*
X161666666Y-133568866D02*
X161619047Y-133473628D01*
X161619047Y-133473628D02*
X161571428Y-133426009D01*
X161571428Y-133426009D02*
X161476190Y-133378390D01*
X163854819Y-125290476D02*
X163378628Y-125623809D01*
X163854819Y-125861904D02*
X162854819Y-125861904D01*
X162854819Y-125861904D02*
X162854819Y-125480952D01*
X162854819Y-125480952D02*
X162902438Y-125385714D01*
X162902438Y-125385714D02*
X162950057Y-125338095D01*
X162950057Y-125338095D02*
X163045295Y-125290476D01*
X163045295Y-125290476D02*
X163188152Y-125290476D01*
X163188152Y-125290476D02*
X163283390Y-125338095D01*
X163283390Y-125338095D02*
X163331009Y-125385714D01*
X163331009Y-125385714D02*
X163378628Y-125480952D01*
X163378628Y-125480952D02*
X163378628Y-125861904D01*
X163854819Y-124861904D02*
X162854819Y-124861904D01*
X162854819Y-124861904D02*
X163854819Y-124290476D01*
X163854819Y-124290476D02*
X162854819Y-124290476D01*
X163854819Y-123290476D02*
X163854819Y-123861904D01*
X163854819Y-123576190D02*
X162854819Y-123576190D01*
X162854819Y-123576190D02*
X162997676Y-123671428D01*
X162997676Y-123671428D02*
X163092914Y-123766666D01*
X163092914Y-123766666D02*
X163140533Y-123861904D01*
X138054819Y-138066666D02*
X137578628Y-138399999D01*
X138054819Y-138638094D02*
X137054819Y-138638094D01*
X137054819Y-138638094D02*
X137054819Y-138257142D01*
X137054819Y-138257142D02*
X137102438Y-138161904D01*
X137102438Y-138161904D02*
X137150057Y-138114285D01*
X137150057Y-138114285D02*
X137245295Y-138066666D01*
X137245295Y-138066666D02*
X137388152Y-138066666D01*
X137388152Y-138066666D02*
X137483390Y-138114285D01*
X137483390Y-138114285D02*
X137531009Y-138161904D01*
X137531009Y-138161904D02*
X137578628Y-138257142D01*
X137578628Y-138257142D02*
X137578628Y-138638094D01*
X138054819Y-137114285D02*
X138054819Y-137685713D01*
X138054819Y-137399999D02*
X137054819Y-137399999D01*
X137054819Y-137399999D02*
X137197676Y-137495237D01*
X137197676Y-137495237D02*
X137292914Y-137590475D01*
X137292914Y-137590475D02*
X137340533Y-137685713D01*
X178688095Y-110192319D02*
X178688095Y-111001842D01*
X178688095Y-111001842D02*
X178735714Y-111097080D01*
X178735714Y-111097080D02*
X178783333Y-111144700D01*
X178783333Y-111144700D02*
X178878571Y-111192319D01*
X178878571Y-111192319D02*
X179069047Y-111192319D01*
X179069047Y-111192319D02*
X179164285Y-111144700D01*
X179164285Y-111144700D02*
X179211904Y-111097080D01*
X179211904Y-111097080D02*
X179259523Y-111001842D01*
X179259523Y-111001842D02*
X179259523Y-110192319D01*
X180211904Y-110192319D02*
X179735714Y-110192319D01*
X179735714Y-110192319D02*
X179688095Y-110668509D01*
X179688095Y-110668509D02*
X179735714Y-110620890D01*
X179735714Y-110620890D02*
X179830952Y-110573271D01*
X179830952Y-110573271D02*
X180069047Y-110573271D01*
X180069047Y-110573271D02*
X180164285Y-110620890D01*
X180164285Y-110620890D02*
X180211904Y-110668509D01*
X180211904Y-110668509D02*
X180259523Y-110763747D01*
X180259523Y-110763747D02*
X180259523Y-111001842D01*
X180259523Y-111001842D02*
X180211904Y-111097080D01*
X180211904Y-111097080D02*
X180164285Y-111144700D01*
X180164285Y-111144700D02*
X180069047Y-111192319D01*
X180069047Y-111192319D02*
X179830952Y-111192319D01*
X179830952Y-111192319D02*
X179735714Y-111144700D01*
X179735714Y-111144700D02*
X179688095Y-111097080D01*
X150333333Y-123859580D02*
X150285714Y-123907200D01*
X150285714Y-123907200D02*
X150142857Y-123954819D01*
X150142857Y-123954819D02*
X150047619Y-123954819D01*
X150047619Y-123954819D02*
X149904762Y-123907200D01*
X149904762Y-123907200D02*
X149809524Y-123811961D01*
X149809524Y-123811961D02*
X149761905Y-123716723D01*
X149761905Y-123716723D02*
X149714286Y-123526247D01*
X149714286Y-123526247D02*
X149714286Y-123383390D01*
X149714286Y-123383390D02*
X149761905Y-123192914D01*
X149761905Y-123192914D02*
X149809524Y-123097676D01*
X149809524Y-123097676D02*
X149904762Y-123002438D01*
X149904762Y-123002438D02*
X150047619Y-122954819D01*
X150047619Y-122954819D02*
X150142857Y-122954819D01*
X150142857Y-122954819D02*
X150285714Y-123002438D01*
X150285714Y-123002438D02*
X150333333Y-123050057D01*
X151190476Y-122954819D02*
X151000000Y-122954819D01*
X151000000Y-122954819D02*
X150904762Y-123002438D01*
X150904762Y-123002438D02*
X150857143Y-123050057D01*
X150857143Y-123050057D02*
X150761905Y-123192914D01*
X150761905Y-123192914D02*
X150714286Y-123383390D01*
X150714286Y-123383390D02*
X150714286Y-123764342D01*
X150714286Y-123764342D02*
X150761905Y-123859580D01*
X150761905Y-123859580D02*
X150809524Y-123907200D01*
X150809524Y-123907200D02*
X150904762Y-123954819D01*
X150904762Y-123954819D02*
X151095238Y-123954819D01*
X151095238Y-123954819D02*
X151190476Y-123907200D01*
X151190476Y-123907200D02*
X151238095Y-123859580D01*
X151238095Y-123859580D02*
X151285714Y-123764342D01*
X151285714Y-123764342D02*
X151285714Y-123526247D01*
X151285714Y-123526247D02*
X151238095Y-123431009D01*
X151238095Y-123431009D02*
X151190476Y-123383390D01*
X151190476Y-123383390D02*
X151095238Y-123335771D01*
X151095238Y-123335771D02*
X150904762Y-123335771D01*
X150904762Y-123335771D02*
X150809524Y-123383390D01*
X150809524Y-123383390D02*
X150761905Y-123431009D01*
X150761905Y-123431009D02*
X150714286Y-123526247D01*
X139433333Y-119504819D02*
X138957143Y-119504819D01*
X138957143Y-119504819D02*
X138957143Y-118504819D01*
X140290476Y-119504819D02*
X139719048Y-119504819D01*
X140004762Y-119504819D02*
X140004762Y-118504819D01*
X140004762Y-118504819D02*
X139909524Y-118647676D01*
X139909524Y-118647676D02*
X139814286Y-118742914D01*
X139814286Y-118742914D02*
X139719048Y-118790533D01*
X133242261Y-130550057D02*
X133147023Y-130502438D01*
X133147023Y-130502438D02*
X133051785Y-130407200D01*
X133051785Y-130407200D02*
X132908928Y-130264342D01*
X132908928Y-130264342D02*
X132813690Y-130216723D01*
X132813690Y-130216723D02*
X132718452Y-130216723D01*
X132766071Y-130454819D02*
X132670833Y-130407200D01*
X132670833Y-130407200D02*
X132575595Y-130311961D01*
X132575595Y-130311961D02*
X132527976Y-130121485D01*
X132527976Y-130121485D02*
X132527976Y-129788152D01*
X132527976Y-129788152D02*
X132575595Y-129597676D01*
X132575595Y-129597676D02*
X132670833Y-129502438D01*
X132670833Y-129502438D02*
X132766071Y-129454819D01*
X132766071Y-129454819D02*
X132956547Y-129454819D01*
X132956547Y-129454819D02*
X133051785Y-129502438D01*
X133051785Y-129502438D02*
X133147023Y-129597676D01*
X133147023Y-129597676D02*
X133194642Y-129788152D01*
X133194642Y-129788152D02*
X133194642Y-130121485D01*
X133194642Y-130121485D02*
X133147023Y-130311961D01*
X133147023Y-130311961D02*
X133051785Y-130407200D01*
X133051785Y-130407200D02*
X132956547Y-130454819D01*
X132956547Y-130454819D02*
X132766071Y-130454819D01*
X133575595Y-129550057D02*
X133623214Y-129502438D01*
X133623214Y-129502438D02*
X133718452Y-129454819D01*
X133718452Y-129454819D02*
X133956547Y-129454819D01*
X133956547Y-129454819D02*
X134051785Y-129502438D01*
X134051785Y-129502438D02*
X134099404Y-129550057D01*
X134099404Y-129550057D02*
X134147023Y-129645295D01*
X134147023Y-129645295D02*
X134147023Y-129740533D01*
X134147023Y-129740533D02*
X134099404Y-129883390D01*
X134099404Y-129883390D02*
X133527976Y-130454819D01*
X133527976Y-130454819D02*
X134147023Y-130454819D01*
X131654819Y-122695594D02*
X130654819Y-122695594D01*
X130654819Y-122695594D02*
X130654819Y-122457499D01*
X130654819Y-122457499D02*
X130702438Y-122314642D01*
X130702438Y-122314642D02*
X130797676Y-122219404D01*
X130797676Y-122219404D02*
X130892914Y-122171785D01*
X130892914Y-122171785D02*
X131083390Y-122124166D01*
X131083390Y-122124166D02*
X131226247Y-122124166D01*
X131226247Y-122124166D02*
X131416723Y-122171785D01*
X131416723Y-122171785D02*
X131511961Y-122219404D01*
X131511961Y-122219404D02*
X131607200Y-122314642D01*
X131607200Y-122314642D02*
X131654819Y-122457499D01*
X131654819Y-122457499D02*
X131654819Y-122695594D01*
X130750057Y-121743213D02*
X130702438Y-121695594D01*
X130702438Y-121695594D02*
X130654819Y-121600356D01*
X130654819Y-121600356D02*
X130654819Y-121362261D01*
X130654819Y-121362261D02*
X130702438Y-121267023D01*
X130702438Y-121267023D02*
X130750057Y-121219404D01*
X130750057Y-121219404D02*
X130845295Y-121171785D01*
X130845295Y-121171785D02*
X130940533Y-121171785D01*
X130940533Y-121171785D02*
X131083390Y-121219404D01*
X131083390Y-121219404D02*
X131654819Y-121790832D01*
X131654819Y-121790832D02*
X131654819Y-121171785D01*
X141233334Y-132559579D02*
X141185715Y-132607199D01*
X141185715Y-132607199D02*
X141042858Y-132654818D01*
X141042858Y-132654818D02*
X140947620Y-132654818D01*
X140947620Y-132654818D02*
X140804763Y-132607199D01*
X140804763Y-132607199D02*
X140709525Y-132511960D01*
X140709525Y-132511960D02*
X140661906Y-132416722D01*
X140661906Y-132416722D02*
X140614287Y-132226246D01*
X140614287Y-132226246D02*
X140614287Y-132083389D01*
X140614287Y-132083389D02*
X140661906Y-131892913D01*
X140661906Y-131892913D02*
X140709525Y-131797675D01*
X140709525Y-131797675D02*
X140804763Y-131702437D01*
X140804763Y-131702437D02*
X140947620Y-131654818D01*
X140947620Y-131654818D02*
X141042858Y-131654818D01*
X141042858Y-131654818D02*
X141185715Y-131702437D01*
X141185715Y-131702437D02*
X141233334Y-131750056D01*
X142090477Y-131988151D02*
X142090477Y-132654818D01*
X141852382Y-131607199D02*
X141614287Y-132321484D01*
X141614287Y-132321484D02*
X142233334Y-132321484D01*
X124692319Y-133366666D02*
X124216128Y-133699999D01*
X124692319Y-133938094D02*
X123692319Y-133938094D01*
X123692319Y-133938094D02*
X123692319Y-133557142D01*
X123692319Y-133557142D02*
X123739938Y-133461904D01*
X123739938Y-133461904D02*
X123787557Y-133414285D01*
X123787557Y-133414285D02*
X123882795Y-133366666D01*
X123882795Y-133366666D02*
X124025652Y-133366666D01*
X124025652Y-133366666D02*
X124120890Y-133414285D01*
X124120890Y-133414285D02*
X124168509Y-133461904D01*
X124168509Y-133461904D02*
X124216128Y-133557142D01*
X124216128Y-133557142D02*
X124216128Y-133938094D01*
X123692319Y-133033332D02*
X123692319Y-132414285D01*
X123692319Y-132414285D02*
X124073271Y-132747618D01*
X124073271Y-132747618D02*
X124073271Y-132604761D01*
X124073271Y-132604761D02*
X124120890Y-132509523D01*
X124120890Y-132509523D02*
X124168509Y-132461904D01*
X124168509Y-132461904D02*
X124263747Y-132414285D01*
X124263747Y-132414285D02*
X124501842Y-132414285D01*
X124501842Y-132414285D02*
X124597080Y-132461904D01*
X124597080Y-132461904D02*
X124644700Y-132509523D01*
X124644700Y-132509523D02*
X124692319Y-132604761D01*
X124692319Y-132604761D02*
X124692319Y-132890475D01*
X124692319Y-132890475D02*
X124644700Y-132985713D01*
X124644700Y-132985713D02*
X124597080Y-133033332D01*
X145457142Y-119859580D02*
X145409523Y-119907200D01*
X145409523Y-119907200D02*
X145266666Y-119954819D01*
X145266666Y-119954819D02*
X145171428Y-119954819D01*
X145171428Y-119954819D02*
X145028571Y-119907200D01*
X145028571Y-119907200D02*
X144933333Y-119811961D01*
X144933333Y-119811961D02*
X144885714Y-119716723D01*
X144885714Y-119716723D02*
X144838095Y-119526247D01*
X144838095Y-119526247D02*
X144838095Y-119383390D01*
X144838095Y-119383390D02*
X144885714Y-119192914D01*
X144885714Y-119192914D02*
X144933333Y-119097676D01*
X144933333Y-119097676D02*
X145028571Y-119002438D01*
X145028571Y-119002438D02*
X145171428Y-118954819D01*
X145171428Y-118954819D02*
X145266666Y-118954819D01*
X145266666Y-118954819D02*
X145409523Y-119002438D01*
X145409523Y-119002438D02*
X145457142Y-119050057D01*
X146409523Y-119954819D02*
X145838095Y-119954819D01*
X146123809Y-119954819D02*
X146123809Y-118954819D01*
X146123809Y-118954819D02*
X146028571Y-119097676D01*
X146028571Y-119097676D02*
X145933333Y-119192914D01*
X145933333Y-119192914D02*
X145838095Y-119240533D01*
X146790476Y-119050057D02*
X146838095Y-119002438D01*
X146838095Y-119002438D02*
X146933333Y-118954819D01*
X146933333Y-118954819D02*
X147171428Y-118954819D01*
X147171428Y-118954819D02*
X147266666Y-119002438D01*
X147266666Y-119002438D02*
X147314285Y-119050057D01*
X147314285Y-119050057D02*
X147361904Y-119145295D01*
X147361904Y-119145295D02*
X147361904Y-119240533D01*
X147361904Y-119240533D02*
X147314285Y-119383390D01*
X147314285Y-119383390D02*
X146742857Y-119954819D01*
X146742857Y-119954819D02*
X147361904Y-119954819D01*
X138133333Y-127904819D02*
X137800000Y-127428628D01*
X137561905Y-127904819D02*
X137561905Y-126904819D01*
X137561905Y-126904819D02*
X137942857Y-126904819D01*
X137942857Y-126904819D02*
X138038095Y-126952438D01*
X138038095Y-126952438D02*
X138085714Y-127000057D01*
X138085714Y-127000057D02*
X138133333Y-127095295D01*
X138133333Y-127095295D02*
X138133333Y-127238152D01*
X138133333Y-127238152D02*
X138085714Y-127333390D01*
X138085714Y-127333390D02*
X138038095Y-127381009D01*
X138038095Y-127381009D02*
X137942857Y-127428628D01*
X137942857Y-127428628D02*
X137561905Y-127428628D01*
X138990476Y-127238152D02*
X138990476Y-127904819D01*
X138752381Y-126857200D02*
X138514286Y-127571485D01*
X138514286Y-127571485D02*
X139133333Y-127571485D01*
X128259580Y-129266666D02*
X128307200Y-129314285D01*
X128307200Y-129314285D02*
X128354819Y-129457142D01*
X128354819Y-129457142D02*
X128354819Y-129552380D01*
X128354819Y-129552380D02*
X128307200Y-129695237D01*
X128307200Y-129695237D02*
X128211961Y-129790475D01*
X128211961Y-129790475D02*
X128116723Y-129838094D01*
X128116723Y-129838094D02*
X127926247Y-129885713D01*
X127926247Y-129885713D02*
X127783390Y-129885713D01*
X127783390Y-129885713D02*
X127592914Y-129838094D01*
X127592914Y-129838094D02*
X127497676Y-129790475D01*
X127497676Y-129790475D02*
X127402438Y-129695237D01*
X127402438Y-129695237D02*
X127354819Y-129552380D01*
X127354819Y-129552380D02*
X127354819Y-129457142D01*
X127354819Y-129457142D02*
X127402438Y-129314285D01*
X127402438Y-129314285D02*
X127450057Y-129266666D01*
X127450057Y-128885713D02*
X127402438Y-128838094D01*
X127402438Y-128838094D02*
X127354819Y-128742856D01*
X127354819Y-128742856D02*
X127354819Y-128504761D01*
X127354819Y-128504761D02*
X127402438Y-128409523D01*
X127402438Y-128409523D02*
X127450057Y-128361904D01*
X127450057Y-128361904D02*
X127545295Y-128314285D01*
X127545295Y-128314285D02*
X127640533Y-128314285D01*
X127640533Y-128314285D02*
X127783390Y-128361904D01*
X127783390Y-128361904D02*
X128354819Y-128933332D01*
X128354819Y-128933332D02*
X128354819Y-128314285D01*
X193444819Y-144515476D02*
X192968628Y-144848809D01*
X193444819Y-145086904D02*
X192444819Y-145086904D01*
X192444819Y-145086904D02*
X192444819Y-144705952D01*
X192444819Y-144705952D02*
X192492438Y-144610714D01*
X192492438Y-144610714D02*
X192540057Y-144563095D01*
X192540057Y-144563095D02*
X192635295Y-144515476D01*
X192635295Y-144515476D02*
X192778152Y-144515476D01*
X192778152Y-144515476D02*
X192873390Y-144563095D01*
X192873390Y-144563095D02*
X192921009Y-144610714D01*
X192921009Y-144610714D02*
X192968628Y-144705952D01*
X192968628Y-144705952D02*
X192968628Y-145086904D01*
X193444819Y-144086904D02*
X192444819Y-144086904D01*
X192444819Y-144086904D02*
X193444819Y-143515476D01*
X193444819Y-143515476D02*
X192444819Y-143515476D01*
X192540057Y-143086904D02*
X192492438Y-143039285D01*
X192492438Y-143039285D02*
X192444819Y-142944047D01*
X192444819Y-142944047D02*
X192444819Y-142705952D01*
X192444819Y-142705952D02*
X192492438Y-142610714D01*
X192492438Y-142610714D02*
X192540057Y-142563095D01*
X192540057Y-142563095D02*
X192635295Y-142515476D01*
X192635295Y-142515476D02*
X192730533Y-142515476D01*
X192730533Y-142515476D02*
X192873390Y-142563095D01*
X192873390Y-142563095D02*
X193444819Y-143134523D01*
X193444819Y-143134523D02*
X193444819Y-142515476D01*
X121359580Y-133416666D02*
X121407200Y-133464285D01*
X121407200Y-133464285D02*
X121454819Y-133607142D01*
X121454819Y-133607142D02*
X121454819Y-133702380D01*
X121454819Y-133702380D02*
X121407200Y-133845237D01*
X121407200Y-133845237D02*
X121311961Y-133940475D01*
X121311961Y-133940475D02*
X121216723Y-133988094D01*
X121216723Y-133988094D02*
X121026247Y-134035713D01*
X121026247Y-134035713D02*
X120883390Y-134035713D01*
X120883390Y-134035713D02*
X120692914Y-133988094D01*
X120692914Y-133988094D02*
X120597676Y-133940475D01*
X120597676Y-133940475D02*
X120502438Y-133845237D01*
X120502438Y-133845237D02*
X120454819Y-133702380D01*
X120454819Y-133702380D02*
X120454819Y-133607142D01*
X120454819Y-133607142D02*
X120502438Y-133464285D01*
X120502438Y-133464285D02*
X120550057Y-133416666D01*
X120454819Y-133083332D02*
X120454819Y-132464285D01*
X120454819Y-132464285D02*
X120835771Y-132797618D01*
X120835771Y-132797618D02*
X120835771Y-132654761D01*
X120835771Y-132654761D02*
X120883390Y-132559523D01*
X120883390Y-132559523D02*
X120931009Y-132511904D01*
X120931009Y-132511904D02*
X121026247Y-132464285D01*
X121026247Y-132464285D02*
X121264342Y-132464285D01*
X121264342Y-132464285D02*
X121359580Y-132511904D01*
X121359580Y-132511904D02*
X121407200Y-132559523D01*
X121407200Y-132559523D02*
X121454819Y-132654761D01*
X121454819Y-132654761D02*
X121454819Y-132940475D01*
X121454819Y-132940475D02*
X121407200Y-133035713D01*
X121407200Y-133035713D02*
X121359580Y-133083332D01*
D12*
%TO.C,U3*%
X150390000Y-128315000D02*
X150390000Y-129575000D01*
X150390000Y-135135000D02*
X150390000Y-133875000D01*
X154150000Y-128315000D02*
X150390000Y-128315000D01*
X154150000Y-135135000D02*
X150390000Y-135135000D01*
X155670000Y-135365000D02*
X155190000Y-135365000D01*
X155430000Y-135035000D01*
X155670000Y-135365000D01*
G36*
X155670000Y-135365000D02*
G01*
X155190000Y-135365000D01*
X155430000Y-135035000D01*
X155670000Y-135365000D01*
G37*
%TO.C,C11*%
X128765000Y-124211252D02*
X128765000Y-123688748D01*
X130235000Y-124211252D02*
X130235000Y-123688748D01*
%TO.C,R2*%
X139265000Y-135427064D02*
X139265000Y-134972936D01*
X140735000Y-135427064D02*
X140735000Y-134972936D01*
%TO.C,J5*%
X151870000Y-124605000D02*
X151870000Y-122005000D01*
X154530000Y-122005000D02*
X151870000Y-122005000D01*
X154530000Y-124605000D02*
X151870000Y-124605000D01*
X154530000Y-124605000D02*
X154530000Y-122005000D01*
X154530000Y-125875000D02*
X154530000Y-127205000D01*
X154530000Y-127205000D02*
X153200000Y-127205000D01*
%TO.C,L2*%
X181840000Y-118099622D02*
X181840000Y-117300378D01*
X182960000Y-118099622D02*
X182960000Y-117300378D01*
D13*
%TO.C,kibuzzard-666316A7*%
G36*
X157443258Y-137949617D02*
G01*
X157466454Y-138005719D01*
X157441100Y-138065058D01*
X157387695Y-138084478D01*
X157271176Y-138084478D01*
X157271176Y-137926961D01*
X157386616Y-137926961D01*
X157443258Y-137949617D01*
G37*
G36*
X157460741Y-136552790D02*
G01*
X157484279Y-136609721D01*
X157458551Y-136669936D01*
X157404357Y-136689643D01*
X157286116Y-136689643D01*
X157286116Y-136529798D01*
X157403262Y-136529798D01*
X157460741Y-136552790D01*
G37*
G36*
X157478748Y-135155730D02*
G01*
X157502640Y-135213515D01*
X157476525Y-135274633D01*
X157421518Y-135294636D01*
X157301503Y-135294636D01*
X157301503Y-135132393D01*
X157420407Y-135132393D01*
X157478748Y-135155730D01*
G37*
G36*
X159089297Y-136824854D02*
G01*
X159106814Y-136863721D01*
X159090391Y-136908061D01*
X159037840Y-136921747D01*
X158986383Y-136907514D01*
X158971055Y-136861531D01*
X158990762Y-136824307D01*
X159044409Y-136810074D01*
X159089297Y-136824854D01*
G37*
G36*
X158392406Y-137932220D02*
G01*
X158449317Y-137973892D01*
X158488157Y-138035523D01*
X158501103Y-138109292D01*
X158488291Y-138183600D01*
X158449856Y-138244692D01*
X158392810Y-138285554D01*
X158324166Y-138299175D01*
X158257680Y-138285150D01*
X158200634Y-138243073D01*
X158161390Y-138181577D01*
X158148308Y-138109292D01*
X158161255Y-138035523D01*
X158200095Y-137973892D01*
X158257275Y-137932220D01*
X158325245Y-137918329D01*
X158392406Y-137932220D01*
G37*
G36*
X158423915Y-136535136D02*
G01*
X158481667Y-136577423D01*
X158521081Y-136639965D01*
X158534219Y-136714824D01*
X158521218Y-136790231D01*
X158482215Y-136852225D01*
X158424326Y-136893692D01*
X158354667Y-136907514D01*
X158287199Y-136893281D01*
X158229310Y-136850583D01*
X158189485Y-136788178D01*
X158176210Y-136714824D01*
X158189348Y-136639965D01*
X158228762Y-136577423D01*
X158286788Y-136535136D01*
X158355762Y-136521040D01*
X158423915Y-136535136D01*
G37*
G36*
X158456370Y-135137811D02*
G01*
X158514988Y-135180733D01*
X158554993Y-135244213D01*
X158568328Y-135320195D01*
X158555132Y-135396732D01*
X158515544Y-135459656D01*
X158456787Y-135501745D01*
X158386083Y-135515775D01*
X158317603Y-135501328D01*
X158258845Y-135457990D01*
X158218424Y-135394648D01*
X158204950Y-135320195D01*
X158218285Y-135244213D01*
X158258290Y-135180733D01*
X158317186Y-135137811D01*
X158387195Y-135123503D01*
X158456370Y-135137811D01*
G37*
G36*
X159551044Y-140115811D02*
G01*
X159319533Y-140115811D01*
X158921868Y-140115811D01*
X158329561Y-140115811D01*
X157898957Y-140115811D01*
X157322596Y-140115811D01*
X156649465Y-140115811D01*
X156280467Y-140115811D01*
X156048956Y-140115811D01*
X156048956Y-139191497D01*
X156291101Y-139191497D01*
X156301735Y-139265403D01*
X156553760Y-139819433D01*
X156589915Y-139859311D01*
X156649465Y-139872603D01*
X156704230Y-139858247D01*
X156740918Y-139819433D01*
X156795580Y-139699269D01*
X157050366Y-139699269D01*
X157076951Y-139768390D01*
X157083331Y-139775834D01*
X157095029Y-139790721D01*
X157113638Y-139809331D01*
X157139160Y-139830067D01*
X157172125Y-139850272D01*
X157213066Y-139867818D01*
X157263046Y-139879515D01*
X157322596Y-139884300D01*
X157393312Y-139876325D01*
X157466154Y-139849208D01*
X157531553Y-139801887D01*
X157577811Y-139730108D01*
X157586902Y-139699269D01*
X157626727Y-139699269D01*
X157653312Y-139768390D01*
X157659693Y-139775834D01*
X157671390Y-139790721D01*
X157690000Y-139809331D01*
X157715521Y-139830067D01*
X157748486Y-139850272D01*
X157789427Y-139867818D01*
X157839407Y-139879515D01*
X157898957Y-139884300D01*
X157969673Y-139876325D01*
X158042516Y-139849208D01*
X158107915Y-139801887D01*
X158154172Y-139730108D01*
X158167731Y-139684116D01*
X158172250Y-139633339D01*
X158162281Y-139553850D01*
X158132373Y-139496160D01*
X158085716Y-139455751D01*
X158025501Y-139428103D01*
X157957444Y-139411620D01*
X157892577Y-139398328D01*
X157850573Y-139379718D01*
X157831963Y-139345158D01*
X157848977Y-139312724D01*
X157888323Y-139299432D01*
X157923415Y-139303154D01*
X157944151Y-139311129D01*
X157959039Y-139323358D01*
X157971268Y-139333461D01*
X158042516Y-139353134D01*
X158105256Y-139301559D01*
X158130778Y-139236160D01*
X158092495Y-139181395D01*
X158037317Y-139145948D01*
X157969614Y-139124680D01*
X157889387Y-139117591D01*
X157821211Y-139124739D01*
X157806302Y-139130077D01*
X157761306Y-139146185D01*
X157709672Y-139181927D01*
X157670090Y-139228539D01*
X157646341Y-139282595D01*
X157638425Y-139344095D01*
X157646932Y-139413215D01*
X157672453Y-139470639D01*
X157714989Y-139516365D01*
X157774540Y-139550394D01*
X157814816Y-139564882D01*
X157865460Y-139578574D01*
X157948937Y-139603564D01*
X157976585Y-139636529D01*
X157957444Y-139685977D01*
X157894703Y-139701396D01*
X157852699Y-139691294D01*
X157809632Y-139652480D01*
X157761661Y-139613725D01*
X157715580Y-139606636D01*
X157671390Y-139631212D01*
X157626727Y-139699269D01*
X157586902Y-139699269D01*
X157591369Y-139684116D01*
X157595889Y-139633339D01*
X157585920Y-139553850D01*
X157556012Y-139496160D01*
X157509355Y-139455751D01*
X157449140Y-139428103D01*
X157381083Y-139411620D01*
X157316215Y-139398328D01*
X157274211Y-139379718D01*
X157255602Y-139345158D01*
X157272616Y-139312724D01*
X157311962Y-139299432D01*
X157347054Y-139303154D01*
X157367790Y-139311129D01*
X157382678Y-139323358D01*
X157394907Y-139333461D01*
X157466154Y-139353134D01*
X157528895Y-139301559D01*
X157554416Y-139236160D01*
X157516134Y-139181395D01*
X157460956Y-139145948D01*
X157393253Y-139124680D01*
X157313025Y-139117591D01*
X157244850Y-139124739D01*
X157184945Y-139146185D01*
X157171919Y-139155202D01*
X157133311Y-139181927D01*
X157093729Y-139228539D01*
X157069980Y-139282595D01*
X157062064Y-139344095D01*
X157070571Y-139413215D01*
X157096092Y-139470639D01*
X157138628Y-139516365D01*
X157198178Y-139550394D01*
X157238455Y-139564882D01*
X157289099Y-139578574D01*
X157372575Y-139603564D01*
X157400224Y-139636529D01*
X157381083Y-139685977D01*
X157318342Y-139701396D01*
X157276338Y-139691294D01*
X157233270Y-139652480D01*
X157185299Y-139613725D01*
X157139219Y-139606636D01*
X157095029Y-139631212D01*
X157050366Y-139699269D01*
X156795580Y-139699269D01*
X156992943Y-139265403D01*
X157005172Y-139192029D01*
X156944026Y-139140986D01*
X156865335Y-139125567D01*
X156815355Y-139185648D01*
X156677790Y-139524338D01*
X156647339Y-139599310D01*
X156479322Y-139185648D01*
X156430406Y-139125035D01*
X156350651Y-139140986D01*
X156291101Y-139191497D01*
X156048956Y-139191497D01*
X156048956Y-138096345D01*
X156298023Y-138096345D01*
X156305036Y-138175441D01*
X156326074Y-138248738D01*
X156361138Y-138316235D01*
X156410227Y-138377934D01*
X156469026Y-138429383D01*
X156533220Y-138466133D01*
X156602808Y-138488182D01*
X156677790Y-138495532D01*
X156760504Y-138490857D01*
X156831711Y-138476831D01*
X156891409Y-138453456D01*
X156961536Y-138398972D01*
X156967615Y-138384407D01*
X157073740Y-138384407D01*
X157075359Y-138421629D01*
X157085608Y-138451298D01*
X157115817Y-138476112D01*
X157171919Y-138483664D01*
X157229099Y-138476112D01*
X157259308Y-138451837D01*
X157269558Y-138422708D01*
X157271176Y-138385486D01*
X157708124Y-138385486D01*
X157709742Y-138422708D01*
X157719991Y-138452377D01*
X157750200Y-138477191D01*
X157806302Y-138484743D01*
X157863483Y-138477191D01*
X157893692Y-138452916D01*
X157903941Y-138423786D01*
X157905559Y-138386565D01*
X157905559Y-138113607D01*
X157950873Y-138113607D01*
X157957818Y-138190006D01*
X157978654Y-138260605D01*
X158013380Y-138325406D01*
X158061998Y-138384407D01*
X158120392Y-138433496D01*
X158184451Y-138468560D01*
X158254174Y-138489598D01*
X158329561Y-138496611D01*
X158402891Y-138489497D01*
X158470760Y-138468155D01*
X158533166Y-138432586D01*
X158590111Y-138382789D01*
X158637548Y-138323012D01*
X158671432Y-138257503D01*
X158691762Y-138186263D01*
X158698539Y-138109292D01*
X158691661Y-138030972D01*
X158671027Y-137958922D01*
X158636638Y-137893144D01*
X158588493Y-137833637D01*
X158582785Y-137828782D01*
X158719038Y-137828782D01*
X158726590Y-137884884D01*
X158750865Y-137915093D01*
X158780534Y-137925882D01*
X158817216Y-137928039D01*
X159032993Y-137928039D01*
X158991456Y-137994930D01*
X158955313Y-138047526D01*
X158919170Y-138101740D01*
X158884511Y-138163641D01*
X158852819Y-138239297D01*
X158830163Y-138320348D01*
X158822610Y-138398433D01*
X158824768Y-138434036D01*
X158835557Y-138459929D01*
X158865226Y-138479349D01*
X158921868Y-138484743D01*
X158977430Y-138478809D01*
X159007639Y-138459929D01*
X159018967Y-138434575D01*
X159021125Y-138400590D01*
X159030970Y-138337476D01*
X159060504Y-138262493D01*
X159101637Y-138184949D01*
X159146275Y-138114147D01*
X159190914Y-138043615D01*
X159232047Y-137966879D01*
X159261581Y-137892706D01*
X159271426Y-137829861D01*
X159269808Y-137792640D01*
X159259558Y-137762970D01*
X159229349Y-137738156D01*
X159173248Y-137730604D01*
X159042219Y-137730604D01*
X158811822Y-137730604D01*
X158777297Y-137732762D01*
X158749246Y-137743550D01*
X158726590Y-137773220D01*
X158719038Y-137828782D01*
X158582785Y-137828782D01*
X158530503Y-137784312D01*
X158466579Y-137749080D01*
X158396721Y-137727940D01*
X158360141Y-137724539D01*
X158320930Y-137720894D01*
X158246689Y-137728041D01*
X158178247Y-137749484D01*
X158115605Y-137785222D01*
X158058761Y-137835255D01*
X158011560Y-137895538D01*
X157977845Y-137962024D01*
X157957616Y-138034714D01*
X157950873Y-138113607D01*
X157905559Y-138113607D01*
X157905559Y-137828782D01*
X157903941Y-137791561D01*
X157893692Y-137761891D01*
X157863483Y-137737077D01*
X157829150Y-137732455D01*
X157807381Y-137729525D01*
X157750200Y-137737077D01*
X157719991Y-137761891D01*
X157709742Y-137791561D01*
X157708124Y-137827703D01*
X157708124Y-138385486D01*
X157271176Y-138385486D01*
X157271176Y-138281913D01*
X157386616Y-138281913D01*
X157430716Y-138277598D01*
X157476703Y-138264651D01*
X157522556Y-138243613D01*
X157566251Y-138215022D01*
X157604956Y-138177127D01*
X157635839Y-138128172D01*
X157656068Y-138070587D01*
X157662811Y-138006798D01*
X157655933Y-137942739D01*
X157635299Y-137884345D01*
X157604146Y-137834581D01*
X157565711Y-137796416D01*
X157522556Y-137767825D01*
X157477243Y-137746787D01*
X157431660Y-137733840D01*
X157387695Y-137729525D01*
X157185391Y-137729525D01*
X157172998Y-137729525D01*
X157115817Y-137737077D01*
X157085608Y-137761891D01*
X157075359Y-137791561D01*
X157073740Y-137827703D01*
X157073740Y-138384407D01*
X156967615Y-138384407D01*
X156987430Y-138336936D01*
X156987430Y-138115765D01*
X156986890Y-138088793D01*
X156982035Y-138065058D01*
X156969089Y-138043480D01*
X156943735Y-138029454D01*
X156902198Y-138021902D01*
X156713393Y-138021902D01*
X156684263Y-138023521D01*
X156660528Y-138032152D01*
X156640569Y-138057505D01*
X156634635Y-138104976D01*
X156640029Y-138153526D01*
X156658370Y-138178880D01*
X156681027Y-138187511D01*
X156710157Y-138189129D01*
X156789994Y-138189129D01*
X156789994Y-138281913D01*
X156744141Y-138292432D01*
X156682106Y-138295939D01*
X156612248Y-138281104D01*
X156551561Y-138236600D01*
X156509484Y-138172407D01*
X156495459Y-138098503D01*
X156508945Y-138026892D01*
X156549403Y-137967419D01*
X156609011Y-137927365D01*
X156679948Y-137914014D01*
X156746569Y-137921566D01*
X156801862Y-137944223D01*
X156860121Y-137969037D01*
X156900040Y-137954742D01*
X156939959Y-137911856D01*
X156964773Y-137851439D01*
X156954524Y-137820151D01*
X156934564Y-137797495D01*
X156904356Y-137775917D01*
X156858098Y-137750968D01*
X156801322Y-137732222D01*
X156741309Y-137720489D01*
X156685342Y-137716578D01*
X156683960Y-137716704D01*
X156608371Y-137723557D01*
X156537131Y-137744494D01*
X156471622Y-137779390D01*
X156411845Y-137828243D01*
X156362048Y-137886873D01*
X156326479Y-137951101D01*
X156305137Y-138020925D01*
X156298023Y-138096345D01*
X156048956Y-138096345D01*
X156048956Y-136701686D01*
X156298581Y-136701686D01*
X156305697Y-136781951D01*
X156327047Y-136856331D01*
X156362628Y-136924826D01*
X156412443Y-136987436D01*
X156472111Y-137039646D01*
X156537253Y-137076939D01*
X156607870Y-137099314D01*
X156683960Y-137106773D01*
X156767897Y-137102028D01*
X156840156Y-137087796D01*
X156900736Y-137064074D01*
X156971900Y-137008786D01*
X156978069Y-136994005D01*
X157085762Y-136994005D01*
X157087404Y-137031777D01*
X157097805Y-137061885D01*
X157128460Y-137087066D01*
X157185391Y-137094729D01*
X157243417Y-137087066D01*
X157274072Y-137062432D01*
X157284473Y-137032872D01*
X157286116Y-136995100D01*
X157729521Y-136995100D01*
X157731163Y-137032872D01*
X157741564Y-137062979D01*
X157772219Y-137088161D01*
X157829150Y-137095824D01*
X157887176Y-137088161D01*
X157917831Y-137063527D01*
X157928232Y-137033967D01*
X157929874Y-136996195D01*
X157929874Y-136719204D01*
X157975857Y-136719204D01*
X157982905Y-136796731D01*
X158004049Y-136868374D01*
X158039289Y-136934132D01*
X158088624Y-136994005D01*
X158147882Y-137043820D01*
X158212887Y-137079402D01*
X158283640Y-137100751D01*
X158360141Y-137107867D01*
X158434555Y-137100648D01*
X158503427Y-137078991D01*
X158566756Y-137042896D01*
X158624542Y-136992363D01*
X158672680Y-136931703D01*
X158707065Y-136865226D01*
X158727178Y-136794747D01*
X158765228Y-136794747D01*
X158773439Y-136885557D01*
X158798072Y-136962377D01*
X158839128Y-137025208D01*
X158894539Y-137071738D01*
X158962236Y-137099656D01*
X159042219Y-137108962D01*
X159112105Y-137100873D01*
X159174328Y-137076604D01*
X159228887Y-137036156D01*
X159271160Y-136984030D01*
X159296523Y-136924727D01*
X159304978Y-136858247D01*
X159296523Y-136800160D01*
X159271160Y-136747061D01*
X159228887Y-136698949D01*
X159175180Y-136660934D01*
X159115512Y-136638126D01*
X159049883Y-136630523D01*
X158991857Y-136641471D01*
X159017996Y-136601510D01*
X159056999Y-136564833D01*
X159111330Y-136538557D01*
X159183452Y-136529798D01*
X159221223Y-136528156D01*
X159251331Y-136517755D01*
X159276512Y-136487100D01*
X159284176Y-136430169D01*
X159277060Y-136372691D01*
X159253521Y-136342583D01*
X159224508Y-136331635D01*
X159187831Y-136329445D01*
X159098124Y-136337519D01*
X159049500Y-136352094D01*
X159017312Y-136361742D01*
X158945395Y-136402114D01*
X158882374Y-136458635D01*
X158840201Y-136513420D01*
X158807400Y-136574424D01*
X158783971Y-136641646D01*
X158769913Y-136715087D01*
X158765228Y-136794747D01*
X158727178Y-136794747D01*
X158727696Y-136792933D01*
X158734572Y-136714824D01*
X158727593Y-136635347D01*
X158706654Y-136562233D01*
X158671757Y-136495482D01*
X158622900Y-136435096D01*
X158564053Y-136385042D01*
X158499185Y-136349289D01*
X158428294Y-136327837D01*
X158391640Y-136324429D01*
X158351383Y-136320686D01*
X158276045Y-136327940D01*
X158206592Y-136349699D01*
X158143023Y-136385965D01*
X158085340Y-136436738D01*
X158037441Y-136497912D01*
X158003228Y-136565380D01*
X157982700Y-136639144D01*
X157975857Y-136719204D01*
X157929874Y-136719204D01*
X157929874Y-136430169D01*
X157928232Y-136392398D01*
X157917831Y-136362290D01*
X157887176Y-136337109D01*
X157852683Y-136332466D01*
X157830245Y-136329445D01*
X157772219Y-136337109D01*
X157741564Y-136362290D01*
X157731163Y-136392398D01*
X157729521Y-136429074D01*
X157729521Y-136995100D01*
X157286116Y-136995100D01*
X157286116Y-136889997D01*
X157403262Y-136889997D01*
X157448013Y-136885617D01*
X157494680Y-136872479D01*
X157541210Y-136851130D01*
X157585551Y-136822117D01*
X157624828Y-136783662D01*
X157656167Y-136733984D01*
X157676695Y-136675547D01*
X157683538Y-136610816D01*
X157676558Y-136545810D01*
X157655620Y-136486553D01*
X157624007Y-136436054D01*
X157585003Y-136397324D01*
X157541210Y-136368311D01*
X157495228Y-136346962D01*
X157448971Y-136333824D01*
X157404357Y-136329445D01*
X157199268Y-136329445D01*
X157186486Y-136329445D01*
X157128460Y-136337109D01*
X157097805Y-136362290D01*
X157087404Y-136392398D01*
X157085762Y-136429074D01*
X157085762Y-136994005D01*
X156978069Y-136994005D01*
X156998176Y-136945833D01*
X156998176Y-136721393D01*
X156997628Y-136694023D01*
X156992702Y-136669936D01*
X156979564Y-136648040D01*
X156953835Y-136633807D01*
X156911685Y-136626143D01*
X156720090Y-136626143D01*
X156690529Y-136627786D01*
X156666443Y-136636544D01*
X156646189Y-136662273D01*
X156640167Y-136710445D01*
X156645641Y-136759712D01*
X156664253Y-136785441D01*
X156687245Y-136794199D01*
X156716805Y-136795842D01*
X156797822Y-136795842D01*
X156797822Y-136889997D01*
X156751292Y-136900671D01*
X156688340Y-136904229D01*
X156617450Y-136889176D01*
X156555866Y-136844014D01*
X156513167Y-136778872D01*
X156498935Y-136703876D01*
X156512620Y-136631207D01*
X156553676Y-136570854D01*
X156614165Y-136530209D01*
X156686150Y-136516661D01*
X156753756Y-136524324D01*
X156809866Y-136547316D01*
X156868986Y-136572497D01*
X156909495Y-136557990D01*
X156950003Y-136514471D01*
X156975185Y-136453161D01*
X156964784Y-136421411D01*
X156944529Y-136398419D01*
X156913874Y-136376523D01*
X156866933Y-136351205D01*
X156809318Y-136332182D01*
X156748418Y-136320276D01*
X156691624Y-136316307D01*
X156690316Y-136316426D01*
X156613515Y-136323389D01*
X156541222Y-136344636D01*
X156474746Y-136380047D01*
X156414085Y-136429622D01*
X156363552Y-136489119D01*
X156327457Y-136554295D01*
X156305800Y-136625151D01*
X156298581Y-136701686D01*
X156048956Y-136701686D01*
X156048956Y-135306860D01*
X156299156Y-135306860D01*
X156306379Y-135388328D01*
X156328048Y-135463824D01*
X156364164Y-135533346D01*
X156414726Y-135596896D01*
X156475289Y-135649889D01*
X156541408Y-135687741D01*
X156613084Y-135710452D01*
X156690316Y-135718022D01*
X156775512Y-135713207D01*
X156848854Y-135698760D01*
X156910343Y-135674683D01*
X156951182Y-135648986D01*
X156982575Y-135618565D01*
X156988837Y-135603563D01*
X157098145Y-135603563D01*
X157099811Y-135641901D01*
X157110368Y-135672461D01*
X157141483Y-135698020D01*
X157199268Y-135705798D01*
X157258165Y-135698020D01*
X157289280Y-135673016D01*
X157299836Y-135643013D01*
X157301503Y-135604675D01*
X157751560Y-135604675D01*
X157753226Y-135643013D01*
X157763783Y-135673572D01*
X157794898Y-135699131D01*
X157852683Y-135706910D01*
X157911580Y-135699131D01*
X157942695Y-135674128D01*
X157953251Y-135644124D01*
X157954918Y-135605786D01*
X157954918Y-135324640D01*
X158001591Y-135324640D01*
X158008745Y-135403330D01*
X158030206Y-135476047D01*
X158065974Y-135542792D01*
X158116050Y-135603563D01*
X158176196Y-135654125D01*
X158242176Y-135690241D01*
X158313991Y-135711910D01*
X158391640Y-135719133D01*
X158467170Y-135711806D01*
X158537074Y-135689824D01*
X158601353Y-135653188D01*
X158660006Y-135601896D01*
X158680730Y-135575782D01*
X158792801Y-135575782D01*
X158835028Y-135643568D01*
X158858365Y-135663571D01*
X158933930Y-135701909D01*
X158989492Y-135716494D01*
X159049500Y-135721356D01*
X159121731Y-135712528D01*
X159185813Y-135686043D01*
X159241746Y-135641901D01*
X159284961Y-135584796D01*
X159310890Y-135519417D01*
X159319533Y-135445766D01*
X159310643Y-135379646D01*
X159283973Y-135319083D01*
X159239523Y-135264076D01*
X159183343Y-135220553D01*
X159121484Y-135194438D01*
X159053945Y-135185733D01*
X159048388Y-135185733D01*
X159029497Y-135187956D01*
X159037276Y-135129060D01*
X159208408Y-135129060D01*
X159243968Y-135127393D01*
X159272861Y-135117391D01*
X159296753Y-135087943D01*
X159303976Y-135032381D01*
X159296197Y-134971818D01*
X159271194Y-134940703D01*
X159241190Y-134930146D01*
X159202852Y-134927923D01*
X158948376Y-134926812D01*
X158895591Y-134936813D01*
X158864476Y-134966261D01*
X158851697Y-134996821D01*
X158846141Y-135027936D01*
X158805025Y-135343531D01*
X158818915Y-135375757D01*
X158868366Y-135409095D01*
X158940597Y-135431320D01*
X159002827Y-135404650D01*
X159046166Y-135389092D01*
X159095061Y-135407428D01*
X159115063Y-135453545D01*
X159096172Y-135500217D01*
X159042832Y-135516886D01*
X158978380Y-135499106D01*
X158902815Y-135462435D01*
X158833917Y-135500217D01*
X158792801Y-135575782D01*
X158680730Y-135575782D01*
X158708867Y-135540326D01*
X158743767Y-135472853D01*
X158764707Y-135399475D01*
X158771687Y-135320195D01*
X158764603Y-135239525D01*
X158743350Y-135165314D01*
X158707929Y-135097563D01*
X158658340Y-135036270D01*
X158598610Y-134985465D01*
X158532768Y-134949176D01*
X158460815Y-134927402D01*
X158382750Y-134920145D01*
X158306282Y-134927507D01*
X158235787Y-134949593D01*
X158171265Y-134986403D01*
X158112716Y-135037937D01*
X158064099Y-135100028D01*
X158029372Y-135168509D01*
X158008536Y-135243379D01*
X158001591Y-135324640D01*
X157954918Y-135324640D01*
X157954918Y-135031270D01*
X157953251Y-134992931D01*
X157942695Y-134962372D01*
X157911580Y-134936813D01*
X157853795Y-134929035D01*
X157794898Y-134936813D01*
X157763783Y-134962372D01*
X157753226Y-134992931D01*
X157751560Y-135030158D01*
X157751560Y-135604675D01*
X157301503Y-135604675D01*
X157301503Y-135497995D01*
X157420407Y-135497995D01*
X157465829Y-135493550D01*
X157513196Y-135480215D01*
X157560425Y-135458545D01*
X157605430Y-135429097D01*
X157645296Y-135390064D01*
X157677106Y-135339641D01*
X157697942Y-135280329D01*
X157704887Y-135214626D01*
X157697803Y-135148645D01*
X157676550Y-135088499D01*
X157644463Y-135037243D01*
X157604875Y-134997932D01*
X157560425Y-134968484D01*
X157513752Y-134946815D01*
X157466802Y-134933480D01*
X157421518Y-134929035D01*
X157200380Y-134929035D01*
X157141483Y-134936813D01*
X157110368Y-134962372D01*
X157099811Y-134992931D01*
X157098145Y-135030158D01*
X157098145Y-135603563D01*
X156988837Y-135603563D01*
X157009245Y-135554668D01*
X157009245Y-135326862D01*
X157008689Y-135299081D01*
X157003688Y-135274633D01*
X156990353Y-135252408D01*
X156964239Y-135237962D01*
X156921456Y-135230183D01*
X156726987Y-135230183D01*
X156696983Y-135231850D01*
X156672536Y-135240740D01*
X156651978Y-135266855D01*
X156645866Y-135315750D01*
X156651422Y-135365756D01*
X156670313Y-135391870D01*
X156693650Y-135400760D01*
X156723653Y-135402427D01*
X156805886Y-135402427D01*
X156805886Y-135497995D01*
X156758658Y-135508829D01*
X156694761Y-135512441D01*
X156622807Y-135497161D01*
X156560300Y-135451322D01*
X156516961Y-135385203D01*
X156502515Y-135309082D01*
X156516405Y-135235323D01*
X156558077Y-135174065D01*
X156619474Y-135132810D01*
X156692538Y-135119058D01*
X156761158Y-135126837D01*
X156818110Y-135150173D01*
X156878117Y-135175732D01*
X156919233Y-135161008D01*
X156960350Y-135116836D01*
X156985908Y-135054606D01*
X156975351Y-135022380D01*
X156954793Y-134999043D01*
X156923678Y-134976818D01*
X156876034Y-134951121D01*
X156817554Y-134931813D01*
X156755741Y-134919728D01*
X156698095Y-134915700D01*
X156618814Y-134922888D01*
X156545437Y-134944453D01*
X156477963Y-134980395D01*
X156416393Y-135030714D01*
X156365102Y-135091103D01*
X156328465Y-135157258D01*
X156306483Y-135229176D01*
X156299156Y-135306860D01*
X156048956Y-135306860D01*
X156048956Y-134684189D01*
X156280467Y-134684189D01*
X159319533Y-134684189D01*
X159551044Y-134684189D01*
X159551044Y-140115811D01*
G37*
D12*
%TO.C,C10*%
X123440000Y-123440000D02*
X124640000Y-123440000D01*
X123440000Y-126895563D02*
X123440000Y-123440000D01*
X123890000Y-128450000D02*
X124390000Y-128450000D01*
X124140000Y-128700000D02*
X124140000Y-128200000D01*
X124504437Y-127960000D02*
X123440000Y-126895563D01*
X124504437Y-127960000D02*
X124640000Y-127960000D01*
X126895563Y-127960000D02*
X126760000Y-127960000D01*
X126895563Y-127960000D02*
X127960000Y-126895563D01*
X127960000Y-123440000D02*
X126760000Y-123440000D01*
X127960000Y-126895563D02*
X127960000Y-123440000D01*
%TO.C,L3*%
X139338748Y-122390000D02*
X139861252Y-122390000D01*
X139338748Y-124610000D02*
X139861252Y-124610000D01*
%TO.C,AE1*%
X184300000Y-115300000D02*
X184500000Y-115100000D01*
X184300000Y-115900000D02*
X183800000Y-115900000D01*
X184300000Y-115900000D02*
X184300000Y-115300000D01*
X184300000Y-117300000D02*
X183800000Y-117300000D01*
X184300000Y-118100000D02*
X184300000Y-117300000D01*
X184500000Y-118100000D02*
X184300000Y-118100000D01*
X187100000Y-115100000D02*
X187300000Y-115100000D01*
X187300000Y-115100000D02*
X187300000Y-115900000D01*
X187300000Y-117300000D02*
X187300000Y-118100000D01*
X187300000Y-118100000D02*
X187100000Y-118100000D01*
%TO.C,J2*%
X143470000Y-130370000D02*
X144800000Y-130370000D01*
X143470000Y-131700000D02*
X143470000Y-130370000D01*
X143470000Y-132970000D02*
X143470000Y-133030000D01*
X143470000Y-132970000D02*
X146130000Y-132970000D01*
X143470000Y-133030000D02*
X146130000Y-133030000D01*
X146130000Y-132970000D02*
X146130000Y-133030000D01*
%TO.C,C9*%
X166038748Y-119465000D02*
X166561252Y-119465000D01*
X166038748Y-120935000D02*
X166561252Y-120935000D01*
D13*
%TO.C,kibuzzard-6663166B*%
G36*
X181656536Y-122392831D02*
G01*
X181687254Y-122467126D01*
X181654392Y-122545707D01*
X181585812Y-122571425D01*
X181428650Y-122571425D01*
X181428650Y-122362827D01*
X181582955Y-122362827D01*
X181656536Y-122392831D01*
G37*
G36*
X186166861Y-123416293D02*
G01*
X185869205Y-123416293D01*
X185502016Y-123416293D01*
X184727634Y-123416293D01*
X183823235Y-123416293D01*
X182798821Y-123416293D01*
X181794410Y-123416293D01*
X180615691Y-123416293D01*
X179338389Y-123416293D01*
X178182530Y-123416293D01*
X177280989Y-123416293D01*
X176226571Y-123416293D01*
X175730795Y-123416293D01*
X175433139Y-123416293D01*
X175433139Y-122184948D01*
X175745082Y-122184948D01*
X175759370Y-122284246D01*
X176097984Y-123028625D01*
X176146561Y-123082203D01*
X176226571Y-123100063D01*
X176300152Y-123080774D01*
X176349444Y-123028625D01*
X176546372Y-122595714D01*
X176763781Y-122595714D01*
X176772890Y-122699655D01*
X176800214Y-122794310D01*
X176841470Y-122876285D01*
X176892369Y-122942186D01*
X176951840Y-122995764D01*
X177018813Y-123040769D01*
X177088465Y-123075595D01*
X177155973Y-123098634D01*
X177220445Y-123111493D01*
X177280989Y-123115779D01*
X177373381Y-123106889D01*
X177461964Y-123080219D01*
X177546736Y-123035769D01*
X177605315Y-122992192D01*
X177625317Y-122940043D01*
X177593885Y-122857175D01*
X177542450Y-122796096D01*
X177493872Y-122775736D01*
X177422435Y-122804311D01*
X177350640Y-122839673D01*
X177275274Y-122851460D01*
X177166689Y-122828600D01*
X177115075Y-122796632D01*
X177068819Y-122746447D01*
X177036137Y-122680903D01*
X177025242Y-122602858D01*
X177025956Y-122595714D01*
X177665322Y-122595714D01*
X177674431Y-122699655D01*
X177701756Y-122794310D01*
X177743011Y-122876285D01*
X177793910Y-122942186D01*
X177853382Y-122995764D01*
X177920354Y-123040769D01*
X177990006Y-123075595D01*
X178057514Y-123098634D01*
X178121987Y-123111493D01*
X178182530Y-123115779D01*
X178274922Y-123106889D01*
X178363505Y-123080219D01*
X178448277Y-123035769D01*
X178506856Y-122992192D01*
X178526859Y-122940043D01*
X178495426Y-122857175D01*
X178443991Y-122796096D01*
X178395414Y-122775736D01*
X178323976Y-122804311D01*
X178252182Y-122839673D01*
X178176815Y-122851460D01*
X178068230Y-122828600D01*
X178016616Y-122796632D01*
X177970361Y-122746447D01*
X177937678Y-122680903D01*
X177926784Y-122602858D01*
X177932856Y-122542136D01*
X177951072Y-122488557D01*
X178014652Y-122410691D01*
X178095376Y-122368542D01*
X178176815Y-122354255D01*
X178211105Y-122355684D01*
X178239680Y-122360684D01*
X178262540Y-122366399D01*
X178281828Y-122373543D01*
X178295401Y-122381401D01*
X178307546Y-122389259D01*
X178316832Y-122395689D01*
X178393985Y-122428550D01*
X178443277Y-122409262D01*
X178496855Y-122351397D01*
X178528287Y-122271387D01*
X178514714Y-122228525D01*
X178497092Y-122208522D01*
X178904049Y-122208522D01*
X178912621Y-122272816D01*
X178939767Y-122306392D01*
X178971914Y-122317822D01*
X179012634Y-122319965D01*
X179211230Y-122319965D01*
X179211230Y-122972904D01*
X179213373Y-123020767D01*
X179226232Y-123059343D01*
X179264808Y-123091490D01*
X179338389Y-123101491D01*
X179412684Y-123091490D01*
X179452689Y-123060058D01*
X179466262Y-123022196D01*
X179468373Y-122975047D01*
X179809162Y-122975047D01*
X179865597Y-123065773D01*
X179962752Y-123116493D01*
X180049906Y-123057200D01*
X180289936Y-122794310D01*
X180528537Y-123057200D01*
X180615691Y-123116493D01*
X180712846Y-123065773D01*
X180769282Y-122975047D01*
X180765843Y-122968618D01*
X181167189Y-122968618D01*
X181169332Y-123017909D01*
X181182905Y-123057200D01*
X181222910Y-123090061D01*
X181297205Y-123100063D01*
X181372929Y-123090061D01*
X181412934Y-123057914D01*
X181426507Y-123019338D01*
X181428650Y-122970046D01*
X181428650Y-122831458D01*
X181561524Y-122831458D01*
X181714400Y-123038626D01*
X181794410Y-123105063D01*
X181895851Y-123065773D01*
X181964431Y-122981476D01*
X181961915Y-122975047D01*
X181992292Y-122975047D01*
X182048727Y-123065773D01*
X182145882Y-123116493D01*
X182233036Y-123057200D01*
X182473066Y-122794310D01*
X182711667Y-123057200D01*
X182798821Y-123116493D01*
X182895976Y-123065773D01*
X182952412Y-122975047D01*
X182903120Y-122882893D01*
X182647374Y-122601429D01*
X182904549Y-122319965D01*
X182953126Y-122228525D01*
X182926980Y-122184948D01*
X183341746Y-122184948D01*
X183356034Y-122284246D01*
X183694647Y-123028625D01*
X183743225Y-123082203D01*
X183823235Y-123100063D01*
X183896816Y-123080774D01*
X183946107Y-123028625D01*
X184019549Y-122867176D01*
X184361874Y-122867176D01*
X184397592Y-122960045D01*
X184406165Y-122970046D01*
X184421881Y-122990049D01*
X184446884Y-123015052D01*
X184481174Y-123042913D01*
X184525466Y-123070059D01*
X184580472Y-123093633D01*
X184647624Y-123109349D01*
X184727634Y-123115779D01*
X184822646Y-123105063D01*
X184920515Y-123068630D01*
X185008383Y-123005051D01*
X185070534Y-122908610D01*
X185082748Y-122867176D01*
X185136256Y-122867176D01*
X185171975Y-122960045D01*
X185180548Y-122970046D01*
X185196264Y-122990049D01*
X185221267Y-123015052D01*
X185255557Y-123042913D01*
X185299848Y-123070059D01*
X185354855Y-123093633D01*
X185422006Y-123109349D01*
X185502016Y-123115779D01*
X185597028Y-123105063D01*
X185694897Y-123068630D01*
X185782766Y-123005051D01*
X185844916Y-122908610D01*
X185863133Y-122846817D01*
X185869205Y-122778594D01*
X185855810Y-122671795D01*
X185815627Y-122594285D01*
X185752940Y-122539992D01*
X185672037Y-122502845D01*
X185580598Y-122480699D01*
X185493444Y-122462840D01*
X185437008Y-122437837D01*
X185412005Y-122391403D01*
X185434865Y-122347826D01*
X185487729Y-122329966D01*
X185534878Y-122334967D01*
X185562738Y-122345682D01*
X185582741Y-122362113D01*
X185599171Y-122375686D01*
X185694897Y-122402118D01*
X185779194Y-122332824D01*
X185813484Y-122244956D01*
X185762049Y-122171375D01*
X185687913Y-122123750D01*
X185596949Y-122095175D01*
X185489158Y-122085650D01*
X185397559Y-122095254D01*
X185317072Y-122124067D01*
X185247699Y-122172089D01*
X185194517Y-122234716D01*
X185162609Y-122307344D01*
X185151973Y-122389974D01*
X185163402Y-122482842D01*
X185197692Y-122559995D01*
X185254843Y-122621431D01*
X185334852Y-122667151D01*
X185388966Y-122686618D01*
X185457011Y-122705013D01*
X185569168Y-122738589D01*
X185606315Y-122782880D01*
X185580598Y-122849317D01*
X185496301Y-122870034D01*
X185439866Y-122856461D01*
X185382001Y-122804311D01*
X185317549Y-122752241D01*
X185255636Y-122742716D01*
X185196264Y-122775736D01*
X185136256Y-122867176D01*
X185082748Y-122867176D01*
X185088750Y-122846817D01*
X185094822Y-122778594D01*
X185081428Y-122671795D01*
X185041244Y-122594285D01*
X184978558Y-122539992D01*
X184897655Y-122502845D01*
X184806215Y-122480699D01*
X184719061Y-122462840D01*
X184662626Y-122437837D01*
X184637622Y-122391403D01*
X184660482Y-122347826D01*
X184713346Y-122329966D01*
X184760495Y-122334967D01*
X184788356Y-122345682D01*
X184808358Y-122362113D01*
X184824789Y-122375686D01*
X184920515Y-122402118D01*
X185004811Y-122332824D01*
X185039101Y-122244956D01*
X184987666Y-122171375D01*
X184913530Y-122123750D01*
X184822566Y-122095175D01*
X184714775Y-122085650D01*
X184623176Y-122095254D01*
X184542690Y-122124067D01*
X184473316Y-122172089D01*
X184420135Y-122234716D01*
X184388226Y-122307344D01*
X184377590Y-122389974D01*
X184389020Y-122482842D01*
X184423310Y-122559995D01*
X184480460Y-122621431D01*
X184560470Y-122667151D01*
X184614584Y-122686618D01*
X184682628Y-122705013D01*
X184794785Y-122738589D01*
X184831932Y-122782880D01*
X184806215Y-122849317D01*
X184721919Y-122870034D01*
X184665483Y-122856461D01*
X184607619Y-122804311D01*
X184543166Y-122752241D01*
X184481254Y-122742716D01*
X184421881Y-122775736D01*
X184361874Y-122867176D01*
X184019549Y-122867176D01*
X184284721Y-122284246D01*
X184301152Y-122185662D01*
X184218999Y-122117082D01*
X184113271Y-122096366D01*
X184046120Y-122177090D01*
X183820377Y-122732874D01*
X183594635Y-122177090D01*
X183528912Y-122095651D01*
X183421756Y-122117082D01*
X183341746Y-122184948D01*
X182926980Y-122184948D01*
X182897405Y-122135656D01*
X182800250Y-122084936D01*
X182713096Y-122144229D01*
X182473066Y-122408548D01*
X182231607Y-122144229D01*
X182144454Y-122084936D01*
X182047299Y-122135656D01*
X181992292Y-122228525D01*
X182040155Y-122319965D01*
X182297330Y-122601429D01*
X182041584Y-122882893D01*
X181992292Y-122975047D01*
X181961915Y-122975047D01*
X181925855Y-122882893D01*
X181822985Y-122745733D01*
X181892835Y-122667945D01*
X181934745Y-122575552D01*
X181948715Y-122468555D01*
X181939785Y-122383723D01*
X181912996Y-122306392D01*
X181872098Y-122240491D01*
X181820842Y-122189949D01*
X181763335Y-122152087D01*
X181703684Y-122124226D01*
X181643855Y-122107081D01*
X181585812Y-122101366D01*
X181298634Y-122101366D01*
X181222910Y-122111367D01*
X181182905Y-122144229D01*
X181169332Y-122183519D01*
X181167189Y-122231382D01*
X181167189Y-122968618D01*
X180765843Y-122968618D01*
X180719990Y-122882893D01*
X180464244Y-122601429D01*
X180721419Y-122319965D01*
X180769996Y-122228525D01*
X180714275Y-122135656D01*
X180617120Y-122084936D01*
X180529966Y-122144229D01*
X180289936Y-122408548D01*
X180048477Y-122144229D01*
X179961324Y-122084936D01*
X179864169Y-122135656D01*
X179809162Y-122228525D01*
X179857025Y-122319965D01*
X180114200Y-122601429D01*
X179858454Y-122882893D01*
X179809162Y-122975047D01*
X179468373Y-122975047D01*
X179468405Y-122974332D01*
X179468405Y-122319965D01*
X179665572Y-122319965D01*
X179706292Y-122317822D01*
X179739153Y-122306392D01*
X179767014Y-122272816D01*
X179775586Y-122209951D01*
X179767014Y-122147086D01*
X179739867Y-122113511D01*
X179707721Y-122102081D01*
X179667001Y-122099937D01*
X179014062Y-122099937D01*
X178973343Y-122102081D01*
X178940482Y-122113511D01*
X178912621Y-122146372D01*
X178904049Y-122208522D01*
X178497092Y-122208522D01*
X178488282Y-122198521D01*
X178449706Y-122171375D01*
X178359536Y-122126925D01*
X178271906Y-122100255D01*
X178186816Y-122091365D01*
X178123773Y-122095651D01*
X178057514Y-122108510D01*
X177988934Y-122131191D01*
X177918926Y-122164946D01*
X177851953Y-122208523D01*
X177792481Y-122260672D01*
X177741761Y-122324787D01*
X177701041Y-122404261D01*
X177674252Y-122495701D01*
X177665322Y-122595714D01*
X177025956Y-122595714D01*
X177031315Y-122542136D01*
X177049531Y-122488557D01*
X177113111Y-122410691D01*
X177193835Y-122368542D01*
X177275274Y-122354255D01*
X177309564Y-122355684D01*
X177338139Y-122360684D01*
X177360999Y-122366399D01*
X177380287Y-122373543D01*
X177393860Y-122381401D01*
X177406004Y-122389259D01*
X177415291Y-122395689D01*
X177492444Y-122428550D01*
X177541736Y-122409262D01*
X177595314Y-122351397D01*
X177626746Y-122271387D01*
X177613173Y-122228525D01*
X177586741Y-122198521D01*
X177548165Y-122171375D01*
X177457995Y-122126925D01*
X177370365Y-122100255D01*
X177285275Y-122091365D01*
X177222231Y-122095651D01*
X177155973Y-122108510D01*
X177087393Y-122131191D01*
X177017384Y-122164946D01*
X176950412Y-122208523D01*
X176890940Y-122260672D01*
X176840219Y-122324787D01*
X176799500Y-122404261D01*
X176772711Y-122495701D01*
X176763781Y-122595714D01*
X176546372Y-122595714D01*
X176688057Y-122284246D01*
X176704488Y-122185662D01*
X176622335Y-122117082D01*
X176516607Y-122096366D01*
X176449456Y-122177090D01*
X176223714Y-122732874D01*
X175997971Y-122177090D01*
X175932249Y-122095651D01*
X175825092Y-122117082D01*
X175745082Y-122184948D01*
X175433139Y-122184948D01*
X175433139Y-121783707D01*
X175730795Y-121783707D01*
X185869205Y-121783707D01*
X186166861Y-121783707D01*
X186166861Y-123416293D01*
G37*
D12*
%TO.C,J6*%
X158805000Y-109205000D02*
X158805000Y-111865000D01*
X161405000Y-109205000D02*
X158805000Y-109205000D01*
X161405000Y-109205000D02*
X161405000Y-111865000D01*
X161405000Y-111865000D02*
X158805000Y-111865000D01*
X162675000Y-109205000D02*
X164005000Y-109205000D01*
X164005000Y-109205000D02*
X164005000Y-110535000D01*
%TO.C,C5*%
X184165000Y-142563748D02*
X184165000Y-143086252D01*
X185635000Y-142563748D02*
X185635000Y-143086252D01*
D13*
%TO.C,kibuzzard-66621C64*%
G36*
X157411960Y-113139312D02*
G01*
X157372547Y-113235970D01*
X157274950Y-113276322D01*
X157171724Y-113233155D01*
X157137941Y-113143066D01*
X157137941Y-112936613D01*
X157411960Y-112936613D01*
X157411960Y-113139312D01*
G37*
G36*
X160577767Y-112556035D02*
G01*
X160577767Y-115043965D01*
X160577767Y-115440840D01*
X156022233Y-115440840D01*
X156022233Y-115043965D01*
X156022233Y-114736509D01*
X156421923Y-114736509D01*
X156488551Y-114864135D01*
X156607731Y-114938270D01*
X156728788Y-114873519D01*
X157098527Y-114537563D01*
X157468266Y-114875396D01*
X157588384Y-114939209D01*
X157710379Y-114866012D01*
X157724885Y-114838225D01*
X158802624Y-114838225D01*
X158870252Y-114967765D01*
X158991219Y-115043013D01*
X159114092Y-114977290D01*
X159489377Y-114636295D01*
X159864662Y-114979195D01*
X159986582Y-115043965D01*
X160110407Y-114969670D01*
X160178034Y-114840130D01*
X160098977Y-114723925D01*
X159746552Y-114403885D01*
X160098977Y-114081940D01*
X160178034Y-113965735D01*
X160110407Y-113836195D01*
X159986582Y-113762852D01*
X159864662Y-113826670D01*
X159489377Y-114169570D01*
X159114092Y-113828575D01*
X158991219Y-113762852D01*
X158870252Y-113838100D01*
X158802624Y-113967640D01*
X158881682Y-114083845D01*
X159232202Y-114403885D01*
X158881682Y-114722020D01*
X158802624Y-114838225D01*
X157724885Y-114838225D01*
X157777007Y-114738386D01*
X157699118Y-114623898D01*
X157351901Y-114308588D01*
X157699118Y-113991401D01*
X157777007Y-113876913D01*
X157710379Y-113749288D01*
X157588384Y-113677029D01*
X157468266Y-113739903D01*
X157098527Y-114077736D01*
X156728788Y-113741780D01*
X156607731Y-113677029D01*
X156488551Y-113751164D01*
X156421923Y-113878790D01*
X156499813Y-113993278D01*
X156845152Y-114308588D01*
X156499813Y-114622022D01*
X156421923Y-114736509D01*
X156022233Y-114736509D01*
X156022233Y-113417086D01*
X156436938Y-113417086D01*
X156488551Y-113550342D01*
X156599285Y-113640430D01*
X156728788Y-113589756D01*
X156908965Y-113454623D01*
X157011149Y-113546380D01*
X157132519Y-113601434D01*
X157273074Y-113619785D01*
X157384511Y-113608055D01*
X157486096Y-113572864D01*
X157572665Y-113519139D01*
X157639059Y-113451807D01*
X157688795Y-113376264D01*
X157725394Y-113297906D01*
X157747916Y-113219313D01*
X157755423Y-113143066D01*
X157755423Y-113135155D01*
X158822627Y-113135155D01*
X158835962Y-113234215D01*
X158877872Y-113287555D01*
X158928354Y-113305652D01*
X158992172Y-113308510D01*
X159864662Y-113308510D01*
X159864662Y-113571400D01*
X159867519Y-113625693D01*
X159882759Y-113669507D01*
X159927527Y-113706655D01*
X160011347Y-113718085D01*
X160095167Y-113706655D01*
X160139934Y-113670460D01*
X160155174Y-113627597D01*
X160158032Y-113573305D01*
X160158032Y-112702720D01*
X160155174Y-112648427D01*
X160139934Y-112604612D01*
X160096119Y-112567465D01*
X160013252Y-112556035D01*
X159927527Y-112567465D01*
X159882759Y-112603660D01*
X159867519Y-112646522D01*
X159864662Y-112700815D01*
X159864662Y-112965610D01*
X158994077Y-112965610D01*
X158930259Y-112968468D01*
X158878824Y-112985612D01*
X158835962Y-113037047D01*
X158822627Y-113135155D01*
X157755423Y-113135155D01*
X157755423Y-112765820D01*
X157742285Y-112666347D01*
X157699118Y-112613795D01*
X157647505Y-112595965D01*
X157584630Y-112593150D01*
X156616177Y-112593150D01*
X156551426Y-112595965D01*
X156499813Y-112613795D01*
X156456645Y-112666347D01*
X156443507Y-112763943D01*
X156456645Y-112863416D01*
X156498874Y-112915967D01*
X156549549Y-112933797D01*
X156614300Y-112936613D01*
X156796354Y-112936613D01*
X156796354Y-113111160D01*
X156524212Y-113311982D01*
X156436938Y-113417086D01*
X156022233Y-113417086D01*
X156022233Y-112556035D01*
X156022233Y-112159160D01*
X160577767Y-112159160D01*
X160577767Y-112556035D01*
G37*
D12*
%TO.C,C1*%
X120965000Y-126711252D02*
X120965000Y-126188748D01*
X122435000Y-126711252D02*
X122435000Y-126188748D01*
%TO.C,U2*%
X164393000Y-127648000D02*
X182427000Y-127648000D01*
X164393000Y-129553000D02*
X164393000Y-127648000D01*
X164393000Y-143777000D02*
X164393000Y-145682000D01*
X164393000Y-145682000D02*
X182427000Y-145682000D01*
X182427000Y-127648000D02*
X182427000Y-129553000D01*
X182427000Y-145682000D02*
X182427000Y-143777000D01*
X164135000Y-144290000D02*
X163635000Y-143790000D01*
X164135000Y-143790000D01*
X164135000Y-144290000D01*
G36*
X164135000Y-144290000D02*
G01*
X163635000Y-143790000D01*
X164135000Y-143790000D01*
X164135000Y-144290000D01*
G37*
%TO.C,R5*%
X160365000Y-131814564D02*
X160365000Y-131360436D01*
X161835000Y-131814564D02*
X161835000Y-131360436D01*
%TO.C,C8*%
X168965000Y-124861252D02*
X168965000Y-124338748D01*
X170435000Y-124861252D02*
X170435000Y-124338748D01*
%TO.C,J1*%
X107367500Y-121610000D02*
X107367500Y-133990000D01*
X107367500Y-124260000D02*
X107367500Y-126260000D01*
X107367500Y-126260000D02*
X108867500Y-126010000D01*
X107367500Y-129340000D02*
X107367500Y-131340000D01*
X107367500Y-131340000D02*
X108867500Y-131090000D01*
X107367500Y-133990000D02*
X119587500Y-133990000D01*
X108867500Y-121610000D02*
X110667500Y-121610000D01*
X108867500Y-124510000D02*
X107367500Y-124260000D01*
X108867500Y-126010000D02*
X108867500Y-124510000D01*
X108867500Y-129590000D02*
X107367500Y-129340000D01*
X108867500Y-131090000D02*
X108867500Y-129590000D01*
X108867500Y-133990000D02*
X108867500Y-121610000D01*
X110667500Y-121610000D02*
X110667500Y-133990000D01*
X110667500Y-133990000D02*
X108867500Y-133990000D01*
X119587500Y-121610000D02*
X107367500Y-121610000D01*
X119587500Y-133990000D02*
X119587500Y-121610000D01*
X119787500Y-125260000D02*
X120387500Y-124960000D01*
X120387500Y-124960000D02*
X120387500Y-125560000D01*
X120387500Y-125560000D02*
X119787500Y-125260000D01*
D13*
%TO.C,kibuzzard-66621C74*%
G36*
X170738977Y-109922822D02*
G01*
X170779935Y-110021883D01*
X170735167Y-110126657D01*
X170640870Y-110160947D01*
X170435130Y-110160947D01*
X170435130Y-109882817D01*
X170638965Y-109882817D01*
X170738977Y-109922822D01*
G37*
G36*
X171872452Y-109922822D02*
G01*
X171913410Y-110021883D01*
X171868643Y-110126657D01*
X171774345Y-110160947D01*
X171568605Y-110160947D01*
X171568605Y-109882817D01*
X171772440Y-109882817D01*
X171872452Y-109922822D01*
G37*
G36*
X173689505Y-111283628D02*
G01*
X173292630Y-111283628D01*
X172803045Y-111283628D01*
X171393345Y-111283628D01*
X170259870Y-111283628D01*
X169791240Y-111283628D01*
X169307370Y-111283628D01*
X168910495Y-111283628D01*
X168910495Y-109934252D01*
X169311180Y-109934252D01*
X169370235Y-110059982D01*
X169483582Y-110126657D01*
X169600740Y-110071412D01*
X169619790Y-110054267D01*
X169619790Y-110698157D01*
X169657890Y-110833412D01*
X169791240Y-110871513D01*
X169926495Y-110833412D01*
X169964595Y-110700062D01*
X169964595Y-110690538D01*
X170086515Y-110690538D01*
X170089372Y-110756260D01*
X170107470Y-110808648D01*
X170160810Y-110852463D01*
X170259870Y-110865798D01*
X170360835Y-110852463D01*
X170414175Y-110809600D01*
X170432272Y-110758165D01*
X170435130Y-110692442D01*
X170435130Y-110690538D01*
X171219990Y-110690538D01*
X171222847Y-110756260D01*
X171240945Y-110808648D01*
X171294285Y-110852463D01*
X171393345Y-110865798D01*
X171494310Y-110852463D01*
X171547650Y-110809600D01*
X171565747Y-110758165D01*
X171568605Y-110692442D01*
X171568605Y-110555283D01*
X172315365Y-110555283D01*
X172362990Y-110679107D01*
X172374420Y-110692442D01*
X172395375Y-110719113D01*
X172428713Y-110752450D01*
X172474433Y-110789597D01*
X172533487Y-110825792D01*
X172606830Y-110857225D01*
X172696365Y-110878180D01*
X172803045Y-110886753D01*
X172929728Y-110872465D01*
X173060220Y-110823888D01*
X173177378Y-110739115D01*
X173260245Y-110610527D01*
X173284534Y-110528136D01*
X173292630Y-110437173D01*
X173274771Y-110294774D01*
X173221193Y-110191427D01*
X173137611Y-110119037D01*
X173029740Y-110069507D01*
X172907820Y-110039980D01*
X172791615Y-110016167D01*
X172716368Y-109982830D01*
X172683030Y-109920917D01*
X172713510Y-109862815D01*
X172783995Y-109839002D01*
X172846860Y-109845670D01*
X172884008Y-109859957D01*
X172910678Y-109881865D01*
X172932585Y-109899962D01*
X173060220Y-109935205D01*
X173172615Y-109842812D01*
X173218335Y-109725655D01*
X173149755Y-109627547D01*
X173050907Y-109564047D01*
X172929622Y-109525947D01*
X172785900Y-109513247D01*
X172663768Y-109526053D01*
X172556453Y-109564471D01*
X172463955Y-109628500D01*
X172393047Y-109712002D01*
X172350502Y-109808840D01*
X172336320Y-109919012D01*
X172351560Y-110042837D01*
X172397280Y-110145707D01*
X172473480Y-110227623D01*
X172580160Y-110288583D01*
X172652312Y-110314538D01*
X172743038Y-110339065D01*
X172892580Y-110383833D01*
X172942110Y-110442888D01*
X172907820Y-110531470D01*
X172795425Y-110559092D01*
X172720178Y-110540995D01*
X172643025Y-110471463D01*
X172557088Y-110402036D01*
X172474538Y-110389336D01*
X172395375Y-110433362D01*
X172315365Y-110555283D01*
X171568605Y-110555283D01*
X171568605Y-110509563D01*
X171772440Y-110509563D01*
X171850307Y-110501943D01*
X171931507Y-110479083D01*
X172012470Y-110441935D01*
X172089622Y-110391453D01*
X172157964Y-110324539D01*
X172212495Y-110238100D01*
X172248214Y-110136421D01*
X172260120Y-110023787D01*
X172247976Y-109910678D01*
X172211542Y-109807570D01*
X172156536Y-109719702D01*
X172088670Y-109652312D01*
X172012470Y-109601830D01*
X171932460Y-109564682D01*
X171851974Y-109541822D01*
X171774345Y-109534202D01*
X171395250Y-109534202D01*
X171294285Y-109547537D01*
X171240945Y-109591352D01*
X171222847Y-109643740D01*
X171219990Y-109707557D01*
X171219990Y-110690538D01*
X170435130Y-110690538D01*
X170435130Y-110509563D01*
X170638965Y-110509563D01*
X170716832Y-110501943D01*
X170798032Y-110479083D01*
X170878995Y-110441935D01*
X170956147Y-110391453D01*
X171024489Y-110324539D01*
X171079020Y-110238100D01*
X171114739Y-110136421D01*
X171126645Y-110023787D01*
X171114501Y-109910678D01*
X171078067Y-109807570D01*
X171023061Y-109719702D01*
X170955195Y-109652312D01*
X170878995Y-109601830D01*
X170798985Y-109564682D01*
X170718499Y-109541822D01*
X170640870Y-109534202D01*
X170261775Y-109534202D01*
X170160810Y-109547537D01*
X170107470Y-109591352D01*
X170089372Y-109643740D01*
X170086515Y-109707557D01*
X170086515Y-110690538D01*
X169964595Y-110690538D01*
X169964595Y-109709463D01*
X169926495Y-109573255D01*
X169793145Y-109534202D01*
X169663605Y-109566587D01*
X169633125Y-109591352D01*
X169391190Y-109808522D01*
X169333087Y-109873292D01*
X169311180Y-109934252D01*
X168910495Y-109934252D01*
X168910495Y-109116372D01*
X169307370Y-109116372D01*
X173292630Y-109116372D01*
X173689505Y-109116372D01*
X173689505Y-111283628D01*
G37*
D12*
%TO.C,U4*%
X172300000Y-123600000D02*
X172300000Y-124700000D01*
X174100000Y-123600000D02*
X174100000Y-124900000D01*
X172300000Y-125230000D02*
X172020000Y-124950000D01*
X172300000Y-124950000D01*
X172300000Y-125230000D01*
G36*
X172300000Y-125230000D02*
G01*
X172020000Y-124950000D01*
X172300000Y-124950000D01*
X172300000Y-125230000D01*
G37*
D11*
%TO.C,U1*%
X129580000Y-131330000D02*
X133720000Y-131330000D01*
X129580000Y-136470000D02*
X133720000Y-136470000D01*
D12*
X129250000Y-131373081D02*
X129010000Y-131043081D01*
X129490000Y-131043081D01*
X129250000Y-131373081D01*
G36*
X129250000Y-131373081D02*
G01*
X129010000Y-131043081D01*
X129490000Y-131043081D01*
X129250000Y-131373081D01*
G37*
%TO.C,J4*%
X165770000Y-109170000D02*
X167100000Y-109170000D01*
X165770000Y-110500000D02*
X165770000Y-109170000D01*
X165770000Y-111770000D02*
X165770000Y-111830000D01*
X165770000Y-111770000D02*
X168430000Y-111770000D01*
X165770000Y-111830000D02*
X168430000Y-111830000D01*
X168430000Y-111770000D02*
X168430000Y-111830000D01*
D13*
%TO.C,kibuzzard-66621754*%
G36*
X113117363Y-116197594D02*
G01*
X113155462Y-116267841D01*
X113091169Y-116324991D01*
X112824469Y-116324991D01*
X112880428Y-116219025D01*
X113014969Y-116172591D01*
X113117363Y-116197594D01*
G37*
G36*
X130550494Y-116197594D02*
G01*
X130588594Y-116267841D01*
X130524300Y-116324991D01*
X130257600Y-116324991D01*
X130313559Y-116219025D01*
X130448100Y-116172591D01*
X130550494Y-116197594D01*
G37*
G36*
X137851406Y-116197594D02*
G01*
X137889506Y-116267841D01*
X137825213Y-116324991D01*
X137558513Y-116324991D01*
X137614472Y-116219025D01*
X137749013Y-116172591D01*
X137851406Y-116197594D01*
G37*
G36*
X141235163Y-116197594D02*
G01*
X141273262Y-116267841D01*
X141208969Y-116324991D01*
X140942269Y-116324991D01*
X140998228Y-116219025D01*
X141132769Y-116172591D01*
X141235163Y-116197594D01*
G37*
G36*
X117816759Y-116296416D02*
G01*
X117865575Y-116417859D01*
X117816759Y-116538112D01*
X117701269Y-116589309D01*
X117576253Y-116538112D01*
X117522675Y-116420241D01*
X117573872Y-116298797D01*
X117696506Y-116246409D01*
X117816759Y-116296416D01*
G37*
G36*
X131799459Y-116296416D02*
G01*
X131848275Y-116417859D01*
X131799459Y-116538112D01*
X131683969Y-116589309D01*
X131558953Y-116538112D01*
X131505375Y-116420241D01*
X131556572Y-116298797D01*
X131679206Y-116246409D01*
X131799459Y-116296416D01*
G37*
G36*
X133146056Y-116298797D02*
G01*
X133196063Y-116420241D01*
X133143675Y-116540494D01*
X133022231Y-116591691D01*
X132903169Y-116540494D01*
X132853163Y-116420241D01*
X132903169Y-116298797D01*
X133024613Y-116248791D01*
X133146056Y-116298797D01*
G37*
G36*
X134458125Y-116274984D02*
G01*
X134512894Y-116415478D01*
X134448600Y-116563116D01*
X134315250Y-116610741D01*
X134184281Y-116563116D01*
X134122369Y-116417859D01*
X134178328Y-116278556D01*
X134312869Y-116222597D01*
X134458125Y-116274984D01*
G37*
G36*
X143224300Y-118025997D02*
G01*
X142728206Y-118025997D01*
X142009069Y-118025997D01*
X141135150Y-118025997D01*
X140146931Y-118025997D01*
X138861056Y-118025997D01*
X137751394Y-118025997D01*
X136301213Y-118025997D01*
X134320013Y-118025997D01*
X132638850Y-118025997D01*
X132076875Y-118025997D01*
X130450481Y-118025997D01*
X129481313Y-118025997D01*
X127816819Y-118025997D01*
X125811806Y-118025997D01*
X124618800Y-118025997D01*
X123154331Y-118025997D01*
X121773206Y-118025997D01*
X120789750Y-118025997D01*
X120189675Y-118025997D01*
X118903800Y-118025997D01*
X118094175Y-118025997D01*
X116753531Y-118025997D01*
X115751025Y-118025997D01*
X114127013Y-118025997D01*
X113017350Y-118025997D01*
X110686106Y-118025997D01*
X110471794Y-118025997D01*
X109975700Y-118025997D01*
X109000102Y-118025997D01*
X109211795Y-117320353D01*
X132426919Y-117320353D01*
X132428109Y-117384647D01*
X132440016Y-117438225D01*
X132472163Y-117487041D01*
X132535266Y-117516806D01*
X132638850Y-117529903D01*
X132762675Y-117513234D01*
X132829350Y-117462038D01*
X132851972Y-117396553D01*
X132853163Y-117317972D01*
X132853163Y-116934591D01*
X132957342Y-116981025D01*
X133079381Y-116996503D01*
X133218288Y-116977321D01*
X133346081Y-116919774D01*
X133462763Y-116823862D01*
X133555367Y-116701757D01*
X133610929Y-116565629D01*
X133628862Y-116420241D01*
X133686600Y-116420241D01*
X133708560Y-116590765D01*
X133774442Y-116740386D01*
X133884244Y-116869106D01*
X134020504Y-116967664D01*
X134165760Y-117026798D01*
X134320013Y-117046509D01*
X134472809Y-117027195D01*
X134616875Y-116969251D01*
X134752209Y-116872678D01*
X134861350Y-116744884D01*
X134926834Y-116593278D01*
X134948663Y-116417859D01*
X134928157Y-116250643D01*
X134866642Y-116101418D01*
X134764116Y-115970184D01*
X134632221Y-115868320D01*
X134482599Y-115807201D01*
X134315250Y-115786828D01*
X134151738Y-115807598D01*
X134004100Y-115869907D01*
X133872338Y-115973756D01*
X133769150Y-116106445D01*
X133707238Y-116255273D01*
X133686600Y-116420241D01*
X133628862Y-116420241D01*
X133629450Y-116415478D01*
X133610665Y-116266782D01*
X133554308Y-116128670D01*
X133460381Y-116001141D01*
X133342906Y-115899276D01*
X133215906Y-115838157D01*
X133079381Y-115817784D01*
X132954961Y-115836239D01*
X132843638Y-115891603D01*
X132765652Y-115834453D01*
X132636469Y-115815403D01*
X132516216Y-115832072D01*
X132451922Y-115885650D01*
X132430491Y-115948753D01*
X132426919Y-116027334D01*
X132426919Y-117320353D01*
X109211795Y-117320353D01*
X109366814Y-116803622D01*
X110471794Y-116803622D01*
X110476556Y-116886966D01*
X110499178Y-116952450D01*
X110563472Y-117006028D01*
X110686106Y-117022697D01*
X110812313Y-117006028D01*
X110878988Y-116952450D01*
X110901609Y-116888156D01*
X110905181Y-116808384D01*
X110905181Y-116129728D01*
X111181406Y-116505966D01*
X111259987Y-116579189D01*
X111367144Y-116603597D01*
X111432628Y-116596453D01*
X111482634Y-116575022D01*
X111513591Y-116551209D01*
X111536213Y-116525016D01*
X111550500Y-116505966D01*
X111829106Y-116127347D01*
X111829106Y-116803622D01*
X111832678Y-116885775D01*
X111855300Y-116951259D01*
X111921975Y-117006028D01*
X112045800Y-117022697D01*
X112170816Y-117006028D01*
X112236300Y-116953641D01*
X112260113Y-116889347D01*
X112264875Y-116808384D01*
X112264875Y-116425003D01*
X112367269Y-116425003D01*
X112376496Y-116533350D01*
X112404178Y-116639316D01*
X112450017Y-116741709D01*
X112513716Y-116839341D01*
X112600929Y-116925363D01*
X112717313Y-116992931D01*
X112857806Y-117036687D01*
X113017350Y-117051272D01*
X113234044Y-117037729D01*
X113388825Y-116997098D01*
X113481694Y-116929382D01*
X113512650Y-116834578D01*
X113509285Y-116822672D01*
X113641238Y-116822672D01*
X113682612Y-116910183D01*
X113806734Y-116982216D01*
X113969552Y-117030436D01*
X114127013Y-117046509D01*
X114318179Y-117030031D01*
X114466865Y-116980596D01*
X114573068Y-116898205D01*
X114622689Y-116808384D01*
X114760425Y-116808384D01*
X114763997Y-116890537D01*
X114786619Y-116954831D01*
X114852103Y-117008409D01*
X114974738Y-117025078D01*
X115098563Y-117008409D01*
X115165238Y-116954831D01*
X115187859Y-116891728D01*
X115191431Y-116810766D01*
X115191431Y-116382141D01*
X115255725Y-116289272D01*
X115374787Y-116248791D01*
X115491469Y-116295225D01*
X115534331Y-116417859D01*
X115534331Y-116806003D01*
X115539094Y-116890537D01*
X115562906Y-116956022D01*
X115628391Y-117008409D01*
X115751025Y-117025078D01*
X115874850Y-117008409D01*
X115941525Y-116954831D01*
X115964147Y-116890537D01*
X115967719Y-116810766D01*
X115967719Y-116420241D01*
X115950521Y-116259374D01*
X115898927Y-116116499D01*
X115842451Y-116034478D01*
X116058206Y-116034478D01*
X116090353Y-116191641D01*
X116201081Y-116244028D01*
X116260613Y-116244028D01*
X116260613Y-116546447D01*
X116273974Y-116695672D01*
X116314058Y-116816322D01*
X116380866Y-116908397D01*
X116475719Y-116973220D01*
X116599941Y-117012114D01*
X116753531Y-117025078D01*
X116830922Y-117021506D01*
X116896406Y-116998884D01*
X116952366Y-116933400D01*
X116970225Y-116810766D01*
X116955938Y-116701228D01*
X116908313Y-116642888D01*
X116844019Y-116620266D01*
X116755913Y-116615503D01*
X116704716Y-116596453D01*
X116691619Y-116525016D01*
X116691619Y-116415478D01*
X117091669Y-116415478D01*
X117110322Y-116568143D01*
X117166281Y-116708636D01*
X117259547Y-116836959D01*
X117376625Y-116938824D01*
X117504022Y-116999943D01*
X117641738Y-117020316D01*
X117778064Y-116998884D01*
X117891769Y-116934591D01*
X117959039Y-116998884D01*
X118094175Y-117020316D01*
X118218000Y-117003647D01*
X118284675Y-116950069D01*
X118307297Y-116886966D01*
X118310134Y-116822672D01*
X118418025Y-116822672D01*
X118459399Y-116910183D01*
X118583522Y-116982216D01*
X118746340Y-117030436D01*
X118903800Y-117046509D01*
X119094967Y-117030031D01*
X119243652Y-116980596D01*
X119349856Y-116898205D01*
X119413578Y-116782857D01*
X119434819Y-116634553D01*
X119402672Y-116463103D01*
X119309803Y-116353566D01*
X119195503Y-116298797D01*
X119065725Y-116267841D01*
X119027625Y-116261888D01*
X118989525Y-116255934D01*
X118956188Y-116248791D01*
X118925231Y-116240456D01*
X118899038Y-116232122D01*
X118876416Y-116221406D01*
X118860938Y-116208309D01*
X118850222Y-116191641D01*
X118846650Y-116170209D01*
X118934756Y-116122584D01*
X119082394Y-116165447D01*
X119213363Y-116208309D01*
X119332425Y-116117822D01*
X119361429Y-116034478D01*
X119494350Y-116034478D01*
X119526497Y-116191641D01*
X119637225Y-116244028D01*
X119696756Y-116244028D01*
X119696756Y-116546447D01*
X119710118Y-116695672D01*
X119750202Y-116816322D01*
X119817009Y-116908397D01*
X119911863Y-116973220D01*
X120036084Y-117012114D01*
X120189675Y-117025078D01*
X120267066Y-117021506D01*
X120332550Y-116998884D01*
X120388509Y-116933400D01*
X120406369Y-116810766D01*
X120406058Y-116808384D01*
X120575438Y-116808384D01*
X120579009Y-116890537D01*
X120601631Y-116954831D01*
X120667116Y-117008409D01*
X120789750Y-117025078D01*
X120914766Y-117008409D01*
X120980250Y-116954831D01*
X121002872Y-116891728D01*
X121006444Y-116810766D01*
X121006444Y-116415478D01*
X121149319Y-116415478D01*
X121164202Y-116556865D01*
X121208850Y-116685750D01*
X121277311Y-116796180D01*
X121363631Y-116882203D01*
X121461560Y-116947687D01*
X121564847Y-116996503D01*
X121669920Y-117026864D01*
X121773206Y-117036984D01*
X121935131Y-117013767D01*
X122097056Y-116944116D01*
X122200508Y-116850982D01*
X122211402Y-116806003D01*
X122937638Y-116806003D01*
X122941209Y-116888156D01*
X122963831Y-116953641D01*
X123030506Y-117008409D01*
X123154331Y-117025078D01*
X124030631Y-117025078D01*
X124112784Y-117021506D01*
X124178269Y-116998884D01*
X124233038Y-116932209D01*
X124249706Y-116808384D01*
X124249392Y-116806003D01*
X124402106Y-116806003D01*
X124405678Y-116888156D01*
X124428300Y-116953641D01*
X124494975Y-117008409D01*
X124618800Y-117025078D01*
X125416519Y-117025078D01*
X125484384Y-117021506D01*
X125541534Y-117001266D01*
X125587969Y-116944116D01*
X125602256Y-116839341D01*
X125601938Y-116836959D01*
X125666550Y-116836959D01*
X125678456Y-116932209D01*
X125811806Y-117001266D01*
X126747638Y-117001266D01*
X126850031Y-116982216D01*
X126884559Y-116932209D01*
X126895275Y-116838150D01*
X126883369Y-116744091D01*
X126750019Y-116672653D01*
X125814188Y-116672653D01*
X125711794Y-116691703D01*
X125676075Y-116741709D01*
X125666550Y-116836959D01*
X125601938Y-116836959D01*
X125587969Y-116732184D01*
X125541534Y-116676225D01*
X125486766Y-116657175D01*
X125418900Y-116653603D01*
X124837875Y-116653603D01*
X124837875Y-116182116D01*
X126954806Y-116182116D01*
X126969987Y-116355352D01*
X127015528Y-116513109D01*
X127084287Y-116649734D01*
X127169119Y-116759569D01*
X127268238Y-116848866D01*
X127379859Y-116923875D01*
X127495945Y-116981918D01*
X127608459Y-117020316D01*
X127715913Y-117041747D01*
X127816819Y-117048891D01*
X127970806Y-117034074D01*
X128118444Y-116989624D01*
X128259731Y-116915541D01*
X128357363Y-116842912D01*
X128370607Y-116808384D01*
X128490713Y-116808384D01*
X128494284Y-116890537D01*
X128516906Y-116954831D01*
X128582391Y-117008409D01*
X128705025Y-117025078D01*
X128828850Y-117008409D01*
X128895525Y-116954831D01*
X128918147Y-116891728D01*
X128921719Y-116810766D01*
X128921719Y-116382141D01*
X128986013Y-116289272D01*
X129105075Y-116248791D01*
X129221756Y-116295225D01*
X129264619Y-116417859D01*
X129264619Y-116806003D01*
X129269381Y-116890537D01*
X129293194Y-116956022D01*
X129358678Y-117008409D01*
X129481313Y-117025078D01*
X129605138Y-117008409D01*
X129671813Y-116954831D01*
X129694434Y-116890537D01*
X129698006Y-116810766D01*
X129698006Y-116425003D01*
X129800400Y-116425003D01*
X129809627Y-116533350D01*
X129837309Y-116639316D01*
X129883148Y-116741709D01*
X129946847Y-116839341D01*
X130034060Y-116925363D01*
X130150444Y-116992931D01*
X130290938Y-117036687D01*
X130450481Y-117051272D01*
X130667175Y-117037729D01*
X130821956Y-116997098D01*
X130914825Y-116929382D01*
X130945781Y-116834578D01*
X130914825Y-116725041D01*
X130850531Y-116639316D01*
X130771950Y-116610741D01*
X130662413Y-116641697D01*
X130469531Y-116672653D01*
X130329038Y-116639316D01*
X130257600Y-116548828D01*
X130764806Y-116548828D01*
X130861545Y-116530671D01*
X130937447Y-116476200D01*
X130971410Y-116415478D01*
X131074369Y-116415478D01*
X131093022Y-116568143D01*
X131148981Y-116708636D01*
X131242247Y-116836959D01*
X131359325Y-116938824D01*
X131486722Y-116999943D01*
X131624438Y-117020316D01*
X131760764Y-116998884D01*
X131874469Y-116934591D01*
X131941739Y-116998884D01*
X132076875Y-117020316D01*
X132200700Y-117003647D01*
X132267375Y-116950069D01*
X132289997Y-116886966D01*
X132293569Y-116806003D01*
X132293569Y-116032097D01*
X132289997Y-115952325D01*
X132267375Y-115886841D01*
X132201891Y-115832072D01*
X132079256Y-115815403D01*
X131935191Y-115839811D01*
X131874469Y-115913034D01*
X131764336Y-115841597D01*
X131624438Y-115817784D01*
X131487913Y-115838157D01*
X131360913Y-115899276D01*
X131243438Y-116001141D01*
X131149510Y-116128670D01*
X131093154Y-116266782D01*
X131074369Y-116415478D01*
X130971410Y-116415478D01*
X130986560Y-116388391D01*
X131002931Y-116270222D01*
X130967510Y-116102939D01*
X130861247Y-115943991D01*
X130752900Y-115858001D01*
X130616772Y-115806407D01*
X130452863Y-115789209D01*
X130272549Y-115808921D01*
X130115783Y-115868055D01*
X129982566Y-115966612D01*
X129881363Y-116096391D01*
X129820641Y-116249188D01*
X129800400Y-116425003D01*
X129698006Y-116425003D01*
X129698006Y-116420241D01*
X129680808Y-116259374D01*
X129629215Y-116116499D01*
X129543225Y-115991616D01*
X129431835Y-115895043D01*
X129304042Y-115837099D01*
X129159844Y-115817784D01*
X129034828Y-115843383D01*
X128921719Y-115920178D01*
X128921719Y-115536797D01*
X135577313Y-115536797D01*
X135591600Y-115643953D01*
X135636844Y-115699912D01*
X135690422Y-115718962D01*
X135758288Y-115722534D01*
X136089281Y-115722534D01*
X136089281Y-116810766D01*
X136092853Y-116890537D01*
X136114284Y-116954831D01*
X136178578Y-117008409D01*
X136301213Y-117025078D01*
X136425038Y-117008409D01*
X136491713Y-116956022D01*
X136514334Y-116892919D01*
X136517906Y-116813147D01*
X136517906Y-116425003D01*
X137101313Y-116425003D01*
X137110540Y-116533350D01*
X137138222Y-116639316D01*
X137184061Y-116741709D01*
X137247759Y-116839341D01*
X137334973Y-116925363D01*
X137451356Y-116992931D01*
X137591850Y-117036687D01*
X137751394Y-117051272D01*
X137968087Y-117037729D01*
X138122869Y-116997098D01*
X138215738Y-116929382D01*
X138246694Y-116834578D01*
X138243329Y-116822672D01*
X138375281Y-116822672D01*
X138416655Y-116910183D01*
X138540778Y-116982216D01*
X138703596Y-117030436D01*
X138861056Y-117046509D01*
X139052223Y-117030031D01*
X139200908Y-116980596D01*
X139307112Y-116898205D01*
X139370834Y-116782857D01*
X139392075Y-116634553D01*
X139359928Y-116463103D01*
X139267059Y-116353566D01*
X139152759Y-116298797D01*
X139022981Y-116267841D01*
X138984881Y-116261888D01*
X138946781Y-116255934D01*
X138913444Y-116248791D01*
X138882487Y-116240456D01*
X138856294Y-116232122D01*
X138833672Y-116221406D01*
X138818194Y-116208309D01*
X138807478Y-116191641D01*
X138803906Y-116170209D01*
X138892012Y-116122584D01*
X139039650Y-116165447D01*
X139170619Y-116208309D01*
X139289681Y-116117822D01*
X139318685Y-116034478D01*
X139451606Y-116034478D01*
X139483753Y-116191641D01*
X139594481Y-116244028D01*
X139654012Y-116244028D01*
X139654012Y-116546447D01*
X139667374Y-116695672D01*
X139707458Y-116816322D01*
X139774266Y-116908397D01*
X139869119Y-116973220D01*
X139993341Y-117012114D01*
X140146931Y-117025078D01*
X140224322Y-117021506D01*
X140289806Y-116998884D01*
X140345766Y-116933400D01*
X140363625Y-116810766D01*
X140349338Y-116701228D01*
X140301713Y-116642888D01*
X140237419Y-116620266D01*
X140149313Y-116615503D01*
X140098116Y-116596453D01*
X140085019Y-116525016D01*
X140085019Y-116425003D01*
X140485069Y-116425003D01*
X140494296Y-116533350D01*
X140521978Y-116639316D01*
X140567817Y-116741709D01*
X140631516Y-116839341D01*
X140718729Y-116925363D01*
X140835112Y-116992931D01*
X140975606Y-117036687D01*
X141135150Y-117051272D01*
X141351844Y-117037729D01*
X141506625Y-116997098D01*
X141599494Y-116929382D01*
X141630450Y-116834578D01*
X141622374Y-116806003D01*
X141794756Y-116806003D01*
X141798328Y-116888156D01*
X141820950Y-116953641D01*
X141886434Y-117008409D01*
X142009069Y-117025078D01*
X142135275Y-117008409D01*
X142201950Y-116954831D01*
X142224572Y-116891728D01*
X142228144Y-116810766D01*
X142228144Y-116346422D01*
X142274578Y-116259506D01*
X142392450Y-116224978D01*
X142450791Y-116242838D01*
X142542469Y-116260697D01*
X142675819Y-116178544D01*
X142715109Y-116086568D01*
X142728206Y-115974947D01*
X142698441Y-115884459D01*
X142621050Y-115830881D01*
X142535325Y-115809450D01*
X142463887Y-115803497D01*
X142336491Y-115830881D01*
X142216237Y-115913034D01*
X142149562Y-115839811D01*
X142011450Y-115815403D01*
X141886434Y-115832072D01*
X141820950Y-115885650D01*
X141798328Y-115948753D01*
X141794756Y-116029716D01*
X141794756Y-116806003D01*
X141622374Y-116806003D01*
X141599494Y-116725041D01*
X141535200Y-116639316D01*
X141456619Y-116610741D01*
X141347081Y-116641697D01*
X141154200Y-116672653D01*
X141013706Y-116639316D01*
X140942269Y-116548828D01*
X141449475Y-116548828D01*
X141546213Y-116530671D01*
X141622116Y-116476200D01*
X141671229Y-116388391D01*
X141687600Y-116270222D01*
X141652179Y-116102939D01*
X141545916Y-115943991D01*
X141437569Y-115858001D01*
X141301441Y-115806407D01*
X141137531Y-115789209D01*
X140957218Y-115808921D01*
X140800452Y-115868055D01*
X140667234Y-115966612D01*
X140566031Y-116096391D01*
X140505309Y-116249188D01*
X140485069Y-116425003D01*
X140085019Y-116425003D01*
X140085019Y-116248791D01*
X140208844Y-116251172D01*
X140289806Y-116245219D01*
X140355291Y-116220216D01*
X140407678Y-116154731D01*
X140425538Y-116036859D01*
X140412441Y-115930894D01*
X140381484Y-115865409D01*
X140330288Y-115832072D01*
X140274328Y-115818975D01*
X140211225Y-115817784D01*
X140085019Y-115822547D01*
X140085019Y-115632047D01*
X140080256Y-115552275D01*
X140056444Y-115485600D01*
X139990959Y-115432022D01*
X139870706Y-115415353D01*
X139745691Y-115430831D01*
X139680206Y-115480837D01*
X139657584Y-115542750D01*
X139654012Y-115622522D01*
X139654012Y-115829691D01*
X139604006Y-115829691D01*
X139489706Y-115880887D01*
X139451606Y-116034478D01*
X139318685Y-116034478D01*
X139341473Y-115968994D01*
X139249200Y-115870172D01*
X139083108Y-115811236D01*
X138918206Y-115791591D01*
X138766468Y-115802306D01*
X138641452Y-115834453D01*
X138543159Y-115888031D01*
X138447612Y-116006201D01*
X138415762Y-116167828D01*
X138434068Y-116301625D01*
X138488986Y-116410120D01*
X138580515Y-116493315D01*
X138708656Y-116551209D01*
X138837244Y-116583356D01*
X138955116Y-116616694D01*
X138989644Y-116658366D01*
X138899156Y-116696466D01*
X138721753Y-116638125D01*
X138556256Y-116579784D01*
X138463387Y-116627409D01*
X138397308Y-116738137D01*
X138375281Y-116822672D01*
X138243329Y-116822672D01*
X138215738Y-116725041D01*
X138151444Y-116639316D01*
X138072863Y-116610741D01*
X137963325Y-116641697D01*
X137770444Y-116672653D01*
X137629950Y-116639316D01*
X137558513Y-116548828D01*
X138065719Y-116548828D01*
X138162457Y-116530671D01*
X138238359Y-116476200D01*
X138287473Y-116388391D01*
X138303844Y-116270222D01*
X138268423Y-116102939D01*
X138162159Y-115943991D01*
X138053813Y-115858001D01*
X137917684Y-115806407D01*
X137753775Y-115789209D01*
X137573461Y-115808921D01*
X137416696Y-115868055D01*
X137283478Y-115966612D01*
X137182275Y-116096391D01*
X137121553Y-116249188D01*
X137101313Y-116425003D01*
X136517906Y-116425003D01*
X136517906Y-115722534D01*
X136846519Y-115722534D01*
X136914384Y-115718962D01*
X136969153Y-115699912D01*
X137015588Y-115643953D01*
X137029875Y-115539178D01*
X137015588Y-115434403D01*
X136970344Y-115378444D01*
X136916766Y-115359394D01*
X136848900Y-115355822D01*
X135760669Y-115355822D01*
X135692803Y-115359394D01*
X135638034Y-115378444D01*
X135591600Y-115433212D01*
X135577313Y-115536797D01*
X128921719Y-115536797D01*
X128921719Y-115486791D01*
X128918147Y-115404638D01*
X128895525Y-115340344D01*
X128830041Y-115286766D01*
X128707406Y-115270097D01*
X128582391Y-115286766D01*
X128516906Y-115340344D01*
X128494284Y-115404638D01*
X128490713Y-115484409D01*
X128490713Y-116808384D01*
X128370607Y-116808384D01*
X128390700Y-116755997D01*
X128338313Y-116617884D01*
X128252588Y-116516086D01*
X128171625Y-116482153D01*
X128052563Y-116529778D01*
X127932905Y-116588714D01*
X127807294Y-116608359D01*
X127626319Y-116570259D01*
X127540296Y-116516979D01*
X127463203Y-116433337D01*
X127408732Y-116324098D01*
X127390575Y-116194022D01*
X127400695Y-116092819D01*
X127431056Y-116003522D01*
X127537022Y-115873744D01*
X127671563Y-115803497D01*
X127807294Y-115779684D01*
X127864444Y-115782066D01*
X127912069Y-115790400D01*
X127950169Y-115799925D01*
X127982316Y-115811831D01*
X128004938Y-115824928D01*
X128025178Y-115838025D01*
X128040656Y-115848741D01*
X128169244Y-115903509D01*
X128251397Y-115871362D01*
X128340694Y-115774922D01*
X128393081Y-115641572D01*
X128370459Y-115570134D01*
X128326406Y-115520128D01*
X128262113Y-115474884D01*
X128111829Y-115400801D01*
X127965779Y-115356351D01*
X127823963Y-115341534D01*
X127718890Y-115348678D01*
X127608459Y-115370109D01*
X127494159Y-115407912D01*
X127377478Y-115464169D01*
X127265857Y-115536797D01*
X127166738Y-115623713D01*
X127082203Y-115730571D01*
X127014338Y-115863028D01*
X126969689Y-116015428D01*
X126954806Y-116182116D01*
X124837875Y-116182116D01*
X124837875Y-115577278D01*
X124834303Y-115495125D01*
X124811681Y-115429641D01*
X124745006Y-115374872D01*
X124621181Y-115358203D01*
X124494975Y-115374872D01*
X124428300Y-115429641D01*
X124405678Y-115495125D01*
X124402106Y-115574897D01*
X124402106Y-116806003D01*
X124249392Y-116806003D01*
X124233038Y-116682178D01*
X124179459Y-116615503D01*
X124115166Y-116592881D01*
X124033013Y-116589309D01*
X123373406Y-116589309D01*
X123373406Y-116377378D01*
X123809175Y-116377378D01*
X123887756Y-116373806D01*
X123947288Y-116354756D01*
X123993722Y-116299988D01*
X124006819Y-116194022D01*
X123993722Y-116085675D01*
X123948478Y-116028525D01*
X123891328Y-116009475D01*
X123813938Y-116005903D01*
X123373406Y-116005903D01*
X123373406Y-115793972D01*
X124030631Y-115793972D01*
X124112784Y-115790400D01*
X124178269Y-115767778D01*
X124233038Y-115701103D01*
X124249706Y-115577278D01*
X124233038Y-115451072D01*
X124179459Y-115384397D01*
X124115166Y-115361775D01*
X124033013Y-115358203D01*
X123161475Y-115358203D01*
X122986453Y-115404638D01*
X122937638Y-115574897D01*
X122937638Y-116806003D01*
X122211402Y-116806003D01*
X122225115Y-116749382D01*
X122170875Y-116639316D01*
X122075030Y-116544661D01*
X121992281Y-116513109D01*
X121868456Y-116565497D01*
X121763681Y-116596453D01*
X121643428Y-116544066D01*
X121592231Y-116417859D01*
X121644619Y-116292844D01*
X121768444Y-116241647D01*
X121888697Y-116284509D01*
X122006569Y-116327372D01*
X122092294Y-116294630D01*
X122178019Y-116196403D01*
X122228025Y-116060672D01*
X122205403Y-115989234D01*
X122160159Y-115938037D01*
X122097056Y-115896366D01*
X121938703Y-115824928D01*
X121768444Y-115801116D01*
X121666943Y-115811236D01*
X121562466Y-115841597D01*
X121459477Y-115890115D01*
X121362441Y-115954706D01*
X121277013Y-116039538D01*
X121208850Y-116148778D01*
X121164202Y-116276175D01*
X121149319Y-116415478D01*
X121006444Y-116415478D01*
X121006444Y-116036859D01*
X121002872Y-115954706D01*
X120980250Y-115889222D01*
X120914766Y-115834453D01*
X120792131Y-115817784D01*
X120789750Y-115818105D01*
X120668306Y-115834453D01*
X120601631Y-115888031D01*
X120579009Y-115952325D01*
X120575438Y-116032097D01*
X120575438Y-116808384D01*
X120406058Y-116808384D01*
X120392081Y-116701228D01*
X120344456Y-116642888D01*
X120280163Y-116620266D01*
X120192056Y-116615503D01*
X120140859Y-116596453D01*
X120127763Y-116525016D01*
X120127763Y-116248791D01*
X120251588Y-116251172D01*
X120332550Y-116245219D01*
X120398034Y-116220216D01*
X120450422Y-116154731D01*
X120468281Y-116036859D01*
X120455184Y-115930894D01*
X120424228Y-115865409D01*
X120373031Y-115832072D01*
X120317072Y-115818975D01*
X120253969Y-115817784D01*
X120127763Y-115822547D01*
X120127763Y-115632047D01*
X120123000Y-115552275D01*
X120099188Y-115485600D01*
X120097732Y-115484409D01*
X120575438Y-115484409D01*
X120579009Y-115564181D01*
X120601631Y-115629666D01*
X120667116Y-115684434D01*
X120789750Y-115701103D01*
X120914766Y-115684434D01*
X120980250Y-115630856D01*
X121002872Y-115567753D01*
X121006444Y-115486791D01*
X121002872Y-115407019D01*
X120980250Y-115341534D01*
X120914766Y-115286766D01*
X120792131Y-115270097D01*
X120668306Y-115286766D01*
X120601631Y-115340344D01*
X120579009Y-115404638D01*
X120575438Y-115484409D01*
X120097732Y-115484409D01*
X120033703Y-115432022D01*
X119913450Y-115415353D01*
X119788434Y-115430831D01*
X119722950Y-115480837D01*
X119700328Y-115542750D01*
X119696756Y-115622522D01*
X119696756Y-115829691D01*
X119646750Y-115829691D01*
X119532450Y-115880887D01*
X119494350Y-116034478D01*
X119361429Y-116034478D01*
X119384217Y-115968994D01*
X119291944Y-115870172D01*
X119125852Y-115811236D01*
X118960950Y-115791591D01*
X118809211Y-115802306D01*
X118684196Y-115834453D01*
X118585903Y-115888031D01*
X118490355Y-116006201D01*
X118458506Y-116167828D01*
X118476812Y-116301625D01*
X118531730Y-116410120D01*
X118623259Y-116493315D01*
X118751400Y-116551209D01*
X118879988Y-116583356D01*
X118997859Y-116616694D01*
X119032388Y-116658366D01*
X118941900Y-116696466D01*
X118764497Y-116638125D01*
X118599000Y-116579784D01*
X118506131Y-116627409D01*
X118440052Y-116738137D01*
X118418025Y-116822672D01*
X118310134Y-116822672D01*
X118310869Y-116806003D01*
X118310869Y-116032097D01*
X118307297Y-115952325D01*
X118284675Y-115886841D01*
X118219191Y-115832072D01*
X118096556Y-115815403D01*
X117952491Y-115839811D01*
X117891769Y-115913034D01*
X117781636Y-115841597D01*
X117641738Y-115817784D01*
X117505213Y-115838157D01*
X117378213Y-115899276D01*
X117260738Y-116001141D01*
X117166810Y-116128670D01*
X117110454Y-116266782D01*
X117091669Y-116415478D01*
X116691619Y-116415478D01*
X116691619Y-116248791D01*
X116815444Y-116251172D01*
X116896406Y-116245219D01*
X116961891Y-116220216D01*
X117014278Y-116154731D01*
X117032138Y-116036859D01*
X117019041Y-115930894D01*
X116988084Y-115865409D01*
X116936888Y-115832072D01*
X116880928Y-115818975D01*
X116817825Y-115817784D01*
X116691619Y-115822547D01*
X116691619Y-115632047D01*
X116686856Y-115552275D01*
X116663044Y-115485600D01*
X116597559Y-115432022D01*
X116477306Y-115415353D01*
X116352291Y-115430831D01*
X116286806Y-115480837D01*
X116264184Y-115542750D01*
X116260613Y-115622522D01*
X116260613Y-115829691D01*
X116210606Y-115829691D01*
X116096306Y-115880887D01*
X116058206Y-116034478D01*
X115842451Y-116034478D01*
X115812938Y-115991616D01*
X115701548Y-115895043D01*
X115573754Y-115837099D01*
X115429556Y-115817784D01*
X115304541Y-115843383D01*
X115191431Y-115920178D01*
X115191431Y-115486791D01*
X115187859Y-115404638D01*
X115165238Y-115340344D01*
X115099753Y-115286766D01*
X114977119Y-115270097D01*
X114852103Y-115286766D01*
X114786619Y-115340344D01*
X114763997Y-115404638D01*
X114760425Y-115484409D01*
X114760425Y-116808384D01*
X114622689Y-116808384D01*
X114636791Y-116782857D01*
X114658031Y-116634553D01*
X114625884Y-116463103D01*
X114533016Y-116353566D01*
X114418716Y-116298797D01*
X114288938Y-116267841D01*
X114250838Y-116261888D01*
X114212738Y-116255934D01*
X114179400Y-116248791D01*
X114148444Y-116240456D01*
X114122250Y-116232122D01*
X114099628Y-116221406D01*
X114084150Y-116208309D01*
X114073434Y-116191641D01*
X114069863Y-116170209D01*
X114157969Y-116122584D01*
X114305606Y-116165447D01*
X114436575Y-116208309D01*
X114555638Y-116117822D01*
X114607430Y-115968994D01*
X114515156Y-115870172D01*
X114349064Y-115811236D01*
X114184163Y-115791591D01*
X114032424Y-115802306D01*
X113907408Y-115834453D01*
X113809116Y-115888031D01*
X113713568Y-116006201D01*
X113681719Y-116167828D01*
X113700025Y-116301625D01*
X113754942Y-116410120D01*
X113846471Y-116493315D01*
X113974613Y-116551209D01*
X114103200Y-116583356D01*
X114221072Y-116616694D01*
X114255600Y-116658366D01*
X114165113Y-116696466D01*
X113987709Y-116638125D01*
X113822213Y-116579784D01*
X113729344Y-116627409D01*
X113663264Y-116738137D01*
X113641238Y-116822672D01*
X113509285Y-116822672D01*
X113481694Y-116725041D01*
X113417400Y-116639316D01*
X113338819Y-116610741D01*
X113229281Y-116641697D01*
X113036400Y-116672653D01*
X112895906Y-116639316D01*
X112824469Y-116548828D01*
X113331675Y-116548828D01*
X113428413Y-116530671D01*
X113504316Y-116476200D01*
X113553429Y-116388391D01*
X113569800Y-116270222D01*
X113534379Y-116102939D01*
X113428116Y-115943991D01*
X113319769Y-115858001D01*
X113183641Y-115806407D01*
X113019731Y-115789209D01*
X112839418Y-115808921D01*
X112682652Y-115868055D01*
X112549434Y-115966612D01*
X112448231Y-116096391D01*
X112387509Y-116249188D01*
X112367269Y-116425003D01*
X112264875Y-116425003D01*
X112264875Y-115579659D01*
X112260113Y-115496316D01*
X112237491Y-115430831D01*
X112172006Y-115377253D01*
X112048181Y-115360584D01*
X111921975Y-115374872D01*
X111850538Y-115429641D01*
X111367144Y-116051147D01*
X110881369Y-115427259D01*
X110865891Y-115410591D01*
X110848031Y-115392731D01*
X110827791Y-115380825D01*
X110796834Y-115370109D01*
X110753972Y-115364156D01*
X110690869Y-115360584D01*
X110564663Y-115377253D01*
X110497988Y-115430831D01*
X110475366Y-115495125D01*
X110471794Y-115574897D01*
X110471794Y-116803622D01*
X109366814Y-116803622D01*
X109975700Y-114774003D01*
X110471794Y-114774003D01*
X142728206Y-114774003D01*
X143224300Y-114774003D01*
X144199898Y-114774003D01*
X143224300Y-118025997D01*
G37*
D12*
%TO.C,J7*%
X175870000Y-126050000D02*
X175870000Y-124720000D01*
X177200000Y-126050000D02*
X175870000Y-126050000D01*
X178470000Y-123390000D02*
X186150000Y-123390000D01*
X178470000Y-126050000D02*
X178470000Y-123390000D01*
X178470000Y-126050000D02*
X186150000Y-126050000D01*
X186150000Y-126050000D02*
X186150000Y-123390000D01*
%TO.C,D1*%
X132400000Y-125260000D02*
X135085000Y-125260000D01*
X135085000Y-123340000D02*
X132400000Y-123340000D01*
X135085000Y-125260000D02*
X135085000Y-123340000D01*
D14*
%TO.C,BT2*%
X162010001Y-113800000D02*
G75*
G02*
X166050000Y-115610000I1645136J-1741712D01*
G01*
X163867000Y-117960000D02*
G75*
G02*
X162820000Y-117810000I-98151J3043933D01*
G01*
D13*
%TO.C,kibuzzard-66621C54*%
G36*
X156847905Y-125896268D02*
G01*
X156886380Y-125991987D01*
X156847905Y-126086768D01*
X156756878Y-126127120D01*
X156658343Y-126086768D01*
X156616114Y-125993864D01*
X156656467Y-125898145D01*
X156753124Y-125856854D01*
X156847905Y-125896268D01*
G37*
G36*
X155810008Y-125513391D02*
G01*
X155829715Y-125571573D01*
X155816577Y-125629756D01*
X155771533Y-125642894D01*
X155749011Y-125642894D01*
X155634523Y-125673862D01*
X155600740Y-125781780D01*
X155632646Y-125893453D01*
X155739627Y-125926298D01*
X155764026Y-125926298D01*
X155842853Y-125944128D01*
X155867252Y-126022017D01*
X155856930Y-126081137D01*
X155828777Y-126113044D01*
X155799686Y-126123367D01*
X155773410Y-126125243D01*
X155505021Y-126125243D01*
X155505021Y-125498376D01*
X155732119Y-125498376D01*
X155810008Y-125513391D01*
G37*
G36*
X159282098Y-126867458D02*
G01*
X158885223Y-126867458D01*
X158665632Y-126867458D01*
X157860464Y-126867458D01*
X157066558Y-126867458D01*
X155332351Y-126867458D01*
X155114777Y-126867458D01*
X154717902Y-126867458D01*
X154717902Y-126294160D01*
X155161558Y-126294160D01*
X155164373Y-126359849D01*
X155182203Y-126412401D01*
X155234755Y-126455569D01*
X155332351Y-126468706D01*
X155792178Y-126468706D01*
X155900723Y-126454943D01*
X155998632Y-126413652D01*
X156085905Y-126344835D01*
X156154410Y-126256206D01*
X156196013Y-126155482D01*
X156210715Y-126042662D01*
X156201643Y-125990110D01*
X156276405Y-125990110D01*
X156291107Y-126110437D01*
X156335213Y-126221171D01*
X156408723Y-126322312D01*
X156501001Y-126402600D01*
X156601412Y-126450772D01*
X156709957Y-126466830D01*
X156817406Y-126449938D01*
X156907026Y-126399263D01*
X156960047Y-126449938D01*
X157066558Y-126466830D01*
X157164154Y-126453692D01*
X157216705Y-126411463D01*
X157234536Y-126361726D01*
X157237351Y-126297913D01*
X157237351Y-125689815D01*
X157312425Y-125689815D01*
X157337762Y-125813687D01*
X157425036Y-125854977D01*
X157471957Y-125854977D01*
X157471957Y-126093337D01*
X157482488Y-126210953D01*
X157514082Y-126306046D01*
X157566737Y-126378618D01*
X157641499Y-126429710D01*
X157739407Y-126460365D01*
X157860464Y-126470583D01*
X157921462Y-126467768D01*
X157973075Y-126449938D01*
X158017181Y-126398325D01*
X158031257Y-126301667D01*
X158019996Y-126215332D01*
X157982459Y-126169349D01*
X157931784Y-126151519D01*
X157862341Y-126147766D01*
X157821989Y-126132751D01*
X157811666Y-126076445D01*
X157811666Y-125858731D01*
X157909262Y-125860608D01*
X157973075Y-125855916D01*
X158024688Y-125836209D01*
X158065979Y-125784596D01*
X158080055Y-125691692D01*
X158079823Y-125689815D01*
X158117592Y-125689815D01*
X158142930Y-125813687D01*
X158230203Y-125854977D01*
X158277124Y-125854977D01*
X158277124Y-126093337D01*
X158287655Y-126210953D01*
X158319249Y-126306046D01*
X158371905Y-126378618D01*
X158446666Y-126429710D01*
X158544575Y-126460365D01*
X158665632Y-126470583D01*
X158726629Y-126467768D01*
X158778242Y-126449938D01*
X158822348Y-126398325D01*
X158836425Y-126301667D01*
X158825164Y-126215332D01*
X158787627Y-126169349D01*
X158736952Y-126151519D01*
X158667508Y-126147766D01*
X158627156Y-126132751D01*
X158616834Y-126076445D01*
X158616834Y-125858731D01*
X158714430Y-125860608D01*
X158778242Y-125855916D01*
X158829856Y-125836209D01*
X158871146Y-125784596D01*
X158885223Y-125691692D01*
X158874900Y-125608172D01*
X158850501Y-125556559D01*
X158810149Y-125530283D01*
X158766043Y-125519960D01*
X158716306Y-125519022D01*
X158616834Y-125522775D01*
X158616834Y-125372628D01*
X158613080Y-125309753D01*
X158594311Y-125257202D01*
X158542698Y-125214972D01*
X158447917Y-125201835D01*
X158349383Y-125214034D01*
X158297770Y-125253448D01*
X158279939Y-125302246D01*
X158277124Y-125365120D01*
X158277124Y-125528406D01*
X158237710Y-125528406D01*
X158147622Y-125568758D01*
X158117592Y-125689815D01*
X158079823Y-125689815D01*
X158069733Y-125608172D01*
X158045334Y-125556559D01*
X158004981Y-125530283D01*
X157960875Y-125519960D01*
X157911139Y-125519022D01*
X157811666Y-125522775D01*
X157811666Y-125372628D01*
X157807912Y-125309753D01*
X157789144Y-125257202D01*
X157737531Y-125214972D01*
X157642750Y-125201835D01*
X157544215Y-125214034D01*
X157492602Y-125253448D01*
X157474772Y-125302246D01*
X157471957Y-125365120D01*
X157471957Y-125528406D01*
X157432543Y-125528406D01*
X157342454Y-125568758D01*
X157312425Y-125689815D01*
X157237351Y-125689815D01*
X157237351Y-125687938D01*
X157234536Y-125625064D01*
X157216705Y-125573450D01*
X157165092Y-125530283D01*
X157068435Y-125517145D01*
X156954885Y-125536383D01*
X156907026Y-125594096D01*
X156820221Y-125537790D01*
X156741647Y-125524416D01*
X156709957Y-125519022D01*
X156602351Y-125535079D01*
X156502252Y-125583252D01*
X156409661Y-125663539D01*
X156335630Y-125764055D01*
X156291211Y-125872912D01*
X156276405Y-125990110D01*
X156201643Y-125990110D01*
X156185847Y-125898614D01*
X156111242Y-125766766D01*
X156157694Y-125666354D01*
X156173178Y-125556559D01*
X156160249Y-125452602D01*
X156121461Y-125358447D01*
X156056814Y-125274093D01*
X155973607Y-125207882D01*
X155879139Y-125168156D01*
X155773410Y-125154913D01*
X155554832Y-125154913D01*
X155334228Y-125154913D01*
X155234755Y-125168051D01*
X155182203Y-125211219D01*
X155164373Y-125262832D01*
X155161558Y-125325706D01*
X155161558Y-126294160D01*
X154717902Y-126294160D01*
X154717902Y-123864797D01*
X155114777Y-123864797D01*
X155187167Y-123981002D01*
X155227172Y-124015292D01*
X155356712Y-124081014D01*
X155451962Y-124106017D01*
X155554832Y-124114352D01*
X155678657Y-124099218D01*
X155788512Y-124053815D01*
X155884397Y-123978144D01*
X155958481Y-123880248D01*
X156002931Y-123768171D01*
X156017747Y-123641912D01*
X156002507Y-123528564D01*
X155956787Y-123424742D01*
X155880587Y-123330444D01*
X155784279Y-123255832D01*
X155678234Y-123211064D01*
X155562452Y-123196142D01*
X155552927Y-123196142D01*
X155520542Y-123199952D01*
X155533877Y-123098987D01*
X155827247Y-123098987D01*
X155888207Y-123096129D01*
X155937737Y-123078984D01*
X155978695Y-123028502D01*
X155991077Y-122933252D01*
X155982636Y-122867529D01*
X156099662Y-122867529D01*
X156118712Y-122999927D01*
X156570197Y-123992432D01*
X156634967Y-124063869D01*
X156741647Y-124087682D01*
X156839755Y-124061964D01*
X156905477Y-123992432D01*
X157356962Y-122999927D01*
X157378870Y-122868482D01*
X157269332Y-122777042D01*
X157128362Y-122749419D01*
X157038827Y-122857052D01*
X156737837Y-123598097D01*
X156436847Y-122857052D01*
X156349217Y-122748467D01*
X156206342Y-122777042D01*
X156099662Y-122867529D01*
X155982636Y-122867529D01*
X155977742Y-122829429D01*
X155934880Y-122776089D01*
X155883445Y-122757992D01*
X155817722Y-122754182D01*
X155381477Y-122752277D01*
X155290990Y-122769422D01*
X155237650Y-122819904D01*
X155215742Y-122872292D01*
X155206217Y-122925632D01*
X155135732Y-123466652D01*
X155159545Y-123521897D01*
X155244317Y-123579047D01*
X155368142Y-123617147D01*
X155474822Y-123571427D01*
X155549117Y-123544757D01*
X155632937Y-123576189D01*
X155667227Y-123655247D01*
X155634842Y-123735257D01*
X155543402Y-123763832D01*
X155432912Y-123733352D01*
X155303372Y-123670487D01*
X155185262Y-123735257D01*
X155114777Y-123864797D01*
X154717902Y-123864797D01*
X154717902Y-122332542D01*
X155114777Y-122332542D01*
X158885223Y-122332542D01*
X159282098Y-122332542D01*
X159282098Y-126867458D01*
G37*
D12*
%TO.C,C7*%
X151888748Y-135965000D02*
X152411252Y-135965000D01*
X151888748Y-137435000D02*
X152411252Y-137435000D01*
%TO.C,J8*%
X159890000Y-134430000D02*
X161000000Y-134430000D01*
X159890000Y-135190000D02*
X159890000Y-134430000D01*
X159890000Y-135950000D02*
X159890000Y-139695000D01*
X159890000Y-135950000D02*
X160436529Y-135950000D01*
X159890000Y-139695000D02*
X160692470Y-139695000D01*
X161307530Y-139695000D02*
X162110000Y-139695000D01*
X161563471Y-135950000D02*
X162110000Y-135950000D01*
X162110000Y-135950000D02*
X162110000Y-139695000D01*
%TO.C,RN1*%
X166100000Y-122820000D02*
X165100000Y-122820000D01*
X166100000Y-126180000D02*
X165100000Y-126180000D01*
%TO.C,R1*%
X136865000Y-134960436D02*
X136865000Y-135414564D01*
X138335000Y-134960436D02*
X138335000Y-135414564D01*
%TO.C,U5*%
D11*
X170650000Y-111537500D02*
X180350000Y-111537500D01*
X180350000Y-121637500D01*
X170650000Y-121637500D01*
X170650000Y-111537500D01*
D12*
%TO.C,C6*%
X149665000Y-126061252D02*
X149665000Y-125538748D01*
X151135000Y-126061252D02*
X151135000Y-125538748D01*
%TO.C,L1*%
X135900000Y-119800000D02*
X143300000Y-119800000D01*
X135900000Y-122100000D02*
X135900000Y-119800000D01*
X135900000Y-127200000D02*
X135900000Y-124900000D01*
X143300000Y-119800000D02*
X143300000Y-122100000D01*
X143300000Y-124900000D02*
X143300000Y-127200000D01*
X143300000Y-127200000D02*
X135900000Y-127200000D01*
%TO.C,Q2*%
X133337500Y-126040000D02*
X132687500Y-126040000D01*
X133337500Y-126040000D02*
X133987500Y-126040000D01*
X133337500Y-129160000D02*
X132687500Y-129160000D01*
X133337500Y-129160000D02*
X133987500Y-129160000D01*
X134740000Y-129440000D02*
X134260000Y-129440000D01*
X134500000Y-129110000D01*
X134740000Y-129440000D01*
G36*
X134740000Y-129440000D02*
G01*
X134260000Y-129440000D01*
X134500000Y-129110000D01*
X134740000Y-129440000D01*
G37*
%TO.C,D2*%
X132480000Y-122917500D02*
X135165000Y-122917500D01*
X135165000Y-120997500D02*
X132480000Y-120997500D01*
X135165000Y-122917500D02*
X135165000Y-120997500D01*
%TO.C,C4*%
X140665000Y-129638748D02*
X140665000Y-130161252D01*
X142135000Y-129638748D02*
X142135000Y-130161252D01*
%TO.C,R3*%
X125152500Y-133427064D02*
X125152500Y-132972936D01*
X126622500Y-133427064D02*
X126622500Y-132972936D01*
%TO.C,C12*%
X144040000Y-121340000D02*
X145240000Y-121340000D01*
X144040000Y-124795563D02*
X144040000Y-121340000D01*
X144490000Y-126350000D02*
X144990000Y-126350000D01*
X144740000Y-126600000D02*
X144740000Y-126100000D01*
X145104437Y-125860000D02*
X144040000Y-124795563D01*
X145104437Y-125860000D02*
X145240000Y-125860000D01*
X147495563Y-125860000D02*
X147360000Y-125860000D01*
X147495563Y-125860000D02*
X148560000Y-124795563D01*
X148560000Y-121340000D02*
X147360000Y-121340000D01*
X148560000Y-124795563D02*
X148560000Y-121340000D01*
%TO.C,R4*%
X138072936Y-128365000D02*
X138527064Y-128365000D01*
X138072936Y-129835000D02*
X138527064Y-129835000D01*
%TO.C,C2*%
X128765000Y-127388748D02*
X128765000Y-127911252D01*
X130235000Y-127388748D02*
X130235000Y-127911252D01*
%TO.C,RN2*%
X188670000Y-144225000D02*
X188670000Y-143425000D01*
X192110000Y-144225000D02*
X192110000Y-143425000D01*
%TO.C,C3*%
X121865000Y-132988748D02*
X121865000Y-133511252D01*
X123335000Y-132988748D02*
X123335000Y-133511252D01*
%TD*%
M02*
