M48
; DRILL file {KiCad 8.0.0} date 2024-06-13T14:54:32-0500
; FORMAT={-:-/ absolute / inch / decimal}
; #@! TF.CreationDate,2024-06-13T14:54:32-05:00
; #@! TF.GenerationSoftware,Kicad,Pcbnew,8.0.0
; #@! TF.FileFunction,MixedPlating,1,2
FMAT,2
INCH
; #@! TA.AperFunction,Plated,PTH,ViaDrill
T1C0.0118
; #@! TA.AperFunction,Plated,PTH,ComponentDrill
T2C0.0236
; #@! TA.AperFunction,Plated,PTH,ComponentDrill
T3C0.0256
; #@! TA.AperFunction,Plated,PTH,ComponentDrill
T4C0.0394
; #@! TA.AperFunction,Plated,PTH,ComponentDrill
T5C0.0551
; #@! TA.AperFunction,NonPlated,NPTH,ComponentDrill
T6C0.0256
; #@! TA.AperFunction,NonPlated,NPTH,ComponentDrill
T7C0.0941
; #@! TA.AperFunction,NonPlated,NPTH,ComponentDrill
T8C0.1358
%
G90
G05
T1
X5.1496Y-4.9882
X5.248Y-4.9882
X5.3273Y-5.1457
X5.4134Y-5.2362
X6.2362Y-5.2638
X6.2402Y-5.1378
X6.2441Y-4.9803
X6.2677Y-5.3425
X6.2835Y-4.9094
X6.2913Y-5.4488
X6.374Y-4.8228
X6.4016Y-4.752
X6.5157Y-4.9134
X6.5177Y-4.9449
X6.5197Y-4.9961
X6.6378Y-5.0157
X6.6496Y-4.5
X6.6535Y-4.4567
X6.6535Y-4.5945
X6.6535Y-4.6811
X6.6535Y-4.7795
X6.6535Y-5.4961
X6.7087Y-5.0118
X6.7323Y-4.7992
X6.7618Y-4.874
X6.7717Y-4.9331
X6.7835Y-4.9882
X6.802Y-4.7256
X6.8189Y-4.8354
X6.8346Y-5.0
X6.8583Y-4.9606
X6.8622Y-4.811
X6.8799Y-4.7083
X6.9055Y-4.7795
X6.9134Y-5.6693
X6.9291Y-4.7575
X6.9713Y-4.8358
X6.9764Y-4.9921
X7.0236Y-4.5906
X7.0236Y-4.6457
X7.0236Y-4.7047
X7.0358Y-4.7555
X7.0455Y-4.8045
X7.0709Y-4.3622
X7.0906Y-5.5394
X7.1024Y-5.437
X7.1142Y-5.3228
X7.1299Y-4.8268
X7.1535Y-4.8583
X7.1614Y-4.3583
X7.185Y-4.4134
X7.185Y-4.8031
X7.2047Y-4.7598
X7.2165Y-4.4606
X7.2165Y-5.7717
X7.252Y-4.7402
X7.2717Y-4.9528
X7.2717Y-5.5157
X7.2795Y-4.4567
X7.2795Y-4.7008
X7.3543Y-4.4567
X7.3858Y-5.6339
X7.3914Y-5.4189
X7.4055Y-4.7244
X7.4055Y-5.7874
X7.4134Y-4.5157
X7.4252Y-4.689
X7.4291Y-4.4764
X7.4291Y-5.4173
X7.437Y-5.2913
X7.4409Y-4.5669
X7.4449Y-4.6457
X7.4646Y-4.5315
X7.4685Y-4.6811
X7.4724Y-4.6063
X7.4764Y-5.5079
T3
X6.3386Y-5.3224
X6.3386Y-5.3724
X6.3386Y-5.4224
X6.3386Y-5.4724
T4
X5.7008Y-5.185
X6.0315Y-4.8557
X6.0315Y-4.9557
X6.3045Y-4.3518
X6.4045Y-4.3518
X6.5787Y-4.3504
X6.9764Y-4.9102
X7.0764Y-4.9102
X7.1764Y-4.9102
X7.2764Y-4.9102
T5
X4.6251Y-4.9315
X4.6251Y-5.1315
T6
X7.3888Y-5.2602
X7.3888Y-5.4878
T7
X7.3358Y-4.7441
T8
X4.8346Y-4.7441
X7.0079Y-5.374
T2
G00X7.3474Y-5.2039
M15
G01X7.3907Y-5.2039
M16
G05
G00X7.3474Y-5.5441
M15
G01X7.3907Y-5.5441
M16
G05
G00X7.5167Y-5.2039
M15
G01X7.5482Y-5.2039
M16
G05
G00X7.5167Y-5.5441
M15
G01X7.5482Y-5.5441
M16
G05
M30
