%TF.GenerationSoftware,KiCad,Pcbnew,8.0.0*%
%TF.CreationDate,2024-06-13T14:54:28-05:00*%
%TF.ProjectId,SolarCheap,536f6c61-7243-4686-9561-702e6b696361,rev?*%
%TF.SameCoordinates,Original*%
%TF.FileFunction,Copper,L2,Bot*%
%TF.FilePolarity,Positive*%
%FSLAX46Y46*%
G04 Gerber Fmt 4.6, Leading zero omitted, Abs format (unit mm)*
G04 Created by KiCad (PCBNEW 8.0.0) date 2024-06-13 14:54:28*
%MOMM*%
%LPD*%
G01*
G04 APERTURE LIST*
G04 Aperture macros list*
%AMRoundRect*
0 Rectangle with rounded corners*
0 $1 Rounding radius*
0 $2 $3 $4 $5 $6 $7 $8 $9 X,Y pos of 4 corners*
0 Add a 4 corners polygon primitive as box body*
4,1,4,$2,$3,$4,$5,$6,$7,$8,$9,$2,$3,0*
0 Add four circle primitives for the rounded corners*
1,1,$1+$1,$2,$3*
1,1,$1+$1,$4,$5*
1,1,$1+$1,$6,$7*
1,1,$1+$1,$8,$9*
0 Add four rect primitives between the rounded corners*
20,1,$1+$1,$2,$3,$4,$5,0*
20,1,$1+$1,$4,$5,$6,$7,0*
20,1,$1+$1,$6,$7,$8,$9,0*
20,1,$1+$1,$8,$9,$2,$3,0*%
G04 Aperture macros list end*
%TA.AperFunction,ComponentPad*%
%ADD10R,1.700000X1.700000*%
%TD*%
%TA.AperFunction,ComponentPad*%
%ADD11O,1.700000X1.700000*%
%TD*%
%TA.AperFunction,ComponentPad*%
%ADD12O,2.100000X1.000000*%
%TD*%
%TA.AperFunction,ComponentPad*%
%ADD13O,1.800000X1.000000*%
%TD*%
%TA.AperFunction,ComponentPad*%
%ADD14RoundRect,0.249999X-1.550001X0.790001X-1.550001X-0.790001X1.550001X-0.790001X1.550001X0.790001X0*%
%TD*%
%TA.AperFunction,ComponentPad*%
%ADD15O,3.600000X2.080000*%
%TD*%
%TA.AperFunction,ComponentPad*%
%ADD16R,1.000000X1.000000*%
%TD*%
%TA.AperFunction,ComponentPad*%
%ADD17O,1.000000X1.000000*%
%TD*%
%TA.AperFunction,SMDPad,CuDef*%
%ADD18R,7.340000X6.350000*%
%TD*%
%TA.AperFunction,ViaPad*%
%ADD19C,0.600000*%
%TD*%
%TA.AperFunction,Conductor*%
%ADD20C,0.400000*%
%TD*%
%TA.AperFunction,Conductor*%
%ADD21C,0.200000*%
%TD*%
G04 APERTURE END LIST*
D10*
%TO.P,J5,1,Pin_1*%
%TO.N,+BATT*%
X153200000Y-125875000D03*
D11*
%TO.P,J5,2,Pin_2*%
%TO.N,+5V*%
X153200000Y-123335000D03*
%TD*%
D12*
%TO.P,J3,S1,SHIELD*%
%TO.N,VSS*%
X187175000Y-140820000D03*
D13*
X191325000Y-140820000D03*
D12*
X187175000Y-132180000D03*
D13*
X191325000Y-132180000D03*
%TD*%
D10*
%TO.P,J2,1,Pin_1*%
%TO.N,+BATT*%
X144800000Y-131700000D03*
%TD*%
%TO.P,J6,1,Pin_1*%
%TO.N,GPS_TX*%
X162675000Y-110535000D03*
D11*
%TO.P,J6,2,Pin_2*%
%TO.N,GPS_RX*%
X160135000Y-110535000D03*
%TD*%
D14*
%TO.P,J1,1,Pin_1*%
%TO.N,Net-(J1-Pin_1)*%
X117477500Y-125260000D03*
D15*
%TO.P,J1,2,Pin_2*%
%TO.N,VSS*%
X117477500Y-130340000D03*
%TD*%
D10*
%TO.P,J4,1,Pin_1*%
%TO.N,Net-(J4-Pin_1)*%
X167100000Y-110500000D03*
%TD*%
%TO.P,J7,1,Pin_1*%
%TO.N,VCC*%
X177200000Y-124720000D03*
D11*
%TO.P,J7,2,Pin_2*%
%TO.N,GPS_TX*%
X179740000Y-124720000D03*
%TO.P,J7,3,Pin_3*%
%TO.N,GPS_RX*%
X182280000Y-124720000D03*
%TO.P,J7,4,Pin_4*%
%TO.N,VSS*%
X184820000Y-124720000D03*
%TD*%
D16*
%TO.P,J8,1,Pin_1*%
%TO.N,GPIO5*%
X161000000Y-135190000D03*
D17*
%TO.P,J8,2,Pin_2*%
%TO.N,GPIO6*%
X161000000Y-136460000D03*
%TO.P,J8,3,Pin_3*%
%TO.N,GPIO7*%
X161000000Y-137730000D03*
%TO.P,J8,4,Pin_4*%
%TO.N,VSS*%
X161000000Y-139000000D03*
%TD*%
D18*
%TO.P,BT1,1,+*%
%TO.N,+BATT*%
X189730000Y-128500000D03*
%TO.P,BT1,2,-*%
%TO.N,VSS*%
X111070000Y-128500000D03*
%TD*%
D19*
%TO.N,VSS*%
X158600000Y-126500000D03*
X177200000Y-126800000D03*
X161900000Y-122500000D03*
X188700000Y-113700000D03*
X169000000Y-118900000D03*
X181700000Y-123400000D03*
X177070190Y-122829810D03*
X178400000Y-119500000D03*
X183300000Y-113300000D03*
X189700000Y-118900000D03*
X180700000Y-135200000D03*
X173600000Y-127000000D03*
X179600000Y-110800000D03*
X189000000Y-116000000D03*
X170400000Y-127300000D03*
X168600000Y-127400000D03*
X180400000Y-138100000D03*
X162600000Y-120700000D03*
X158400000Y-133700000D03*
X188600000Y-119100000D03*
X178709620Y-120790380D03*
X181100000Y-122600000D03*
X184200000Y-120400000D03*
X184700000Y-125800000D03*
X182500000Y-112100000D03*
X184700000Y-140100000D03*
X178400000Y-118000000D03*
X189800000Y-117000000D03*
X174300000Y-122200000D03*
X178400000Y-116600000D03*
X159800000Y-138400000D03*
X183000000Y-120900000D03*
X182500000Y-122000000D03*
X181900000Y-110700000D03*
X183300000Y-146600000D03*
X158500000Y-130500000D03*
X189100000Y-118000000D03*
X159200000Y-135700000D03*
X159600000Y-124700000D03*
X187600000Y-143100000D03*
X175600000Y-144000000D03*
X184900000Y-119400000D03*
X188300000Y-114700000D03*
X184900000Y-113200000D03*
X169000000Y-121400000D03*
X169000000Y-139600000D03*
X180100000Y-140700000D03*
X188100000Y-120000000D03*
X186800000Y-113200000D03*
X189600000Y-115100000D03*
X188100000Y-147000000D03*
X178954720Y-122035480D03*
%TO.N,Net-(J1-Pin_1)*%
X130800000Y-126700000D03*
X135312500Y-130700000D03*
X137500000Y-133000000D03*
X133300000Y-126700000D03*
%TO.N,VCC*%
X173201028Y-122819305D03*
%TO.N,+5V*%
X188700000Y-137600000D03*
X188900000Y-134400000D03*
%TO.N,Net-(J3-CC1)*%
X187740380Y-137640380D03*
X189900000Y-139900000D03*
%TO.N,SDA*%
X165500000Y-124800000D03*
X171749694Y-123800305D03*
%TO.N,SCL*%
X172769983Y-120030017D03*
X174200000Y-126000000D03*
X165550000Y-125600000D03*
X172000000Y-125300000D03*
%TO.N,GPS_En*%
X169000000Y-116700000D03*
X165600000Y-126900000D03*
%TO.N,GPS_TX*%
X169000000Y-113200000D03*
X175400000Y-121400000D03*
%TO.N,Reset*%
X172300000Y-126700000D03*
X171000000Y-121900000D03*
%TO.N,GPS_RX*%
X168900000Y-114300000D03*
X176000000Y-120840380D03*
X174750000Y-119590380D03*
%TD*%
D20*
%TO.N,+BATT*%
X153200000Y-125875000D02*
X155825000Y-128500000D01*
X155825000Y-128500000D02*
X189730000Y-128500000D01*
%TO.N,Net-(J1-Pin_1)*%
X137500000Y-133000000D02*
X135312500Y-130812500D01*
X130800000Y-126700000D02*
X133300000Y-126700000D01*
X135312500Y-130812500D02*
X135312500Y-130700000D01*
D21*
%TO.N,VCC*%
X177200000Y-124720000D02*
X175101723Y-124720000D01*
X175101723Y-124720000D02*
X173201028Y-122819305D01*
%TO.N,+5V*%
X151765000Y-123335000D02*
X153200000Y-123335000D01*
X150400000Y-129800000D02*
X150400000Y-124700000D01*
X190000000Y-145600000D02*
X180100000Y-145600000D01*
X192700000Y-142900000D02*
X190000000Y-145600000D01*
X150400000Y-124700000D02*
X151765000Y-123335000D01*
X188700000Y-137600000D02*
X188800000Y-137500000D01*
X188700000Y-137600000D02*
X188900000Y-137400000D01*
X166000000Y-131500000D02*
X152100000Y-131500000D01*
X188900000Y-137400000D02*
X188900000Y-134400000D01*
X192700000Y-139800000D02*
X192700000Y-142900000D01*
X190400000Y-137500000D02*
X192700000Y-139800000D01*
X152100000Y-131500000D02*
X150400000Y-129800000D01*
X188800000Y-137500000D02*
X190400000Y-137500000D01*
X180100000Y-145600000D02*
X166000000Y-131500000D01*
%TO.N,Net-(J3-CC1)*%
X189900000Y-139900000D02*
X189900000Y-139800000D01*
X189900000Y-139800000D02*
X187740380Y-137640380D01*
%TO.N,SDA*%
X171549389Y-123600000D02*
X171749694Y-123800305D01*
X165500000Y-124800000D02*
X166700000Y-123600000D01*
X166700000Y-123600000D02*
X171549389Y-123600000D01*
%TO.N,SCL*%
X172000000Y-125300000D02*
X171700000Y-125600000D01*
X174200000Y-124737516D02*
X172551028Y-123088544D01*
X172551028Y-120248972D02*
X172769983Y-120030017D01*
X174200000Y-126000000D02*
X174200000Y-124737516D01*
X171700000Y-125600000D02*
X165550000Y-125600000D01*
X172551028Y-123088544D02*
X172551028Y-120248972D01*
%TO.N,GPS_En*%
X165600000Y-126900000D02*
X164900000Y-126200000D01*
X164900000Y-126200000D02*
X164900000Y-120800000D01*
X164900000Y-120800000D02*
X169000000Y-116700000D01*
%TO.N,GPS_TX*%
X176800951Y-123479810D02*
X175400000Y-122078859D01*
X178499810Y-123479810D02*
X176800951Y-123479810D01*
X175400000Y-121400000D02*
X175400000Y-117200000D01*
X175400000Y-122078859D02*
X175400000Y-121400000D01*
X165340000Y-113200000D02*
X169000000Y-113200000D01*
X179740000Y-124720000D02*
X178499810Y-123479810D01*
X171400000Y-113200000D02*
X169000000Y-113200000D01*
X175400000Y-117200000D02*
X171400000Y-113200000D01*
X162675000Y-110535000D02*
X165340000Y-113200000D01*
%TO.N,Reset*%
X171000000Y-122131372D02*
X171000000Y-121900000D01*
X172600000Y-126400000D02*
X172600000Y-123731372D01*
X172300000Y-126700000D02*
X172600000Y-126400000D01*
X172600000Y-123731372D02*
X171000000Y-122131372D01*
%TO.N,GPS_RX*%
X174750000Y-118050000D02*
X174750000Y-119590380D01*
X178112539Y-122952919D02*
X176000000Y-120840380D01*
X182280000Y-124720000D02*
X181366346Y-124720000D01*
X179599265Y-122952919D02*
X178112539Y-122952919D01*
X168900000Y-114300000D02*
X171000000Y-114300000D01*
X181366346Y-124720000D02*
X179599265Y-122952919D01*
X163600000Y-114000000D02*
X168600000Y-114000000D01*
X168600000Y-114000000D02*
X168900000Y-114300000D01*
X171000000Y-114300000D02*
X174750000Y-118050000D01*
X160135000Y-110535000D02*
X163600000Y-114000000D01*
%TD*%
%TA.AperFunction,Conductor*%
%TO.N,VSS*%
G36*
X188700000Y-122400000D02*
G01*
X182100000Y-122000000D01*
X178800000Y-122100000D01*
X178800000Y-121900000D01*
X182200000Y-121900000D01*
X182360779Y-120613768D01*
X184884500Y-120613768D01*
X184920093Y-120838490D01*
X184990400Y-121054876D01*
X184990401Y-121054879D01*
X185093697Y-121257607D01*
X185227434Y-121441680D01*
X185388320Y-121602566D01*
X185572393Y-121736303D01*
X185671825Y-121786966D01*
X185775120Y-121839598D01*
X185775123Y-121839599D01*
X185883316Y-121874752D01*
X185991511Y-121909907D01*
X186095591Y-121926391D01*
X186216232Y-121945500D01*
X186216237Y-121945500D01*
X186443768Y-121945500D01*
X186552710Y-121928244D01*
X186668489Y-121909907D01*
X186884879Y-121839598D01*
X187087607Y-121736303D01*
X187271680Y-121602566D01*
X187432566Y-121441680D01*
X187566303Y-121257607D01*
X187669598Y-121054879D01*
X187739907Y-120838489D01*
X187758244Y-120722710D01*
X187775500Y-120613768D01*
X187775500Y-120386231D01*
X187754793Y-120255499D01*
X187739907Y-120161511D01*
X187669598Y-119945121D01*
X187669598Y-119945120D01*
X187566302Y-119742392D01*
X187432566Y-119558320D01*
X187271680Y-119397434D01*
X187087607Y-119263697D01*
X186884879Y-119160401D01*
X186884876Y-119160400D01*
X186668490Y-119090093D01*
X186443768Y-119054500D01*
X186443763Y-119054500D01*
X186216237Y-119054500D01*
X186216232Y-119054500D01*
X185991509Y-119090093D01*
X185775123Y-119160400D01*
X185775120Y-119160401D01*
X185572392Y-119263697D01*
X185522426Y-119300000D01*
X185388320Y-119397434D01*
X185388318Y-119397436D01*
X185388317Y-119397436D01*
X185227436Y-119558317D01*
X185227436Y-119558318D01*
X185227434Y-119558320D01*
X185169998Y-119637372D01*
X185093697Y-119742392D01*
X184990401Y-119945120D01*
X184990400Y-119945123D01*
X184920093Y-120161509D01*
X184884500Y-120386231D01*
X184884500Y-120613768D01*
X182360779Y-120613768D01*
X182500000Y-119500000D01*
X183200000Y-119500000D01*
X183200000Y-117424000D01*
X183219685Y-117356961D01*
X183272489Y-117311206D01*
X183324000Y-117300000D01*
X184770728Y-117300000D01*
X184826179Y-117313089D01*
X185200000Y-117500000D01*
X186299999Y-117500000D01*
X186300000Y-117500000D01*
X186700000Y-117200000D01*
X186700000Y-116000000D01*
X186700000Y-115999999D01*
X186500000Y-115700000D01*
X185200000Y-115700000D01*
X184826181Y-115886909D01*
X184770728Y-115900000D01*
X181500000Y-115900000D01*
X182000000Y-113700000D01*
X188500000Y-113500000D01*
X188700000Y-122400000D01*
G37*
%TD.AperFunction*%
%TD*%
%TA.AperFunction,Conductor*%
%TO.N,VSS*%
G36*
X181500000Y-118870728D02*
G01*
X181486909Y-118926182D01*
X181334273Y-119231454D01*
X181286686Y-119282613D01*
X181223364Y-119300000D01*
X179200000Y-119300000D01*
X179200000Y-120500000D01*
X181500000Y-120500000D01*
X181500000Y-120151362D01*
X181519685Y-120084323D01*
X181536319Y-120063681D01*
X182063681Y-119536319D01*
X182125004Y-119502834D01*
X182151362Y-119500000D01*
X182500000Y-119500000D01*
X182200000Y-121900000D01*
X178600000Y-121900000D01*
X178600000Y-118200000D01*
X181500000Y-118200000D01*
X181500000Y-118870728D01*
G37*
%TD.AperFunction*%
%TD*%
%TA.AperFunction,Conductor*%
%TO.N,VSS*%
G36*
X181444225Y-119011551D02*
G01*
X181352670Y-119194661D01*
X181352667Y-119194667D01*
X181352666Y-119194668D01*
X181486909Y-118926182D01*
X181444225Y-119011551D01*
G37*
%TD.AperFunction*%
%TA.AperFunction,Conductor*%
G36*
X184826181Y-117313090D02*
G01*
X185200000Y-117500000D01*
X184826179Y-117313089D01*
X184826181Y-117313090D01*
G37*
%TD.AperFunction*%
%TA.AperFunction,Conductor*%
G36*
X190003032Y-108500648D02*
G01*
X190336929Y-108517052D01*
X190349037Y-108518245D01*
X190430656Y-108530352D01*
X190676699Y-108566849D01*
X190688617Y-108569219D01*
X191009951Y-108649709D01*
X191021588Y-108653240D01*
X191092806Y-108678722D01*
X191333467Y-108764832D01*
X191344688Y-108769479D01*
X191644163Y-108911120D01*
X191654871Y-108916844D01*
X191938988Y-109087137D01*
X191949103Y-109093895D01*
X192174550Y-109261098D01*
X192215170Y-109291224D01*
X192224576Y-109298944D01*
X192470013Y-109521395D01*
X192478604Y-109529986D01*
X192575711Y-109637127D01*
X192701055Y-109775423D01*
X192708775Y-109784829D01*
X192906102Y-110050893D01*
X192912862Y-110061011D01*
X193041776Y-110276092D01*
X193083148Y-110345116D01*
X193088883Y-110355844D01*
X193173617Y-110535000D01*
X193230514Y-110655297D01*
X193235170Y-110666540D01*
X193346759Y-110978411D01*
X193350292Y-110990055D01*
X193430777Y-111311369D01*
X193433151Y-111323305D01*
X193481754Y-111650962D01*
X193482947Y-111663071D01*
X193499351Y-111996966D01*
X193499500Y-112003051D01*
X193499500Y-124700500D01*
X193479815Y-124767539D01*
X193427011Y-124813294D01*
X193375500Y-124824500D01*
X186012129Y-124824500D01*
X186012123Y-124824501D01*
X185952516Y-124830908D01*
X185817671Y-124881202D01*
X185817668Y-124881204D01*
X185789125Y-124902572D01*
X185732092Y-124945266D01*
X185666629Y-124969684D01*
X185657782Y-124970000D01*
X185253012Y-124970000D01*
X185285925Y-124912993D01*
X185320000Y-124785826D01*
X185320000Y-124654174D01*
X185285925Y-124527007D01*
X185253012Y-124470000D01*
X186150636Y-124470000D01*
X186150635Y-124469999D01*
X186093432Y-124256513D01*
X186093429Y-124256507D01*
X185993600Y-124042422D01*
X185993599Y-124042420D01*
X185858113Y-123848926D01*
X185858108Y-123848920D01*
X185691082Y-123681894D01*
X185497578Y-123546399D01*
X185283492Y-123446570D01*
X185283486Y-123446567D01*
X185070000Y-123389364D01*
X185070000Y-124286988D01*
X185012993Y-124254075D01*
X184885826Y-124220000D01*
X184754174Y-124220000D01*
X184627007Y-124254075D01*
X184570000Y-124286988D01*
X184570000Y-123389364D01*
X184569999Y-123389364D01*
X184356513Y-123446567D01*
X184356507Y-123446570D01*
X184142422Y-123546399D01*
X184142420Y-123546400D01*
X183948926Y-123681886D01*
X183948920Y-123681891D01*
X183781891Y-123848920D01*
X183781890Y-123848922D01*
X183651880Y-124034595D01*
X183597303Y-124078219D01*
X183527804Y-124085412D01*
X183465450Y-124053890D01*
X183448730Y-124034594D01*
X183318494Y-123848597D01*
X183151402Y-123681506D01*
X183151395Y-123681501D01*
X182957834Y-123545967D01*
X182957830Y-123545965D01*
X182864467Y-123502429D01*
X182743663Y-123446097D01*
X182743659Y-123446096D01*
X182743655Y-123446094D01*
X182515413Y-123384938D01*
X182515403Y-123384936D01*
X182280001Y-123364341D01*
X182279999Y-123364341D01*
X182044596Y-123384936D01*
X182044586Y-123384938D01*
X181816344Y-123446094D01*
X181816335Y-123446098D01*
X181602171Y-123545964D01*
X181602169Y-123545965D01*
X181408596Y-123681506D01*
X181380519Y-123709582D01*
X181319195Y-123743065D01*
X181249504Y-123738078D01*
X181205160Y-123709579D01*
X180086855Y-122591274D01*
X180086853Y-122591271D01*
X179967982Y-122472400D01*
X179967981Y-122472399D01*
X179881169Y-122422279D01*
X179881169Y-122422278D01*
X179881165Y-122422277D01*
X179831050Y-122393342D01*
X179678322Y-122352418D01*
X179520208Y-122352418D01*
X179512612Y-122352418D01*
X179512596Y-122352419D01*
X178412636Y-122352419D01*
X178345597Y-122332734D01*
X178324955Y-122316100D01*
X177908855Y-121900000D01*
X178600000Y-121900000D01*
X178800000Y-121900000D01*
X178800000Y-122100000D01*
X182100000Y-122000000D01*
X188700000Y-122400000D01*
X188500000Y-113500000D01*
X182000000Y-113700000D01*
X181500000Y-115900000D01*
X179300000Y-115900000D01*
X179300000Y-117300000D01*
X181376000Y-117300000D01*
X181443039Y-117319685D01*
X181488794Y-117372489D01*
X181500000Y-117424000D01*
X181500000Y-118200000D01*
X178600000Y-118200000D01*
X178600000Y-121900000D01*
X177908855Y-121900000D01*
X176830700Y-120821845D01*
X176797215Y-120760522D01*
X176795163Y-120748066D01*
X176785368Y-120661125D01*
X176725789Y-120490858D01*
X176629816Y-120338118D01*
X176502262Y-120210564D01*
X176437570Y-120169915D01*
X176349521Y-120114590D01*
X176179249Y-120055010D01*
X176110616Y-120047277D01*
X176046202Y-120020210D01*
X176006647Y-119962615D01*
X176000500Y-119924057D01*
X176000500Y-117120945D01*
X176000499Y-117120941D01*
X175969306Y-117004521D01*
X175969306Y-117004520D01*
X175959578Y-116968217D01*
X175959577Y-116968216D01*
X175959577Y-116968215D01*
X175930639Y-116918095D01*
X175880520Y-116831284D01*
X175768716Y-116719480D01*
X175768715Y-116719479D01*
X175764385Y-116715149D01*
X175764374Y-116715139D01*
X171887590Y-112838355D01*
X171887588Y-112838352D01*
X171768717Y-112719481D01*
X171768709Y-112719475D01*
X171666936Y-112660717D01*
X171666934Y-112660716D01*
X171631790Y-112640425D01*
X171631789Y-112640424D01*
X171619263Y-112637067D01*
X171479057Y-112599499D01*
X171320943Y-112599499D01*
X171313347Y-112599499D01*
X171313331Y-112599500D01*
X169582412Y-112599500D01*
X169515373Y-112579815D01*
X169505097Y-112572445D01*
X169502263Y-112570185D01*
X169502262Y-112570184D01*
X169445496Y-112534515D01*
X169349523Y-112474211D01*
X169179254Y-112414631D01*
X169179249Y-112414630D01*
X169000004Y-112394435D01*
X168999996Y-112394435D01*
X168820750Y-112414630D01*
X168820745Y-112414631D01*
X168650476Y-112474211D01*
X168497736Y-112570185D01*
X168494903Y-112572445D01*
X168492724Y-112573334D01*
X168491842Y-112573889D01*
X168491744Y-112573734D01*
X168430217Y-112598855D01*
X168417588Y-112599500D01*
X165640097Y-112599500D01*
X165573058Y-112579815D01*
X165552416Y-112563181D01*
X164387105Y-111397870D01*
X165749500Y-111397870D01*
X165749501Y-111397876D01*
X165755908Y-111457483D01*
X165806202Y-111592328D01*
X165806206Y-111592335D01*
X165892452Y-111707544D01*
X165892455Y-111707547D01*
X166007664Y-111793793D01*
X166007671Y-111793797D01*
X166142517Y-111844091D01*
X166142516Y-111844091D01*
X166149444Y-111844835D01*
X166202127Y-111850500D01*
X167997872Y-111850499D01*
X168057483Y-111844091D01*
X168192331Y-111793796D01*
X168307546Y-111707546D01*
X168393796Y-111592331D01*
X168444091Y-111457483D01*
X168450500Y-111397873D01*
X168450499Y-109602128D01*
X168444091Y-109542517D01*
X168436210Y-109521388D01*
X168393797Y-109407671D01*
X168393793Y-109407664D01*
X168307547Y-109292455D01*
X168307544Y-109292452D01*
X168192335Y-109206206D01*
X168192328Y-109206202D01*
X168057482Y-109155908D01*
X168057483Y-109155908D01*
X167997883Y-109149501D01*
X167997881Y-109149500D01*
X167997873Y-109149500D01*
X167997864Y-109149500D01*
X166202129Y-109149500D01*
X166202123Y-109149501D01*
X166142516Y-109155908D01*
X166007671Y-109206202D01*
X166007664Y-109206206D01*
X165892455Y-109292452D01*
X165892452Y-109292455D01*
X165806206Y-109407664D01*
X165806202Y-109407671D01*
X165755908Y-109542517D01*
X165751924Y-109579579D01*
X165749501Y-109602123D01*
X165749500Y-109602135D01*
X165749500Y-111397870D01*
X164387105Y-111397870D01*
X164061818Y-111072583D01*
X164028333Y-111011260D01*
X164025499Y-110984902D01*
X164025499Y-109637129D01*
X164025498Y-109637123D01*
X164021736Y-109602128D01*
X164019091Y-109577517D01*
X164017810Y-109574083D01*
X163968797Y-109442671D01*
X163968793Y-109442664D01*
X163882547Y-109327455D01*
X163882544Y-109327452D01*
X163767335Y-109241206D01*
X163767328Y-109241202D01*
X163632482Y-109190908D01*
X163632483Y-109190908D01*
X163572883Y-109184501D01*
X163572881Y-109184500D01*
X163572873Y-109184500D01*
X163572864Y-109184500D01*
X161777129Y-109184500D01*
X161777123Y-109184501D01*
X161717516Y-109190908D01*
X161582671Y-109241202D01*
X161582664Y-109241206D01*
X161467455Y-109327452D01*
X161467452Y-109327455D01*
X161381206Y-109442664D01*
X161381203Y-109442669D01*
X161332189Y-109574083D01*
X161290317Y-109630016D01*
X161224853Y-109654433D01*
X161156580Y-109639581D01*
X161128326Y-109618430D01*
X161006402Y-109496506D01*
X161006395Y-109496501D01*
X160812834Y-109360967D01*
X160812830Y-109360965D01*
X160812828Y-109360964D01*
X160598663Y-109261097D01*
X160598659Y-109261096D01*
X160598655Y-109261094D01*
X160370413Y-109199938D01*
X160370403Y-109199936D01*
X160135001Y-109179341D01*
X160134999Y-109179341D01*
X159899596Y-109199936D01*
X159899586Y-109199938D01*
X159671344Y-109261094D01*
X159671335Y-109261098D01*
X159457171Y-109360964D01*
X159457169Y-109360965D01*
X159263597Y-109496505D01*
X159096505Y-109663597D01*
X158960965Y-109857169D01*
X158960964Y-109857171D01*
X158861098Y-110071335D01*
X158861094Y-110071344D01*
X158799938Y-110299586D01*
X158799936Y-110299596D01*
X158779341Y-110534999D01*
X158779341Y-110535000D01*
X158799936Y-110770403D01*
X158799938Y-110770413D01*
X158861094Y-110998655D01*
X158861096Y-110998659D01*
X158861097Y-110998663D01*
X158878631Y-111036264D01*
X158960965Y-111212830D01*
X158960967Y-111212834D01*
X159069281Y-111367521D01*
X159096505Y-111406401D01*
X159263599Y-111573495D01*
X159360384Y-111641265D01*
X159457165Y-111709032D01*
X159457167Y-111709033D01*
X159457170Y-111709035D01*
X159671337Y-111808903D01*
X159899592Y-111870063D01*
X160079634Y-111885815D01*
X160134999Y-111890659D01*
X160135000Y-111890659D01*
X160135001Y-111890659D01*
X160190366Y-111885815D01*
X160370408Y-111870063D01*
X160498757Y-111835672D01*
X160568606Y-111837335D01*
X160618531Y-111867766D01*
X163115139Y-114364374D01*
X163115149Y-114364385D01*
X163119479Y-114368715D01*
X163119480Y-114368716D01*
X163231284Y-114480520D01*
X163231286Y-114480521D01*
X163231290Y-114480524D01*
X163295073Y-114517349D01*
X163295077Y-114517350D01*
X163295078Y-114517351D01*
X163368215Y-114559577D01*
X163520943Y-114600501D01*
X163520946Y-114600501D01*
X163686653Y-114600501D01*
X163686669Y-114600500D01*
X168074876Y-114600500D01*
X168141915Y-114620185D01*
X168179869Y-114658527D01*
X168270184Y-114802262D01*
X168397738Y-114929816D01*
X168550478Y-115025789D01*
X168720745Y-115085368D01*
X168720750Y-115085369D01*
X168899996Y-115105565D01*
X168900000Y-115105565D01*
X168900004Y-115105565D01*
X169079249Y-115085369D01*
X169079252Y-115085368D01*
X169079255Y-115085368D01*
X169249522Y-115025789D01*
X169402262Y-114929816D01*
X169402267Y-114929810D01*
X169405097Y-114927555D01*
X169407275Y-114926665D01*
X169408158Y-114926111D01*
X169408255Y-114926265D01*
X169469783Y-114901145D01*
X169482412Y-114900500D01*
X170699903Y-114900500D01*
X170766942Y-114920185D01*
X170787584Y-114936819D01*
X174113181Y-118262416D01*
X174146666Y-118323739D01*
X174149500Y-118350097D01*
X174149500Y-119007967D01*
X174129815Y-119075006D01*
X174122450Y-119085276D01*
X174120186Y-119088114D01*
X174024211Y-119240856D01*
X173964631Y-119411125D01*
X173964630Y-119411130D01*
X173944435Y-119590376D01*
X173944435Y-119590383D01*
X173964630Y-119769629D01*
X173964631Y-119769634D01*
X174024211Y-119939903D01*
X174105135Y-120068692D01*
X174120184Y-120092642D01*
X174247738Y-120220196D01*
X174400478Y-120316169D01*
X174463202Y-120338117D01*
X174570745Y-120375748D01*
X174570749Y-120375749D01*
X174661607Y-120385985D01*
X174689383Y-120389115D01*
X174753797Y-120416181D01*
X174793352Y-120473775D01*
X174799500Y-120512335D01*
X174799500Y-120817587D01*
X174779815Y-120884626D01*
X174772450Y-120894896D01*
X174770186Y-120897734D01*
X174674211Y-121050476D01*
X174614631Y-121220745D01*
X174614630Y-121220750D01*
X174594435Y-121399996D01*
X174594435Y-121400003D01*
X174614630Y-121579249D01*
X174614631Y-121579254D01*
X174674211Y-121749523D01*
X174730810Y-121839598D01*
X174768760Y-121899996D01*
X174770185Y-121902263D01*
X174772445Y-121905097D01*
X174773334Y-121907275D01*
X174773889Y-121908158D01*
X174773734Y-121908255D01*
X174798855Y-121969783D01*
X174799500Y-121982412D01*
X174799500Y-121992189D01*
X174799499Y-121992207D01*
X174799499Y-122157913D01*
X174799498Y-122157913D01*
X174840424Y-122310648D01*
X174840425Y-122310649D01*
X174864541Y-122352418D01*
X174864542Y-122352420D01*
X174919475Y-122447568D01*
X174919481Y-122447576D01*
X175038349Y-122566444D01*
X175038355Y-122566449D01*
X175913012Y-123441106D01*
X175946497Y-123502429D01*
X175941513Y-123572121D01*
X175924600Y-123603093D01*
X175906204Y-123627669D01*
X175906202Y-123627672D01*
X175855908Y-123762517D01*
X175849501Y-123822116D01*
X175849500Y-123822135D01*
X175849500Y-123995500D01*
X175829815Y-124062539D01*
X175777011Y-124108294D01*
X175725500Y-124119500D01*
X175401821Y-124119500D01*
X175334782Y-124099815D01*
X175314140Y-124083181D01*
X174031728Y-122800770D01*
X173998243Y-122739447D01*
X173996191Y-122726991D01*
X173986396Y-122640050D01*
X173926817Y-122469783D01*
X173830844Y-122317043D01*
X173703290Y-122189489D01*
X173657898Y-122160967D01*
X173550551Y-122093516D01*
X173380282Y-122033936D01*
X173380278Y-122033935D01*
X173261644Y-122020569D01*
X173197230Y-121993502D01*
X173157675Y-121935908D01*
X173151528Y-121897349D01*
X173151528Y-120804216D01*
X173171213Y-120737177D01*
X173209557Y-120699222D01*
X173272245Y-120659833D01*
X173399799Y-120532279D01*
X173495772Y-120379539D01*
X173555351Y-120209272D01*
X173555352Y-120209266D01*
X173575548Y-120030020D01*
X173575548Y-120030013D01*
X173555352Y-119850767D01*
X173555351Y-119850762D01*
X173495771Y-119680493D01*
X173399798Y-119527754D01*
X173272245Y-119400201D01*
X173119506Y-119304228D01*
X172949237Y-119244648D01*
X172949232Y-119244647D01*
X172769987Y-119224452D01*
X172769979Y-119224452D01*
X172590733Y-119244647D01*
X172590728Y-119244648D01*
X172420459Y-119304228D01*
X172267720Y-119400201D01*
X172140167Y-119527754D01*
X172044194Y-119680493D01*
X171984614Y-119850762D01*
X171984613Y-119850767D01*
X171964418Y-120030013D01*
X171964418Y-120030020D01*
X171968775Y-120068692D01*
X171965330Y-120114667D01*
X171950527Y-120169913D01*
X171950527Y-120338018D01*
X171950528Y-120338031D01*
X171950528Y-121477733D01*
X171930843Y-121544772D01*
X171878039Y-121590527D01*
X171808881Y-121600471D01*
X171745325Y-121571446D01*
X171721535Y-121543706D01*
X171629817Y-121397739D01*
X171502262Y-121270184D01*
X171349523Y-121174211D01*
X171179254Y-121114631D01*
X171179249Y-121114630D01*
X171000004Y-121094435D01*
X170999996Y-121094435D01*
X170820750Y-121114630D01*
X170820745Y-121114631D01*
X170650476Y-121174211D01*
X170497737Y-121270184D01*
X170370184Y-121397737D01*
X170274211Y-121550476D01*
X170214631Y-121720745D01*
X170214630Y-121720750D01*
X170194435Y-121899996D01*
X170194435Y-121900003D01*
X170214630Y-122079249D01*
X170214631Y-122079254D01*
X170274211Y-122249523D01*
X170338866Y-122352420D01*
X170370184Y-122402262D01*
X170497738Y-122529816D01*
X170624401Y-122609403D01*
X170646108Y-122626715D01*
X170807212Y-122787819D01*
X170840697Y-122849142D01*
X170835713Y-122918834D01*
X170793841Y-122974767D01*
X170728377Y-122999184D01*
X170719531Y-122999500D01*
X166779057Y-122999500D01*
X166620942Y-122999500D01*
X166468215Y-123040423D01*
X166468214Y-123040423D01*
X166468212Y-123040424D01*
X166468209Y-123040425D01*
X166418096Y-123069359D01*
X166418095Y-123069360D01*
X166374689Y-123094420D01*
X166331285Y-123119479D01*
X166331282Y-123119481D01*
X165712181Y-123738583D01*
X165650858Y-123772068D01*
X165581166Y-123767084D01*
X165525233Y-123725212D01*
X165500816Y-123659748D01*
X165500500Y-123650902D01*
X165500500Y-121100097D01*
X165520185Y-121033058D01*
X165536819Y-121012416D01*
X167266622Y-119282613D01*
X169018536Y-117530698D01*
X169079857Y-117497215D01*
X169092310Y-117495163D01*
X169179255Y-117485368D01*
X169349522Y-117425789D01*
X169502262Y-117329816D01*
X169629816Y-117202262D01*
X169725789Y-117049522D01*
X169785368Y-116879255D01*
X169803370Y-116719480D01*
X169805565Y-116700003D01*
X169805565Y-116699996D01*
X169785369Y-116520750D01*
X169785368Y-116520745D01*
X169725788Y-116350476D01*
X169629815Y-116197737D01*
X169502262Y-116070184D01*
X169349523Y-115974211D01*
X169179254Y-115914631D01*
X169179249Y-115914630D01*
X169000004Y-115894435D01*
X168999996Y-115894435D01*
X168820750Y-115914630D01*
X168820745Y-115914631D01*
X168650476Y-115974211D01*
X168497737Y-116070184D01*
X168370184Y-116197737D01*
X168274210Y-116350478D01*
X168214630Y-116520750D01*
X168204837Y-116607667D01*
X168177770Y-116672081D01*
X168169298Y-116681464D01*
X164531286Y-120319478D01*
X164419481Y-120431282D01*
X164419480Y-120431284D01*
X164379807Y-120500000D01*
X164340423Y-120568215D01*
X164299499Y-120720943D01*
X164299499Y-120720945D01*
X164299499Y-120889046D01*
X164299500Y-120889059D01*
X164299500Y-126113330D01*
X164299499Y-126113348D01*
X164299499Y-126279054D01*
X164299498Y-126279054D01*
X164340422Y-126431784D01*
X164340423Y-126431785D01*
X164342000Y-126434517D01*
X164342004Y-126434531D01*
X164342008Y-126434530D01*
X164419477Y-126568712D01*
X164419481Y-126568717D01*
X164538349Y-126687585D01*
X164538355Y-126687590D01*
X164769298Y-126918533D01*
X164802783Y-126979856D01*
X164804837Y-126992330D01*
X164814630Y-127079249D01*
X164874210Y-127249521D01*
X164881937Y-127261818D01*
X164970184Y-127402262D01*
X165097738Y-127529816D01*
X165162496Y-127570506D01*
X165208787Y-127622841D01*
X165219435Y-127691894D01*
X165191060Y-127755743D01*
X165132670Y-127794115D01*
X165096524Y-127799500D01*
X156166519Y-127799500D01*
X156099480Y-127779815D01*
X156078838Y-127763181D01*
X154586818Y-126271161D01*
X154553333Y-126209838D01*
X154550499Y-126183480D01*
X154550499Y-124977129D01*
X154550498Y-124977123D01*
X154550497Y-124977116D01*
X154544091Y-124917517D01*
X154542188Y-124912416D01*
X154493797Y-124782671D01*
X154493793Y-124782664D01*
X154407547Y-124667455D01*
X154407544Y-124667452D01*
X154292335Y-124581206D01*
X154292328Y-124581202D01*
X154160917Y-124532189D01*
X154104983Y-124490318D01*
X154080566Y-124424853D01*
X154095418Y-124356580D01*
X154116563Y-124328332D01*
X154238495Y-124206401D01*
X154374035Y-124012830D01*
X154473903Y-123798663D01*
X154535063Y-123570408D01*
X154555659Y-123335000D01*
X154535063Y-123099592D01*
X154473903Y-122871337D01*
X154374035Y-122657171D01*
X154374034Y-122657169D01*
X154238494Y-122463597D01*
X154071402Y-122296506D01*
X154071395Y-122296501D01*
X153877834Y-122160967D01*
X153877830Y-122160965D01*
X153845937Y-122146093D01*
X153663663Y-122061097D01*
X153663659Y-122061096D01*
X153663655Y-122061094D01*
X153435413Y-121999938D01*
X153435403Y-121999936D01*
X153200001Y-121979341D01*
X153199999Y-121979341D01*
X152964596Y-121999936D01*
X152964586Y-121999938D01*
X152736344Y-122061094D01*
X152736335Y-122061098D01*
X152522171Y-122160964D01*
X152522169Y-122160965D01*
X152328597Y-122296505D01*
X152161506Y-122463596D01*
X152025965Y-122657170D01*
X152025962Y-122657175D01*
X152023289Y-122662909D01*
X151977115Y-122715346D01*
X151910909Y-122734500D01*
X151851670Y-122734500D01*
X151851654Y-122734499D01*
X151844058Y-122734499D01*
X151685943Y-122734499D01*
X151609579Y-122754961D01*
X151533214Y-122775423D01*
X151533209Y-122775426D01*
X151396290Y-122854475D01*
X151396282Y-122854481D01*
X149919481Y-124331282D01*
X149919477Y-124331287D01*
X149895111Y-124373493D01*
X149895110Y-124373495D01*
X149840423Y-124468215D01*
X149799499Y-124620943D01*
X149799499Y-124620945D01*
X149799499Y-124789046D01*
X149799500Y-124789059D01*
X149799500Y-129713330D01*
X149799499Y-129713348D01*
X149799499Y-129879054D01*
X149799498Y-129879054D01*
X149803620Y-129894435D01*
X149840423Y-130031785D01*
X149850651Y-130049500D01*
X149919477Y-130168712D01*
X149919481Y-130168717D01*
X150038349Y-130287585D01*
X150038355Y-130287590D01*
X151615139Y-131864374D01*
X151615149Y-131864385D01*
X151619479Y-131868715D01*
X151619480Y-131868716D01*
X151731284Y-131980520D01*
X151757742Y-131995795D01*
X151818095Y-132030639D01*
X151818097Y-132030641D01*
X151856151Y-132052611D01*
X151868215Y-132059577D01*
X152020943Y-132100500D01*
X152179057Y-132100500D01*
X165699903Y-132100500D01*
X165766942Y-132120185D01*
X165787584Y-132136819D01*
X179615139Y-145964374D01*
X179615149Y-145964385D01*
X179619479Y-145968715D01*
X179619480Y-145968716D01*
X179731284Y-146080520D01*
X179818095Y-146130639D01*
X179818097Y-146130641D01*
X179868213Y-146159576D01*
X179868215Y-146159577D01*
X180020942Y-146200500D01*
X180020943Y-146200500D01*
X189913331Y-146200500D01*
X189913347Y-146200501D01*
X189920943Y-146200501D01*
X190079054Y-146200501D01*
X190079057Y-146200501D01*
X190231785Y-146159577D01*
X190281904Y-146130639D01*
X190368716Y-146080520D01*
X190480520Y-145968716D01*
X190480520Y-145968714D01*
X190490728Y-145958507D01*
X190490729Y-145958504D01*
X193180520Y-143268716D01*
X193259577Y-143131784D01*
X193259577Y-143131781D01*
X193260938Y-143128498D01*
X193262831Y-143126148D01*
X193263641Y-143124746D01*
X193263859Y-143124872D01*
X193304778Y-143074093D01*
X193371072Y-143052027D01*
X193438771Y-143069305D01*
X193486383Y-143120441D01*
X193499500Y-143175948D01*
X193499500Y-143996948D01*
X193499351Y-144003033D01*
X193482947Y-144336928D01*
X193481754Y-144349037D01*
X193433151Y-144676694D01*
X193430777Y-144688630D01*
X193350292Y-145009944D01*
X193346759Y-145021588D01*
X193235170Y-145333459D01*
X193230514Y-145344702D01*
X193088885Y-145644151D01*
X193083148Y-145654883D01*
X192912862Y-145938988D01*
X192906102Y-145949106D01*
X192708775Y-146215170D01*
X192701055Y-146224576D01*
X192478611Y-146470006D01*
X192470006Y-146478611D01*
X192224576Y-146701055D01*
X192215170Y-146708775D01*
X191949106Y-146906102D01*
X191938988Y-146912862D01*
X191654883Y-147083148D01*
X191644151Y-147088885D01*
X191344702Y-147230514D01*
X191333459Y-147235170D01*
X191021588Y-147346759D01*
X191009944Y-147350292D01*
X190688630Y-147430777D01*
X190676694Y-147433151D01*
X190349037Y-147481754D01*
X190336928Y-147482947D01*
X190021989Y-147498419D01*
X190003031Y-147499351D01*
X189996949Y-147499500D01*
X165003051Y-147499500D01*
X164996968Y-147499351D01*
X164976900Y-147498365D01*
X164663071Y-147482947D01*
X164650962Y-147481754D01*
X164323305Y-147433151D01*
X164311369Y-147430777D01*
X163990055Y-147350292D01*
X163978411Y-147346759D01*
X163666540Y-147235170D01*
X163655301Y-147230515D01*
X163355844Y-147088883D01*
X163345121Y-147083150D01*
X163061011Y-146912862D01*
X163050893Y-146906102D01*
X162784829Y-146708775D01*
X162775423Y-146701055D01*
X162736475Y-146665755D01*
X162529986Y-146478604D01*
X162521395Y-146470013D01*
X162298944Y-146224576D01*
X162291224Y-146215170D01*
X162093897Y-145949106D01*
X162087137Y-145938988D01*
X161916844Y-145654871D01*
X161911120Y-145644163D01*
X161769479Y-145344688D01*
X161764829Y-145333459D01*
X161653240Y-145021588D01*
X161649707Y-145009944D01*
X161640958Y-144975015D01*
X161569219Y-144688617D01*
X161566848Y-144676694D01*
X161518245Y-144349037D01*
X161517052Y-144336927D01*
X161500649Y-144003032D01*
X161500500Y-143996948D01*
X161500500Y-142848745D01*
X161492235Y-142780680D01*
X161464037Y-142548449D01*
X161391643Y-142254734D01*
X161391642Y-142254731D01*
X161391641Y-142254727D01*
X161284371Y-141971882D01*
X161143793Y-141704035D01*
X161143787Y-141704026D01*
X160971952Y-141455078D01*
X160971947Y-141455072D01*
X160771353Y-141228648D01*
X160771351Y-141228646D01*
X160544927Y-141028052D01*
X160544921Y-141028047D01*
X160295973Y-140856212D01*
X160295964Y-140856206D01*
X160028117Y-140715628D01*
X159745272Y-140608358D01*
X159629820Y-140579902D01*
X159451551Y-140535963D01*
X159271371Y-140514085D01*
X159151254Y-140499500D01*
X159151252Y-140499500D01*
X159000374Y-140499500D01*
X111102725Y-140471116D01*
X111102045Y-140471072D01*
X111094316Y-140471072D01*
X111031471Y-140471072D01*
X111025388Y-140470923D01*
X111013791Y-140470353D01*
X110691493Y-140454522D01*
X110679383Y-140453329D01*
X110351729Y-140404728D01*
X110339794Y-140402354D01*
X110018484Y-140321872D01*
X110006839Y-140318340D01*
X109694952Y-140206746D01*
X109683710Y-140202089D01*
X109384277Y-140060469D01*
X109373545Y-140054733D01*
X109089429Y-139884442D01*
X109079310Y-139877681D01*
X109067165Y-139868674D01*
X108813248Y-139680356D01*
X108803842Y-139672636D01*
X108737093Y-139612138D01*
X108558405Y-139450185D01*
X108549814Y-139441594D01*
X108376163Y-139250000D01*
X160030840Y-139250000D01*
X160071652Y-139384541D01*
X160164503Y-139558253D01*
X160164507Y-139558260D01*
X160289471Y-139710528D01*
X160441739Y-139835491D01*
X160615465Y-139928349D01*
X160750000Y-139969159D01*
X160750000Y-139250000D01*
X160030840Y-139250000D01*
X108376163Y-139250000D01*
X108327363Y-139196157D01*
X108319643Y-139186751D01*
X108305635Y-139167863D01*
X108122314Y-138920683D01*
X108115557Y-138910570D01*
X108081482Y-138853719D01*
X107945266Y-138626454D01*
X107939530Y-138615722D01*
X107797910Y-138316289D01*
X107793253Y-138305047D01*
X107681655Y-137993149D01*
X107678130Y-137981527D01*
X107615127Y-137730000D01*
X159994659Y-137730000D01*
X160013975Y-137926129D01*
X160013976Y-137926132D01*
X160067729Y-138103332D01*
X160071188Y-138114733D01*
X160164086Y-138288532D01*
X160167473Y-138293601D01*
X160165955Y-138294615D01*
X160189918Y-138351042D01*
X160178124Y-138419909D01*
X160167515Y-138436420D01*
X160167893Y-138436673D01*
X160164505Y-138441742D01*
X160071652Y-138615458D01*
X160030839Y-138749999D01*
X160030840Y-138750000D01*
X160790382Y-138750000D01*
X160739936Y-138800446D01*
X160697149Y-138874555D01*
X160675000Y-138957213D01*
X160675000Y-139042787D01*
X160697149Y-139125445D01*
X160739936Y-139199554D01*
X160800446Y-139260064D01*
X160874555Y-139302851D01*
X160957213Y-139325000D01*
X161042787Y-139325000D01*
X161125445Y-139302851D01*
X161199554Y-139260064D01*
X161209618Y-139250000D01*
X161250000Y-139250000D01*
X161250000Y-139969159D01*
X161384534Y-139928349D01*
X161558260Y-139835491D01*
X161710528Y-139710528D01*
X161835492Y-139558260D01*
X161835496Y-139558253D01*
X161928347Y-139384541D01*
X161969160Y-139250000D01*
X161250000Y-139250000D01*
X161209618Y-139250000D01*
X161260064Y-139199554D01*
X161302851Y-139125445D01*
X161325000Y-139042787D01*
X161325000Y-138957213D01*
X161302851Y-138874555D01*
X161260064Y-138800446D01*
X161209618Y-138750000D01*
X161969160Y-138750000D01*
X161969160Y-138749999D01*
X161928347Y-138615458D01*
X161835496Y-138441746D01*
X161832110Y-138436678D01*
X161833784Y-138435559D01*
X161810081Y-138379746D01*
X161821874Y-138310879D01*
X161832839Y-138293818D01*
X161832523Y-138293607D01*
X161835904Y-138288544D01*
X161835910Y-138288538D01*
X161928814Y-138114727D01*
X161986024Y-137926132D01*
X162005341Y-137730000D01*
X161986024Y-137533868D01*
X161928814Y-137345273D01*
X161835910Y-137171462D01*
X161835907Y-137171458D01*
X161832523Y-137166393D01*
X161834164Y-137165296D01*
X161810405Y-137109361D01*
X161822194Y-137040493D01*
X161832888Y-137023851D01*
X161832523Y-137023607D01*
X161835904Y-137018544D01*
X161835910Y-137018538D01*
X161928814Y-136844727D01*
X161986024Y-136656132D01*
X162005341Y-136460000D01*
X161986024Y-136263868D01*
X161928814Y-136075273D01*
X161927677Y-136073146D01*
X161927418Y-136071904D01*
X161926483Y-136069645D01*
X161926911Y-136069467D01*
X161913435Y-136004746D01*
X161937771Y-135940379D01*
X161943796Y-135932331D01*
X161994091Y-135797483D01*
X162000500Y-135737873D01*
X162000499Y-134642128D01*
X161994091Y-134582517D01*
X161992874Y-134579255D01*
X161943797Y-134447671D01*
X161943793Y-134447664D01*
X161857547Y-134332455D01*
X161857544Y-134332452D01*
X161742335Y-134246206D01*
X161742328Y-134246202D01*
X161607482Y-134195908D01*
X161607483Y-134195908D01*
X161547883Y-134189501D01*
X161547881Y-134189500D01*
X161547873Y-134189500D01*
X161547864Y-134189500D01*
X160452129Y-134189500D01*
X160452123Y-134189501D01*
X160392516Y-134195908D01*
X160257671Y-134246202D01*
X160257664Y-134246206D01*
X160142455Y-134332452D01*
X160142452Y-134332455D01*
X160056206Y-134447664D01*
X160056202Y-134447671D01*
X160005908Y-134582517D01*
X160001306Y-134625325D01*
X159999501Y-134642123D01*
X159999500Y-134642135D01*
X159999500Y-135737870D01*
X159999501Y-135737876D01*
X160005908Y-135797483D01*
X160056202Y-135932328D01*
X160056204Y-135932331D01*
X160062231Y-135940382D01*
X160086648Y-136005846D01*
X160073105Y-136069470D01*
X160073518Y-136069641D01*
X160072595Y-136071869D01*
X160072324Y-136073143D01*
X160071188Y-136075267D01*
X160013975Y-136263870D01*
X159994659Y-136460000D01*
X160013975Y-136656129D01*
X160071188Y-136844733D01*
X160164086Y-137018532D01*
X160167473Y-137023601D01*
X160165836Y-137024694D01*
X160189596Y-137080663D01*
X160177795Y-137149529D01*
X160167109Y-137166156D01*
X160167473Y-137166399D01*
X160164086Y-137171467D01*
X160071188Y-137345266D01*
X160013975Y-137533870D01*
X159994659Y-137730000D01*
X107615127Y-137730000D01*
X107597644Y-137660203D01*
X107595271Y-137648270D01*
X107578302Y-137533868D01*
X107546669Y-137320611D01*
X107545477Y-137308507D01*
X107538745Y-137171462D01*
X107529075Y-136974608D01*
X107528927Y-136968524D01*
X107528927Y-136940423D01*
X107528928Y-136905684D01*
X107528927Y-136905680D01*
X107528927Y-136898582D01*
X107528815Y-136896884D01*
X107528803Y-136888967D01*
X107521926Y-132299185D01*
X107541510Y-132232117D01*
X107594246Y-132186283D01*
X107645926Y-132175000D01*
X110820000Y-132175000D01*
X110820000Y-128750000D01*
X111320000Y-128750000D01*
X111320000Y-132175000D01*
X114787828Y-132175000D01*
X114787844Y-132174999D01*
X114847372Y-132168598D01*
X114847379Y-132168596D01*
X114982086Y-132118354D01*
X114982093Y-132118350D01*
X115097187Y-132032190D01*
X115097190Y-132032187D01*
X115183350Y-131917093D01*
X115183354Y-131917086D01*
X115233596Y-131782379D01*
X115233598Y-131782372D01*
X115239999Y-131722844D01*
X115240000Y-131722827D01*
X115240000Y-131308032D01*
X115259685Y-131240993D01*
X115312489Y-131195238D01*
X115381647Y-131185294D01*
X115445203Y-131214319D01*
X115464318Y-131235147D01*
X115542851Y-131343239D01*
X115542856Y-131343245D01*
X115714254Y-131514643D01*
X115910363Y-131657125D01*
X116126340Y-131767172D01*
X116356881Y-131842079D01*
X116596300Y-131880000D01*
X117227500Y-131880000D01*
X117227500Y-130994120D01*
X117273318Y-131013099D01*
X117408556Y-131040000D01*
X117546444Y-131040000D01*
X117681682Y-131013099D01*
X117727500Y-130994120D01*
X117727500Y-131880000D01*
X118358700Y-131880000D01*
X118598118Y-131842079D01*
X118828659Y-131767172D01*
X119044636Y-131657125D01*
X119240745Y-131514643D01*
X119412143Y-131343245D01*
X119554625Y-131147136D01*
X119664672Y-130931159D01*
X119739580Y-130700618D01*
X119739677Y-130700003D01*
X134506935Y-130700003D01*
X134527130Y-130879249D01*
X134527131Y-130879254D01*
X134586711Y-131049523D01*
X134682684Y-131202262D01*
X134810238Y-131329816D01*
X134876227Y-131371279D01*
X134897934Y-131388591D01*
X136708630Y-133199287D01*
X136737990Y-133246013D01*
X136774209Y-133349519D01*
X136870184Y-133502262D01*
X136997738Y-133629816D01*
X137150478Y-133725789D01*
X137254912Y-133762332D01*
X137320745Y-133785368D01*
X137320750Y-133785369D01*
X137499996Y-133805565D01*
X137500000Y-133805565D01*
X137500004Y-133805565D01*
X137679249Y-133785369D01*
X137679252Y-133785368D01*
X137679255Y-133785368D01*
X137849522Y-133725789D01*
X138002262Y-133629816D01*
X138129816Y-133502262D01*
X138225789Y-133349522D01*
X138285368Y-133179255D01*
X138285369Y-133179249D01*
X138305565Y-133000003D01*
X138305565Y-132999996D01*
X138285369Y-132820750D01*
X138285368Y-132820745D01*
X138275427Y-132792335D01*
X138225789Y-132650478D01*
X138192733Y-132597870D01*
X143449500Y-132597870D01*
X143449501Y-132597876D01*
X143455908Y-132657483D01*
X143506202Y-132792328D01*
X143506206Y-132792335D01*
X143592452Y-132907544D01*
X143592455Y-132907547D01*
X143707664Y-132993793D01*
X143707671Y-132993797D01*
X143842517Y-133044091D01*
X143842516Y-133044091D01*
X143849444Y-133044835D01*
X143902127Y-133050500D01*
X145697872Y-133050499D01*
X145757483Y-133044091D01*
X145892331Y-132993796D01*
X146007546Y-132907546D01*
X146093796Y-132792331D01*
X146144091Y-132657483D01*
X146150500Y-132597873D01*
X146150499Y-130802128D01*
X146144091Y-130742517D01*
X146128234Y-130700003D01*
X146093797Y-130607671D01*
X146093793Y-130607664D01*
X146007547Y-130492455D01*
X146007544Y-130492452D01*
X145892335Y-130406206D01*
X145892328Y-130406202D01*
X145757482Y-130355908D01*
X145757483Y-130355908D01*
X145697883Y-130349501D01*
X145697881Y-130349500D01*
X145697873Y-130349500D01*
X145697864Y-130349500D01*
X143902129Y-130349500D01*
X143902123Y-130349501D01*
X143842516Y-130355908D01*
X143707671Y-130406202D01*
X143707664Y-130406206D01*
X143592455Y-130492452D01*
X143592452Y-130492455D01*
X143506206Y-130607664D01*
X143506202Y-130607671D01*
X143455908Y-130742517D01*
X143449501Y-130802116D01*
X143449501Y-130802123D01*
X143449500Y-130802135D01*
X143449500Y-132597870D01*
X138192733Y-132597870D01*
X138129816Y-132497738D01*
X138002262Y-132370184D01*
X137889768Y-132299499D01*
X137849519Y-132274209D01*
X137746013Y-132237990D01*
X137699287Y-132208630D01*
X136139528Y-130648871D01*
X136106043Y-130587548D01*
X136103991Y-130575090D01*
X136097868Y-130520745D01*
X136038289Y-130350478D01*
X136037674Y-130349500D01*
X135942315Y-130197737D01*
X135814762Y-130070184D01*
X135662023Y-129974211D01*
X135491754Y-129914631D01*
X135491749Y-129914630D01*
X135312504Y-129894435D01*
X135312496Y-129894435D01*
X135133250Y-129914630D01*
X135133245Y-129914631D01*
X134962976Y-129974211D01*
X134810237Y-130070184D01*
X134682684Y-130197737D01*
X134586711Y-130350476D01*
X134527131Y-130520745D01*
X134527130Y-130520750D01*
X134506935Y-130699996D01*
X134506935Y-130700003D01*
X119739677Y-130700003D01*
X119757100Y-130590000D01*
X118131621Y-130590000D01*
X118150599Y-130544182D01*
X118177500Y-130408944D01*
X118177500Y-130271056D01*
X118150599Y-130135818D01*
X118131621Y-130090000D01*
X119757100Y-130090000D01*
X119739580Y-129979381D01*
X119664672Y-129748840D01*
X119554625Y-129532863D01*
X119412143Y-129336754D01*
X119240745Y-129165356D01*
X119044636Y-129022874D01*
X118828659Y-128912827D01*
X118598118Y-128837920D01*
X118358700Y-128800000D01*
X117727500Y-128800000D01*
X117727500Y-129685879D01*
X117681682Y-129666901D01*
X117546444Y-129640000D01*
X117408556Y-129640000D01*
X117273318Y-129666901D01*
X117227500Y-129685879D01*
X117227500Y-128800000D01*
X116596300Y-128800000D01*
X116356881Y-128837920D01*
X116126340Y-128912827D01*
X115910363Y-129022874D01*
X115714254Y-129165356D01*
X115542856Y-129336754D01*
X115464318Y-129444853D01*
X115408988Y-129487518D01*
X115339375Y-129493497D01*
X115277580Y-129460891D01*
X115243222Y-129400052D01*
X115240000Y-129371967D01*
X115240000Y-128750000D01*
X111320000Y-128750000D01*
X110820000Y-128750000D01*
X110820000Y-128250000D01*
X111320000Y-128250000D01*
X115240000Y-128250000D01*
X115240000Y-126723230D01*
X115259685Y-126656191D01*
X115312489Y-126610436D01*
X115381647Y-126600492D01*
X115445203Y-126629517D01*
X115451681Y-126635549D01*
X115458844Y-126642712D01*
X115608165Y-126734814D01*
X115774702Y-126789999D01*
X115877490Y-126800500D01*
X115877495Y-126800500D01*
X119077505Y-126800500D01*
X119077510Y-126800500D01*
X119180298Y-126789999D01*
X119346835Y-126734814D01*
X119403273Y-126700003D01*
X129994435Y-126700003D01*
X130014630Y-126879249D01*
X130014631Y-126879254D01*
X130074211Y-127049523D01*
X130170184Y-127202262D01*
X130297738Y-127329816D01*
X130388080Y-127386582D01*
X130450474Y-127425787D01*
X130450478Y-127425789D01*
X130620745Y-127485368D01*
X130620750Y-127485369D01*
X130799996Y-127505565D01*
X130800000Y-127505565D01*
X130800004Y-127505565D01*
X130979249Y-127485369D01*
X130979252Y-127485368D01*
X130979255Y-127485368D01*
X131149522Y-127425789D01*
X131150488Y-127425181D01*
X131159523Y-127419506D01*
X131225494Y-127400500D01*
X132874506Y-127400500D01*
X132940477Y-127419506D01*
X132950474Y-127425787D01*
X132950475Y-127425787D01*
X132950478Y-127425789D01*
X133120745Y-127485368D01*
X133120750Y-127485369D01*
X133299996Y-127505565D01*
X133300000Y-127505565D01*
X133300004Y-127505565D01*
X133479249Y-127485369D01*
X133479252Y-127485368D01*
X133479255Y-127485368D01*
X133649522Y-127425789D01*
X133802262Y-127329816D01*
X133929816Y-127202262D01*
X134025789Y-127049522D01*
X134085368Y-126879255D01*
X134093671Y-126805565D01*
X134105565Y-126700003D01*
X134105565Y-126699996D01*
X134085369Y-126520750D01*
X134085368Y-126520745D01*
X134084637Y-126518656D01*
X134025789Y-126350478D01*
X134025188Y-126349522D01*
X133952784Y-126234291D01*
X133929816Y-126197738D01*
X133802262Y-126070184D01*
X133778194Y-126055061D01*
X133649523Y-125974211D01*
X133479254Y-125914631D01*
X133479249Y-125914630D01*
X133300004Y-125894435D01*
X133299996Y-125894435D01*
X133120750Y-125914630D01*
X133120745Y-125914631D01*
X132950474Y-125974212D01*
X132940477Y-125980494D01*
X132874506Y-125999500D01*
X131225494Y-125999500D01*
X131159523Y-125980494D01*
X131149525Y-125974212D01*
X130979254Y-125914631D01*
X130979249Y-125914630D01*
X130800004Y-125894435D01*
X130799996Y-125894435D01*
X130620750Y-125914630D01*
X130620745Y-125914631D01*
X130450476Y-125974211D01*
X130297737Y-126070184D01*
X130170184Y-126197737D01*
X130074211Y-126350476D01*
X130014631Y-126520745D01*
X130014630Y-126520750D01*
X129994435Y-126699996D01*
X129994435Y-126700003D01*
X119403273Y-126700003D01*
X119496156Y-126642712D01*
X119620212Y-126518656D01*
X119712314Y-126369335D01*
X119767499Y-126202798D01*
X119778000Y-126100010D01*
X119778000Y-124419990D01*
X119767499Y-124317202D01*
X119712314Y-124150665D01*
X119620212Y-124001344D01*
X119496156Y-123877288D01*
X119403390Y-123820070D01*
X119346837Y-123785187D01*
X119346832Y-123785185D01*
X119345363Y-123784698D01*
X119180298Y-123730001D01*
X119180296Y-123730000D01*
X119077517Y-123719500D01*
X119077510Y-123719500D01*
X115877490Y-123719500D01*
X115877482Y-123719500D01*
X115774703Y-123730000D01*
X115774702Y-123730001D01*
X115735278Y-123743065D01*
X115608167Y-123785185D01*
X115608162Y-123785187D01*
X115458842Y-123877289D01*
X115334789Y-124001342D01*
X115242687Y-124150662D01*
X115242685Y-124150667D01*
X115224217Y-124206401D01*
X115187501Y-124317202D01*
X115187501Y-124317203D01*
X115187500Y-124317203D01*
X115177000Y-124419982D01*
X115177000Y-124779834D01*
X115157315Y-124846873D01*
X115104511Y-124892628D01*
X115035353Y-124902572D01*
X114990834Y-124884134D01*
X114989872Y-124885897D01*
X114982086Y-124881645D01*
X114847379Y-124831403D01*
X114847372Y-124831401D01*
X114787844Y-124825000D01*
X111320000Y-124825000D01*
X111320000Y-128250000D01*
X110820000Y-128250000D01*
X110820000Y-124825000D01*
X107634541Y-124825000D01*
X107567502Y-124805315D01*
X107521747Y-124752511D01*
X107510541Y-124701186D01*
X107510495Y-124670184D01*
X107504440Y-120629474D01*
X120824500Y-120629474D01*
X120824501Y-120629491D01*
X120858299Y-120886217D01*
X120858300Y-120886222D01*
X120858301Y-120886228D01*
X120891813Y-121011297D01*
X120925324Y-121136364D01*
X121024423Y-121375609D01*
X121024427Y-121375619D01*
X121153906Y-121599883D01*
X121311551Y-121805331D01*
X121311557Y-121805338D01*
X121494661Y-121988442D01*
X121494668Y-121988448D01*
X121700116Y-122146093D01*
X121924380Y-122275572D01*
X121924381Y-122275572D01*
X121924384Y-122275574D01*
X122163634Y-122374675D01*
X122413772Y-122441699D01*
X122670519Y-122475500D01*
X122670526Y-122475500D01*
X122929474Y-122475500D01*
X122929481Y-122475500D01*
X123186228Y-122441699D01*
X123436366Y-122374675D01*
X123675616Y-122275574D01*
X123899884Y-122146093D01*
X124105333Y-121988447D01*
X124288447Y-121805333D01*
X124446093Y-121599884D01*
X124575574Y-121375616D01*
X124674675Y-121136366D01*
X124741699Y-120886228D01*
X124775500Y-120629481D01*
X124775500Y-120370519D01*
X124741699Y-120113772D01*
X124674675Y-119863634D01*
X124575574Y-119624384D01*
X124446093Y-119400116D01*
X124355930Y-119282613D01*
X124288448Y-119194668D01*
X124288442Y-119194661D01*
X124105338Y-119011557D01*
X124105331Y-119011551D01*
X123899883Y-118853906D01*
X123675619Y-118724427D01*
X123675609Y-118724423D01*
X123436364Y-118625324D01*
X123311297Y-118591813D01*
X123186228Y-118558301D01*
X123186222Y-118558300D01*
X123186217Y-118558299D01*
X122929491Y-118524501D01*
X122929486Y-118524500D01*
X122929481Y-118524500D01*
X122670519Y-118524500D01*
X122670513Y-118524500D01*
X122670508Y-118524501D01*
X122413782Y-118558299D01*
X122413775Y-118558300D01*
X122413772Y-118558301D01*
X122360908Y-118572465D01*
X122163635Y-118625324D01*
X121924390Y-118724423D01*
X121924380Y-118724427D01*
X121700116Y-118853906D01*
X121494668Y-119011551D01*
X121494661Y-119011557D01*
X121311557Y-119194661D01*
X121311551Y-119194668D01*
X121153906Y-119400116D01*
X121024427Y-119624380D01*
X121024423Y-119624390D01*
X120925324Y-119863635D01*
X120858302Y-120113769D01*
X120858299Y-120113782D01*
X120824501Y-120370508D01*
X120824500Y-120370525D01*
X120824500Y-120629474D01*
X107504440Y-120629474D01*
X107500504Y-118003096D01*
X107500652Y-117996882D01*
X107517052Y-117663065D01*
X107518245Y-117650960D01*
X107541356Y-117495160D01*
X107566850Y-117323292D01*
X107569218Y-117311385D01*
X107649710Y-116990043D01*
X107653240Y-116978411D01*
X107764835Y-116666525D01*
X107769476Y-116655318D01*
X107911124Y-116355828D01*
X107916840Y-116345136D01*
X108087145Y-116060998D01*
X108093888Y-116050905D01*
X108291232Y-115784818D01*
X108298935Y-115775433D01*
X108521405Y-115529975D01*
X108529975Y-115521405D01*
X108775433Y-115298935D01*
X108784818Y-115291232D01*
X109050905Y-115093888D01*
X109060998Y-115087145D01*
X109345136Y-114916840D01*
X109355828Y-114911124D01*
X109655318Y-114769476D01*
X109666525Y-114764835D01*
X109978412Y-114653239D01*
X109990043Y-114649710D01*
X110311385Y-114569218D01*
X110323296Y-114566849D01*
X110650962Y-114518244D01*
X110663068Y-114517052D01*
X110996967Y-114500648D01*
X111003051Y-114500500D01*
X111065892Y-114500500D01*
X148976008Y-114500500D01*
X148985518Y-114500865D01*
X148988118Y-114501064D01*
X149027312Y-114504080D01*
X149035129Y-114502616D01*
X149057943Y-114500500D01*
X149065890Y-114500500D01*
X149065892Y-114500500D01*
X149106378Y-114489651D01*
X149115631Y-114487549D01*
X149156846Y-114479835D01*
X149164011Y-114476401D01*
X149185501Y-114468450D01*
X149193186Y-114466392D01*
X149229495Y-114445427D01*
X149237878Y-114441007D01*
X149275692Y-114422890D01*
X149281723Y-114417719D01*
X149300430Y-114404474D01*
X149307314Y-114400500D01*
X149336945Y-114370869D01*
X149343928Y-114364402D01*
X156150320Y-108530352D01*
X156214031Y-108501669D01*
X156231018Y-108500500D01*
X189934108Y-108500500D01*
X189996949Y-108500500D01*
X190003032Y-108500648D01*
G37*
%TD.AperFunction*%
%TA.AperFunction,Conductor*%
G36*
X152015600Y-124036147D02*
G01*
X152071534Y-124078019D01*
X152073834Y-124081194D01*
X152076788Y-124085412D01*
X152161505Y-124206401D01*
X152283430Y-124328326D01*
X152316915Y-124389649D01*
X152311931Y-124459341D01*
X152270059Y-124515274D01*
X152239083Y-124532189D01*
X152107669Y-124581203D01*
X152107664Y-124581206D01*
X151992455Y-124667452D01*
X151992452Y-124667455D01*
X151906206Y-124782664D01*
X151906202Y-124782671D01*
X151855908Y-124917517D01*
X151852365Y-124950478D01*
X151849501Y-124977123D01*
X151849500Y-124977135D01*
X151849500Y-126772870D01*
X151849501Y-126772876D01*
X151855908Y-126832483D01*
X151906202Y-126967328D01*
X151906206Y-126967335D01*
X151992452Y-127082544D01*
X151992455Y-127082547D01*
X152107664Y-127168793D01*
X152107671Y-127168797D01*
X152242517Y-127219091D01*
X152242516Y-127219091D01*
X152249444Y-127219835D01*
X152302127Y-127225500D01*
X153508480Y-127225499D01*
X153575519Y-127245184D01*
X153596161Y-127261818D01*
X155378453Y-129044111D01*
X155378454Y-129044112D01*
X155493192Y-129120777D01*
X155600817Y-129165356D01*
X155620672Y-129173580D01*
X155620676Y-129173580D01*
X155620677Y-129173581D01*
X155756003Y-129200500D01*
X155756006Y-129200500D01*
X155756007Y-129200500D01*
X185435501Y-129200500D01*
X185502540Y-129220185D01*
X185548295Y-129272989D01*
X185559501Y-129324500D01*
X185559501Y-131722876D01*
X185565908Y-131782483D01*
X185616202Y-131917328D01*
X185616206Y-131917335D01*
X185702452Y-132032544D01*
X185702455Y-132032547D01*
X185817664Y-132118793D01*
X185817671Y-132118797D01*
X185952517Y-132169091D01*
X185952516Y-132169091D01*
X185959444Y-132169835D01*
X186012127Y-132175500D01*
X186325000Y-132175499D01*
X186325000Y-132219496D01*
X186345444Y-132295796D01*
X186384940Y-132364205D01*
X186440795Y-132420060D01*
X186458012Y-132430000D01*
X185655138Y-132430000D01*
X185663430Y-132471690D01*
X185663430Y-132471692D01*
X185738807Y-132653671D01*
X185738814Y-132653684D01*
X185848248Y-132817462D01*
X185848251Y-132817466D01*
X185987533Y-132956748D01*
X185987537Y-132956751D01*
X186151315Y-133066185D01*
X186151328Y-133066192D01*
X186333306Y-133141569D01*
X186333318Y-133141572D01*
X186526504Y-133179999D01*
X186526508Y-133180000D01*
X187043955Y-133180000D01*
X187110994Y-133199685D01*
X187156749Y-133252489D01*
X187166693Y-133321647D01*
X187151342Y-133366000D01*
X187138720Y-133387861D01*
X187138720Y-133387862D01*
X187099500Y-133534234D01*
X187099500Y-133685765D01*
X187138719Y-133832136D01*
X187176594Y-133897737D01*
X187214485Y-133963365D01*
X187321635Y-134070515D01*
X187452865Y-134146281D01*
X187599234Y-134185500D01*
X187599236Y-134185500D01*
X187750764Y-134185500D01*
X187750766Y-134185500D01*
X187897135Y-134146281D01*
X187926016Y-134129606D01*
X187993913Y-134113133D01*
X188059941Y-134135984D01*
X188103133Y-134190904D01*
X188111236Y-134250876D01*
X188094435Y-134399995D01*
X188094435Y-134400003D01*
X188114630Y-134579249D01*
X188114631Y-134579254D01*
X188174211Y-134749523D01*
X188270185Y-134902263D01*
X188272445Y-134905097D01*
X188273334Y-134907275D01*
X188273889Y-134908158D01*
X188273734Y-134908255D01*
X188298855Y-134969783D01*
X188299500Y-134982412D01*
X188299500Y-136821928D01*
X188279815Y-136888967D01*
X188227011Y-136934722D01*
X188157853Y-136944666D01*
X188109531Y-136926924D01*
X188089899Y-136914589D01*
X187919642Y-136855013D01*
X187919629Y-136855010D01*
X187740384Y-136834815D01*
X187740376Y-136834815D01*
X187561130Y-136855010D01*
X187561125Y-136855011D01*
X187390856Y-136914591D01*
X187238117Y-137010564D01*
X187110564Y-137138117D01*
X187014591Y-137290856D01*
X186955011Y-137461125D01*
X186955010Y-137461130D01*
X186934815Y-137640376D01*
X186934815Y-137640383D01*
X186955010Y-137819629D01*
X186955011Y-137819634D01*
X187014591Y-137989903D01*
X187096453Y-138120185D01*
X187110564Y-138142642D01*
X187238118Y-138270196D01*
X187390858Y-138366169D01*
X187561125Y-138425748D01*
X187648049Y-138435541D01*
X187712460Y-138462606D01*
X187721845Y-138471080D01*
X187854646Y-138603881D01*
X187888131Y-138665204D01*
X187883147Y-138734896D01*
X187841275Y-138790829D01*
X187775811Y-138815246D01*
X187750790Y-138814503D01*
X187750767Y-138814500D01*
X187750766Y-138814500D01*
X187599234Y-138814500D01*
X187452863Y-138853719D01*
X187321635Y-138929485D01*
X187321632Y-138929487D01*
X187214487Y-139036632D01*
X187214485Y-139036635D01*
X187138719Y-139167863D01*
X187111303Y-139270184D01*
X187099500Y-139314234D01*
X187099500Y-139465766D01*
X187128833Y-139575241D01*
X187138720Y-139612137D01*
X187138720Y-139612138D01*
X187151342Y-139634000D01*
X187167815Y-139701901D01*
X187144962Y-139767927D01*
X187090041Y-139811118D01*
X187043955Y-139820000D01*
X186526504Y-139820000D01*
X186333318Y-139858427D01*
X186333306Y-139858430D01*
X186151328Y-139933807D01*
X186151315Y-139933814D01*
X185987537Y-140043248D01*
X185987533Y-140043251D01*
X185848251Y-140182533D01*
X185848248Y-140182537D01*
X185738814Y-140346315D01*
X185738807Y-140346328D01*
X185663430Y-140528307D01*
X185663430Y-140528309D01*
X185655138Y-140570000D01*
X186458012Y-140570000D01*
X186440795Y-140579940D01*
X186384940Y-140635795D01*
X186345444Y-140704204D01*
X186325000Y-140780504D01*
X186325000Y-140859496D01*
X186345444Y-140935796D01*
X186384940Y-141004205D01*
X186440795Y-141060060D01*
X186458012Y-141070000D01*
X185655138Y-141070000D01*
X185663430Y-141111690D01*
X185663430Y-141111692D01*
X185738807Y-141293671D01*
X185738814Y-141293684D01*
X185848248Y-141457462D01*
X185848251Y-141457466D01*
X185987533Y-141596748D01*
X185987537Y-141596751D01*
X186151315Y-141706185D01*
X186151328Y-141706192D01*
X186333306Y-141781569D01*
X186333318Y-141781572D01*
X186526504Y-141819999D01*
X186526508Y-141820000D01*
X186925000Y-141820000D01*
X186925000Y-141120000D01*
X187425000Y-141120000D01*
X187425000Y-141820000D01*
X187823492Y-141820000D01*
X187823495Y-141819999D01*
X188016681Y-141781572D01*
X188016693Y-141781569D01*
X188198671Y-141706192D01*
X188198684Y-141706185D01*
X188362462Y-141596751D01*
X188362466Y-141596748D01*
X188501748Y-141457466D01*
X188501751Y-141457462D01*
X188611185Y-141293684D01*
X188611192Y-141293671D01*
X188686569Y-141111692D01*
X188686569Y-141111690D01*
X188694862Y-141070000D01*
X187891988Y-141070000D01*
X187909205Y-141060060D01*
X187965060Y-141004205D01*
X188004556Y-140935796D01*
X188025000Y-140859496D01*
X188025000Y-140780504D01*
X188004556Y-140704204D01*
X187965060Y-140635795D01*
X187909205Y-140579940D01*
X187891988Y-140570000D01*
X188694862Y-140570000D01*
X188686569Y-140528309D01*
X188686569Y-140528307D01*
X188611192Y-140346328D01*
X188611185Y-140346315D01*
X188501751Y-140182537D01*
X188501748Y-140182533D01*
X188362466Y-140043251D01*
X188362462Y-140043248D01*
X188198684Y-139933814D01*
X188198674Y-139933809D01*
X188189157Y-139929867D01*
X188134754Y-139886026D01*
X188112689Y-139819731D01*
X188129969Y-139752032D01*
X188133648Y-139746597D01*
X188135512Y-139743367D01*
X188135515Y-139743365D01*
X188211281Y-139612135D01*
X188250500Y-139465766D01*
X188250500Y-139314234D01*
X188250499Y-139314231D01*
X188250498Y-139314222D01*
X188250500Y-139314209D01*
X188250500Y-139306107D01*
X188251763Y-139306107D01*
X188261262Y-139245186D01*
X188307641Y-139192930D01*
X188374910Y-139174043D01*
X188441711Y-139194522D01*
X188461118Y-139210353D01*
X189058116Y-139807351D01*
X189091601Y-139868674D01*
X189094435Y-139895032D01*
X189094435Y-139900003D01*
X189114630Y-140079249D01*
X189114631Y-140079254D01*
X189174211Y-140249523D01*
X189235030Y-140346315D01*
X189270184Y-140402262D01*
X189397738Y-140529816D01*
X189550478Y-140625789D01*
X189579074Y-140635795D01*
X189720745Y-140685368D01*
X189720750Y-140685369D01*
X189899996Y-140705565D01*
X189900000Y-140705565D01*
X189900004Y-140705565D01*
X190079249Y-140685369D01*
X190079251Y-140685368D01*
X190079255Y-140685368D01*
X190079258Y-140685366D01*
X190079262Y-140685366D01*
X190220926Y-140635795D01*
X190249522Y-140625789D01*
X190308062Y-140589006D01*
X190374034Y-140570000D01*
X190758012Y-140570000D01*
X190740795Y-140579940D01*
X190684940Y-140635795D01*
X190645444Y-140704204D01*
X190625000Y-140780504D01*
X190625000Y-140859496D01*
X190645444Y-140935796D01*
X190684940Y-141004205D01*
X190740795Y-141060060D01*
X190758012Y-141070000D01*
X189955138Y-141070000D01*
X189963430Y-141111690D01*
X189963430Y-141111692D01*
X190038807Y-141293671D01*
X190038814Y-141293684D01*
X190148248Y-141457462D01*
X190148251Y-141457466D01*
X190287533Y-141596748D01*
X190287537Y-141596751D01*
X190451315Y-141706185D01*
X190451328Y-141706192D01*
X190633306Y-141781569D01*
X190633318Y-141781572D01*
X190826504Y-141819999D01*
X190826508Y-141820000D01*
X191075000Y-141820000D01*
X191075000Y-141120000D01*
X191575000Y-141120000D01*
X191575000Y-141820000D01*
X191823492Y-141820000D01*
X191823495Y-141819999D01*
X191951309Y-141794576D01*
X192020900Y-141800803D01*
X192076078Y-141843666D01*
X192099322Y-141909556D01*
X192099500Y-141916193D01*
X192099500Y-142599902D01*
X192079815Y-142666941D01*
X192063181Y-142687583D01*
X189787584Y-144963181D01*
X189726261Y-144996666D01*
X189699903Y-144999500D01*
X180400097Y-144999500D01*
X180333058Y-144979815D01*
X180312416Y-144963181D01*
X171978709Y-136629474D01*
X176024500Y-136629474D01*
X176024501Y-136629491D01*
X176058299Y-136886217D01*
X176058300Y-136886222D01*
X176058301Y-136886228D01*
X176091617Y-137010564D01*
X176125324Y-137136364D01*
X176224423Y-137375609D01*
X176224427Y-137375619D01*
X176353906Y-137599883D01*
X176511551Y-137805331D01*
X176511557Y-137805338D01*
X176694661Y-137988442D01*
X176694668Y-137988448D01*
X176900116Y-138146093D01*
X177124380Y-138275572D01*
X177124381Y-138275572D01*
X177124384Y-138275574D01*
X177363634Y-138374675D01*
X177613772Y-138441699D01*
X177870519Y-138475500D01*
X177870526Y-138475500D01*
X178129474Y-138475500D01*
X178129481Y-138475500D01*
X178386228Y-138441699D01*
X178636366Y-138374675D01*
X178875616Y-138275574D01*
X179099884Y-138146093D01*
X179305333Y-137988447D01*
X179488447Y-137805333D01*
X179646093Y-137599884D01*
X179775574Y-137375616D01*
X179874675Y-137136366D01*
X179941699Y-136886228D01*
X179975500Y-136629481D01*
X179975500Y-136370519D01*
X179941699Y-136113772D01*
X179874675Y-135863634D01*
X179775574Y-135624384D01*
X179646093Y-135400116D01*
X179488447Y-135194667D01*
X179488442Y-135194661D01*
X179305338Y-135011557D01*
X179305331Y-135011551D01*
X179099883Y-134853906D01*
X178875619Y-134724427D01*
X178875609Y-134724423D01*
X178636364Y-134625324D01*
X178511297Y-134591813D01*
X178386228Y-134558301D01*
X178386222Y-134558300D01*
X178386217Y-134558299D01*
X178129491Y-134524501D01*
X178129486Y-134524500D01*
X178129481Y-134524500D01*
X177870519Y-134524500D01*
X177870513Y-134524500D01*
X177870508Y-134524501D01*
X177613782Y-134558299D01*
X177613775Y-134558300D01*
X177613772Y-134558301D01*
X177560908Y-134572465D01*
X177363635Y-134625324D01*
X177124390Y-134724423D01*
X177124380Y-134724427D01*
X176900116Y-134853906D01*
X176694668Y-135011551D01*
X176694661Y-135011557D01*
X176511557Y-135194661D01*
X176511551Y-135194668D01*
X176353906Y-135400116D01*
X176224427Y-135624380D01*
X176224423Y-135624390D01*
X176125324Y-135863635D01*
X176072465Y-136060908D01*
X176069188Y-136073143D01*
X176058302Y-136113769D01*
X176058299Y-136113782D01*
X176024501Y-136370508D01*
X176024500Y-136370525D01*
X176024500Y-136629474D01*
X171978709Y-136629474D01*
X166487590Y-131138355D01*
X166487588Y-131138352D01*
X166368717Y-131019481D01*
X166368716Y-131019480D01*
X166281904Y-130969360D01*
X166281904Y-130969359D01*
X166281900Y-130969358D01*
X166231785Y-130940423D01*
X166079057Y-130899499D01*
X165920943Y-130899499D01*
X165913347Y-130899499D01*
X165913331Y-130899500D01*
X152400097Y-130899500D01*
X152333058Y-130879815D01*
X152312416Y-130863181D01*
X151036819Y-129587584D01*
X151003334Y-129526261D01*
X151000500Y-129499903D01*
X151000500Y-125000097D01*
X151020185Y-124933058D01*
X151036819Y-124912416D01*
X151458917Y-124490318D01*
X151884588Y-124064646D01*
X151945909Y-124031163D01*
X152015600Y-124036147D01*
G37*
%TD.AperFunction*%
%TA.AperFunction,Conductor*%
G36*
X190166942Y-138120185D02*
G01*
X190187584Y-138136819D01*
X191659084Y-139608319D01*
X191692569Y-139669642D01*
X191687585Y-139739334D01*
X191645713Y-139795267D01*
X191580249Y-139819684D01*
X191575133Y-139819866D01*
X191575000Y-139820000D01*
X191575000Y-140520000D01*
X191075000Y-140520000D01*
X191075000Y-139820000D01*
X190826508Y-139820000D01*
X190820446Y-139820597D01*
X190820192Y-139818027D01*
X190761783Y-139812777D01*
X190706623Y-139769891D01*
X190686339Y-139724997D01*
X190685369Y-139720749D01*
X190655014Y-139634000D01*
X190625789Y-139550478D01*
X190529816Y-139397738D01*
X190402262Y-139270184D01*
X190386156Y-139260064D01*
X190249521Y-139174210D01*
X190110157Y-139125445D01*
X190082297Y-139115696D01*
X190035571Y-139086336D01*
X189278337Y-138329102D01*
X189244852Y-138267779D01*
X189249836Y-138198087D01*
X189278340Y-138153737D01*
X189289436Y-138142642D01*
X189295265Y-138136814D01*
X189356590Y-138103332D01*
X189382941Y-138100500D01*
X190099903Y-138100500D01*
X190166942Y-138120185D01*
G37*
%TD.AperFunction*%
%TA.AperFunction,Conductor*%
G36*
X189869788Y-132195184D02*
G01*
X189915543Y-132247988D01*
X189924366Y-132275308D01*
X189963427Y-132471681D01*
X189963430Y-132471693D01*
X190038807Y-132653671D01*
X190038814Y-132653684D01*
X190148248Y-132817462D01*
X190148251Y-132817466D01*
X190287533Y-132956748D01*
X190287537Y-132956751D01*
X190451315Y-133066185D01*
X190451328Y-133066192D01*
X190633306Y-133141569D01*
X190633318Y-133141572D01*
X190826504Y-133179999D01*
X190826508Y-133180000D01*
X191075000Y-133180000D01*
X191075000Y-132480000D01*
X191575000Y-132480000D01*
X191575000Y-133180000D01*
X191823492Y-133180000D01*
X191823495Y-133179999D01*
X192016681Y-133141572D01*
X192016693Y-133141569D01*
X192198671Y-133066192D01*
X192198684Y-133066185D01*
X192362462Y-132956751D01*
X192362466Y-132956748D01*
X192501748Y-132817466D01*
X192501751Y-132817462D01*
X192611185Y-132653684D01*
X192611192Y-132653671D01*
X192686569Y-132471693D01*
X192686572Y-132471681D01*
X192725634Y-132275308D01*
X192758019Y-132213397D01*
X192818734Y-132178823D01*
X192847250Y-132175499D01*
X193375500Y-132175499D01*
X193442539Y-132195184D01*
X193488294Y-132247988D01*
X193499500Y-132299499D01*
X193499500Y-139524050D01*
X193479815Y-139591089D01*
X193427011Y-139636844D01*
X193357853Y-139646788D01*
X193294297Y-139617763D01*
X193263642Y-139575253D01*
X193263641Y-139575254D01*
X193263633Y-139575241D01*
X193260940Y-139571506D01*
X193259578Y-139568219D01*
X193259577Y-139568215D01*
X193230639Y-139518095D01*
X193180520Y-139431284D01*
X193068716Y-139319480D01*
X193068715Y-139319479D01*
X193064385Y-139315149D01*
X193064374Y-139315139D01*
X190887590Y-137138355D01*
X190887588Y-137138352D01*
X190768717Y-137019481D01*
X190768716Y-137019480D01*
X190681904Y-136969360D01*
X190681904Y-136969359D01*
X190681900Y-136969358D01*
X190631785Y-136940423D01*
X190479057Y-136899499D01*
X190320943Y-136899499D01*
X190313347Y-136899499D01*
X190313331Y-136899500D01*
X189624500Y-136899500D01*
X189557461Y-136879815D01*
X189511706Y-136827011D01*
X189500500Y-136775500D01*
X189500500Y-134982412D01*
X189520185Y-134915373D01*
X189527555Y-134905097D01*
X189529810Y-134902267D01*
X189529816Y-134902262D01*
X189625789Y-134749522D01*
X189685368Y-134579255D01*
X189687729Y-134558299D01*
X189705565Y-134400003D01*
X189705565Y-134399996D01*
X189685369Y-134220750D01*
X189685368Y-134220745D01*
X189625789Y-134050478D01*
X189529816Y-133897738D01*
X189402262Y-133770184D01*
X189389766Y-133762332D01*
X189249523Y-133674211D01*
X189079254Y-133614631D01*
X189079249Y-133614630D01*
X188900004Y-133594435D01*
X188899996Y-133594435D01*
X188720750Y-133614630D01*
X188720745Y-133614631D01*
X188550476Y-133674211D01*
X188440472Y-133743332D01*
X188373235Y-133762332D01*
X188306400Y-133741964D01*
X188261186Y-133688696D01*
X188250500Y-133638338D01*
X188250500Y-133534236D01*
X188250500Y-133534234D01*
X188211281Y-133387865D01*
X188135515Y-133256635D01*
X188135513Y-133256633D01*
X188131451Y-133249597D01*
X188133654Y-133248325D01*
X188113041Y-133195022D01*
X188127073Y-133126576D01*
X188175882Y-133076582D01*
X188189163Y-133070129D01*
X188198682Y-133066186D01*
X188198684Y-133066185D01*
X188362462Y-132956751D01*
X188362466Y-132956748D01*
X188501748Y-132817466D01*
X188501751Y-132817462D01*
X188611185Y-132653684D01*
X188611192Y-132653671D01*
X188686569Y-132471693D01*
X188686572Y-132471681D01*
X188725634Y-132275308D01*
X188758019Y-132213397D01*
X188818734Y-132178823D01*
X188847245Y-132175499D01*
X189802750Y-132175499D01*
X189869788Y-132195184D01*
G37*
%TD.AperFunction*%
%TA.AperFunction,Conductor*%
G36*
X185070000Y-126050633D02*
G01*
X185283483Y-125993433D01*
X185283492Y-125993430D01*
X185383095Y-125946984D01*
X185452172Y-125936492D01*
X185515956Y-125965011D01*
X185554196Y-126023488D01*
X185559500Y-126059366D01*
X185559500Y-127675500D01*
X185539815Y-127742539D01*
X185487011Y-127788294D01*
X185435500Y-127799500D01*
X166103476Y-127799500D01*
X166036437Y-127779815D01*
X165990682Y-127727011D01*
X165980738Y-127657853D01*
X166009763Y-127594297D01*
X166037504Y-127570506D01*
X166102262Y-127529816D01*
X166229816Y-127402262D01*
X166325789Y-127249522D01*
X166385368Y-127079255D01*
X166395162Y-126992330D01*
X166405565Y-126900003D01*
X166405565Y-126899996D01*
X166385369Y-126720750D01*
X166385368Y-126720745D01*
X166371293Y-126680520D01*
X166325789Y-126550478D01*
X166307106Y-126520745D01*
X166279319Y-126476521D01*
X166229816Y-126397738D01*
X166229815Y-126397737D01*
X166226111Y-126391842D01*
X166228409Y-126390397D01*
X166206659Y-126337151D01*
X166219401Y-126268453D01*
X166267261Y-126217550D01*
X166330012Y-126200500D01*
X171451928Y-126200500D01*
X171518967Y-126220185D01*
X171564722Y-126272989D01*
X171574666Y-126342147D01*
X171568970Y-126365454D01*
X171514632Y-126520742D01*
X171514630Y-126520750D01*
X171494435Y-126699996D01*
X171494435Y-126700003D01*
X171514630Y-126879249D01*
X171514631Y-126879254D01*
X171574211Y-127049523D01*
X171670184Y-127202262D01*
X171797738Y-127329816D01*
X171888080Y-127386582D01*
X171950474Y-127425787D01*
X171950478Y-127425789D01*
X172120745Y-127485368D01*
X172120750Y-127485369D01*
X172299996Y-127505565D01*
X172300000Y-127505565D01*
X172300004Y-127505565D01*
X172479249Y-127485369D01*
X172479252Y-127485368D01*
X172479255Y-127485368D01*
X172649522Y-127425789D01*
X172802262Y-127329816D01*
X172929816Y-127202262D01*
X173025789Y-127049522D01*
X173085368Y-126879255D01*
X173094242Y-126800499D01*
X173099121Y-126757190D01*
X173114955Y-126709071D01*
X173147825Y-126652140D01*
X173147825Y-126652139D01*
X173159577Y-126631785D01*
X173200500Y-126479057D01*
X173200500Y-126320943D01*
X173200500Y-126297114D01*
X173220185Y-126230075D01*
X173272989Y-126184320D01*
X173342147Y-126174376D01*
X173405703Y-126203401D01*
X173441542Y-126256160D01*
X173474210Y-126349521D01*
X173499894Y-126390397D01*
X173570184Y-126502262D01*
X173697738Y-126629816D01*
X173788080Y-126686582D01*
X173842450Y-126720745D01*
X173850478Y-126725789D01*
X173985045Y-126772876D01*
X174020745Y-126785368D01*
X174020750Y-126785369D01*
X174199996Y-126805565D01*
X174200000Y-126805565D01*
X174200004Y-126805565D01*
X174379249Y-126785369D01*
X174379252Y-126785368D01*
X174379255Y-126785368D01*
X174549522Y-126725789D01*
X174702262Y-126629816D01*
X174829816Y-126502262D01*
X174925789Y-126349522D01*
X174985368Y-126179255D01*
X174994297Y-126100010D01*
X175005565Y-126000003D01*
X175005565Y-125999996D01*
X174985369Y-125820750D01*
X174985368Y-125820745D01*
X174935238Y-125677483D01*
X174925789Y-125650478D01*
X174917049Y-125636569D01*
X174826111Y-125491842D01*
X174828227Y-125490512D01*
X174806198Y-125436548D01*
X174818956Y-125367853D01*
X174866828Y-125316960D01*
X174934615Y-125300028D01*
X174961647Y-125304150D01*
X175022666Y-125320501D01*
X175022667Y-125320501D01*
X175188377Y-125320501D01*
X175188393Y-125320500D01*
X175725501Y-125320500D01*
X175792540Y-125340185D01*
X175838295Y-125392989D01*
X175849501Y-125444500D01*
X175849501Y-125617876D01*
X175855908Y-125677483D01*
X175906202Y-125812328D01*
X175906206Y-125812335D01*
X175992452Y-125927544D01*
X175992455Y-125927547D01*
X176107664Y-126013793D01*
X176107671Y-126013797D01*
X176242517Y-126064091D01*
X176242516Y-126064091D01*
X176249444Y-126064835D01*
X176302127Y-126070500D01*
X178097872Y-126070499D01*
X178157483Y-126064091D01*
X178292331Y-126013796D01*
X178407546Y-125927546D01*
X178493796Y-125812331D01*
X178542810Y-125680916D01*
X178584681Y-125624984D01*
X178650145Y-125600566D01*
X178718418Y-125615417D01*
X178746673Y-125636569D01*
X178868599Y-125758495D01*
X178946307Y-125812907D01*
X179062165Y-125894032D01*
X179062167Y-125894033D01*
X179062170Y-125894035D01*
X179276337Y-125993903D01*
X179276343Y-125993904D01*
X179276344Y-125993905D01*
X179299103Y-126000003D01*
X179504592Y-126055063D01*
X179681034Y-126070500D01*
X179739999Y-126075659D01*
X179740000Y-126075659D01*
X179740001Y-126075659D01*
X179798966Y-126070500D01*
X179975408Y-126055063D01*
X180203663Y-125993903D01*
X180417830Y-125894035D01*
X180611401Y-125758495D01*
X180778495Y-125591401D01*
X180908425Y-125405842D01*
X180963002Y-125362217D01*
X181032500Y-125355023D01*
X181094855Y-125386546D01*
X181111575Y-125405842D01*
X181241278Y-125591078D01*
X181241505Y-125591401D01*
X181408599Y-125758495D01*
X181486307Y-125812907D01*
X181602165Y-125894032D01*
X181602167Y-125894033D01*
X181602170Y-125894035D01*
X181816337Y-125993903D01*
X181816343Y-125993904D01*
X181816344Y-125993905D01*
X181839103Y-126000003D01*
X182044592Y-126055063D01*
X182221034Y-126070500D01*
X182279999Y-126075659D01*
X182280000Y-126075659D01*
X182280001Y-126075659D01*
X182338966Y-126070500D01*
X182515408Y-126055063D01*
X182743663Y-125993903D01*
X182957830Y-125894035D01*
X183151401Y-125758495D01*
X183318495Y-125591401D01*
X183448730Y-125405405D01*
X183503307Y-125361781D01*
X183572805Y-125354587D01*
X183635160Y-125386110D01*
X183651879Y-125405405D01*
X183781890Y-125591078D01*
X183948917Y-125758105D01*
X184142421Y-125893600D01*
X184356507Y-125993429D01*
X184356516Y-125993433D01*
X184570000Y-126050634D01*
X184570000Y-125153012D01*
X184627007Y-125185925D01*
X184754174Y-125220000D01*
X184885826Y-125220000D01*
X185012993Y-125185925D01*
X185070000Y-125153012D01*
X185070000Y-126050633D01*
G37*
%TD.AperFunction*%
%TD*%
M02*
